Pliska-Regular.ufo
<glyph name="quotedbl" format="1">
  <advance width="408"/>
  <unicode hex="0022"/>
  <outline>
    <contour>
      <point x="77" y="635" type="curve" smooth="yes"/>
      <point x="77" y="658"/>
      <point x="96" y="676"/>
      <point x="120" y="676" type="curve" smooth="yes"/>
      <point x="143" y="676"/>
      <point x="162" y="658"/>
      <point x="162" y="636" type="curve" smooth="yes"/>
      <point x="162" y="607"/>
      <point x="153" y="547"/>
      <point x="137" y="471" type="curve" smooth="yes"/>
      <point x="130" y="431" type="line"/>
      <point x="109" y="431" type="line"/>
      <point x="92" y="521"/>
      <point x="77" y="619"/>
    </contour>
    <contour>
      <point x="246" y="635" type="curve" smooth="yes"/>
      <point x="246" y="658"/>
      <point x="265" y="676"/>
      <point x="289" y="676" type="curve" smooth="yes"/>
      <point x="312" y="676"/>
      <point x="331" y="658"/>
      <point x="331" y="636" type="curve" smooth="yes"/>
      <point x="331" y="607"/>
      <point x="322" y="547"/>
      <point x="306" y="471" type="curve" smooth="yes"/>
      <point x="299" y="431" type="line"/>
      <point x="278" y="431" type="line"/>
      <point x="261" y="521"/>
      <point x="246" y="619"/>
    </contour>
  </outline>
</glyph>
<glyph name="numbersign" format="1">
  <advance width="500"/>
  <unicode hex="0023"/>
  <outline>
    <contour>
      <point x="5" y="216" type="line"/>
      <point x="5" y="271" type="line"/>
      <point x="121" y="271" type="line"/>
      <point x="142" y="405" type="line"/>
      <point x="32" y="405" type="line"/>
      <point x="32" y="460" type="line"/>
      <point x="150" y="460" type="line"/>
      <point x="181" y="662" type="line"/>
      <point x="239" y="662" type="line"/>
      <point x="208" y="460" type="line"/>
      <point x="341" y="460" type="line"/>
      <point x="371" y="662" type="line"/>
      <point x="429" y="662" type="line"/>
      <point x="399" y="460" type="line"/>
      <point x="496" y="460" type="line"/>
      <point x="496" y="405" type="line"/>
      <point x="391" y="405" type="line"/>
      <point x="371" y="271" type="line"/>
      <point x="471" y="271" type="line"/>
      <point x="471" y="216" type="line"/>
      <point x="362" y="216" type="line"/>
      <point x="331" y="0" type="line"/>
      <point x="273" y="0" type="line"/>
      <point x="304" y="216" type="line"/>
      <point x="170" y="216" type="line"/>
      <point x="137" y="0" type="line"/>
      <point x="79" y="0" type="line"/>
      <point x="112" y="216" type="line"/>
    </contour>
    <contour>
      <point x="179" y="271" type="line"/>
      <point x="313" y="271" type="line"/>
      <point x="333" y="405" type="line"/>
      <point x="200" y="405" type="line"/>
    </contour>
  </outline>
</glyph>
<glyph name="dollar" format="1">
  <advance width="500"/>
  <unicode hex="0024"/>
  <outline>
    <contour>
      <point x="44" y="51" type="curve"/>
      <point x="44" y="181" type="line"/>
      <point x="59" y="181" type="line"/>
      <point x="83" y="76"/>
      <point x="136" y="29"/>
      <point x="230" y="28" type="curve"/>
      <point x="230" y="310" type="line"/>
      <point x="159" y="350"/>
      <point x="137" y="365"/>
      <point x="108" y="393" type="curve" smooth="yes"/>
      <point x="68" y="430"/>
      <point x="52" y="465"/>
      <point x="52" y="512" type="curve" smooth="yes"/>
      <point x="52" y="555"/>
      <point x="72" y="595"/>
      <point x="106" y="622" type="curve" smooth="yes"/>
      <point x="139" y="648"/>
      <point x="167" y="657"/>
      <point x="230" y="664" type="curve"/>
      <point x="230" y="727" type="line"/>
      <point x="264" y="727" type="line"/>
      <point x="264" y="664" type="line"/>
      <point x="348" y="654"/>
      <point x="391" y="639"/>
      <point x="425" y="611" type="curve"/>
      <point x="425" y="500" type="line"/>
      <point x="410" y="500" type="line"/>
      <point x="393" y="585"/>
      <point x="348" y="627"/>
      <point x="264" y="637" type="curve"/>
      <point x="264" y="391" type="line"/>
      <point x="385" y="321"/>
      <point x="412" y="301"/>
      <point x="437" y="260" type="curve" smooth="yes"/>
      <point x="449" y="240"/>
      <point x="457" y="204"/>
      <point x="457" y="170" type="curve" smooth="yes"/>
      <point x="457" y="122"/>
      <point x="438" y="81"/>
      <point x="405" y="53" type="curve" smooth="yes"/>
      <point x="369" y="24"/>
      <point x="338" y="12"/>
      <point x="264" y="0" type="curve"/>
      <point x="264" y="-87" type="line"/>
      <point x="230" y="-87" type="line"/>
      <point x="230" y="0" type="line"/>
      <point x="146" y="3"/>
      <point x="104" y="14"/>
    </contour>
    <contour>
      <point x="126" y="534" type="curve" smooth="yes"/>
      <point x="126" y="488"/>
      <point x="146" y="463"/>
      <point x="229" y="407" type="curve"/>
      <point x="229" y="637" type="line"/>
      <point x="160" y="623"/>
      <point x="126" y="589"/>
    </contour>
    <contour>
      <point x="264" y="28" type="line"/>
      <point x="342" y="43"/>
      <point x="378" y="80"/>
      <point x="378" y="146" type="curve" smooth="yes"/>
      <point x="378" y="208"/>
      <point x="357" y="235"/>
      <point x="264" y="293" type="curve"/>
    </contour>
  </outline>
</glyph>
<glyph name="asterisk" format="1">
  <advance width="500"/>
  <unicode hex="002A"/>
  <outline>
    <contour>
      <point x="69" y="385" type="curve" smooth="yes"/>
      <point x="69" y="410"/>
      <point x="86" y="422"/>
      <point x="131" y="430" type="curve" smooth="yes"/>
      <point x="177" y="439"/>
      <point x="193" y="445"/>
      <point x="234" y="470" type="curve"/>
      <point x="223" y="477" type="line" smooth="yes"/>
      <point x="204" y="490"/>
      <point x="174" y="500"/>
      <point x="137" y="507" type="curve" smooth="yes"/>
      <point x="89" y="516"/>
      <point x="69" y="530"/>
      <point x="69" y="554" type="curve" smooth="yes"/>
      <point x="69" y="574"/>
      <point x="84" y="590"/>
      <point x="103" y="590" type="curve" smooth="yes"/>
      <point x="119" y="590"/>
      <point x="131" y="582"/>
      <point x="151" y="558" type="curve" smooth="yes"/>
      <point x="184" y="522"/>
      <point x="203" y="506"/>
      <point x="241" y="485" type="curve"/>
      <point x="241" y="498" type="line" smooth="yes"/>
      <point x="241" y="525"/>
      <point x="236" y="556"/>
      <point x="226" y="589" type="curve" smooth="yes"/>
      <point x="220" y="610"/>
      <point x="216" y="628"/>
      <point x="216" y="640" type="curve" smooth="yes"/>
      <point x="216" y="660"/>
      <point x="231" y="675"/>
      <point x="251" y="675" type="curve" smooth="yes"/>
      <point x="271" y="675"/>
      <point x="287" y="659"/>
      <point x="287" y="638" type="curve" smooth="yes"/>
      <point x="287" y="627"/>
      <point x="283" y="611"/>
      <point x="277" y="592" type="curve" smooth="yes"/>
      <point x="266" y="561"/>
      <point x="260" y="533"/>
      <point x="260" y="509" type="curve" smooth="yes"/>
      <point x="260" y="483" type="line"/>
      <point x="267" y="487" type="line" smooth="yes"/>
      <point x="289" y="499"/>
      <point x="314" y="521"/>
      <point x="339" y="551" type="curve" smooth="yes"/>
      <point x="363" y="579"/>
      <point x="380" y="592"/>
      <point x="395" y="592" type="curve" smooth="yes"/>
      <point x="416" y="592"/>
      <point x="431" y="576"/>
      <point x="431" y="553" type="curve" smooth="yes"/>
      <point x="431" y="528"/>
      <point x="418" y="517"/>
      <point x="380" y="511" type="curve" smooth="yes"/>
      <point x="336" y="504"/>
      <point x="317" y="497"/>
      <point x="268" y="469" type="curve"/>
      <point x="276" y="464" type="line" smooth="yes"/>
      <point x="302" y="448"/>
      <point x="334" y="436"/>
      <point x="373" y="430" type="curve" smooth="yes"/>
      <point x="417" y="423"/>
      <point x="432" y="412"/>
      <point x="432" y="386" type="curve" smooth="yes"/>
      <point x="432" y="364"/>
      <point x="418" y="349"/>
      <point x="397" y="349" type="curve" smooth="yes"/>
      <point x="379" y="349"/>
      <point x="362" y="361"/>
      <point x="337" y="392" type="curve" smooth="yes"/>
      <point x="310" y="425"/>
      <point x="289" y="443"/>
      <point x="267" y="452" type="curve" smooth="yes"/>
      <point x="260" y="455" type="line"/>
      <point x="260" y="448" type="line" smooth="yes"/>
      <point x="260" y="409"/>
      <point x="267" y="371"/>
      <point x="280" y="336" type="curve" smooth="yes"/>
      <point x="285" y="323"/>
      <point x="288" y="310"/>
      <point x="288" y="304" type="curve" smooth="yes"/>
      <point x="288" y="283"/>
      <point x="270" y="264"/>
      <point x="249" y="264" type="curve" smooth="yes"/>
      <point x="230" y="264"/>
      <point x="214" y="281"/>
      <point x="214" y="301" type="curve" smooth="yes"/>
      <point x="214" y="312"/>
      <point x="218" y="329"/>
      <point x="225" y="347" type="curve" smooth="yes"/>
      <point x="236" y="377"/>
      <point x="242" y="403"/>
      <point x="242" y="423" type="curve" smooth="yes"/>
      <point x="242" y="432" type="line"/>
      <point x="241" y="449" type="line"/>
      <point x="241" y="455" type="line"/>
      <point x="206" y="433"/>
      <point x="199" y="428"/>
      <point x="189" y="419" type="curve" smooth="yes"/>
      <point x="181" y="412"/>
      <point x="176" y="407"/>
      <point x="147" y="374" type="curve" smooth="yes"/>
      <point x="130" y="355"/>
      <point x="121" y="350"/>
      <point x="105" y="350" type="curve" smooth="yes"/>
      <point x="83" y="350"/>
      <point x="69" y="363"/>
    </contour>
  </outline>
</glyph>
<glyph name="period" format="1">
  <advance width="250"/>
  <unicode hex="002E"/>
  <outline>
    <contour>
      <point x="70" y="43" type="curve" smooth="yes"/>
      <point x="70" y="74"/>
      <point x="95" y="100"/>
      <point x="125" y="100" type="curve" smooth="yes"/>
      <point x="155" y="100"/>
      <point x="181" y="74"/>
      <point x="181" y="43" type="curve" smooth="yes"/>
      <point x="181" y="14"/>
      <point x="155" y="-11"/>
      <point x="124" y="-11" type="curve" smooth="yes"/>
      <point x="95" y="-11"/>
      <point x="70" y="14"/>
    </contour>
  </outline>
</glyph>
<glyph name="two" format="2">
  <advance width="500"/>
  <unicode hex="0032"/>
  <outline>
    <contour>
      <point x="30" y="0" type="line"/>
      <point x="30" y="12" type="line"/>
      <point x="208" y="200.525" type="line" smooth="yes"/>
      <point x="291.573" y="289.04"/>
      <point x="338" y="379.579"/>
      <point x="338" y="456.211" type="curve" smooth="yes"/>
      <point x="338" y="541.417"/>
      <point x="280.602" y="600"/>
      <point x="200.977" y="600" type="curve" smooth="yes"/>
      <point x="133.882" y="600"/>
      <point x="87.9515" y="558.403"/>
      <point x="52" y="470.494" type="curve"/>
      <point x="31" y="475.475" type="line"/>
      <point x="55.7954" y="600.467"/>
      <point x="133.288" y="676"/>
      <point x="236.726" y="676" type="curve" smooth="yes"/>
      <point x="342.749" y="676"/>
      <point x="424" y="597.735"/>
      <point x="424" y="495.61" type="curve" smooth="yes"/>
      <point x="424" y="423.633"/>
      <point x="382.126" y="341.215"/>
      <point x="296" y="251.331" type="curve" smooth="yes"/>
      <point x="128" y="76" type="line"/>
      <point x="367" y="76" type="line" smooth="yes"/>
      <point x="411.341" y="76"/>
      <point x="428.54" y="87.9031"/>
      <point x="462" y="141.749" type="curve"/>
      <point x="475" y="136.768" type="line"/>
      <point x="420" y="0" type="line"/>
    </contour>
  </outline>
</glyph>
<glyph name="five" format="2">
  <advance width="500"/>
  <unicode hex="0035"/>
  <outline>
    <contour>
      <point x="32" y="46" type="curve" smooth="yes"/>
      <point x="32" y="56"/>
      <point x="32" y="85"/>
      <point x="72" y="85" type="curve" smooth="yes"/>
      <point x="136" y="85"/>
      <point x="163" y="23"/>
      <point x="217" y="23" type="curve" smooth="yes"/>
      <point x="282" y="23"/>
      <point x="356" y="79"/>
      <point x="356" y="201" type="curve" smooth="yes"/>
      <point x="356" y="361"/>
      <point x="175.21" y="408"/>
      <point x="67.2098" y="412" type="curve"/>
      <point x="144" y="662" type="line"/>
      <point x="401.623" y="661.68" type="line"/>
      <point x="375" y="583" type="line"/>
      <point x="151" y="583" type="line"/>
      <point x="128" y="498" type="line"/>
      <point x="300.004" y="467.899"/>
      <point x="426" y="415.348"/>
      <point x="426" y="225" type="curve" smooth="yes"/>
      <point x="426" y="92"/>
      <point x="316" y="-14"/>
      <point x="158" y="-14" type="curve" smooth="yes"/>
      <point x="79" y="-14"/>
      <point x="32" y="10"/>
    </contour>
  </outline>
</glyph>
<glyph name="eight" format="2">
  <advance width="500"/>
  <unicode hex="0038"/>
  <outline>
    <contour>
      <point x="56" y="151" type="curve" smooth="yes"/>
      <point x="56" y="219"/>
      <point x="78" y="250"/>
      <point x="187.543" y="332" type="curve"/>
      <point x="81" y="424"/>
      <point x="62" y="453"/>
      <point x="62" y="518" type="curve" smooth="yes"/>
      <point x="62" y="607.895"/>
      <point x="143.612" y="676"/>
      <point x="251.338" y="676" type="curve" smooth="yes"/>
      <point x="353.103" y="676"/>
      <point x="424" y="615.076"/>
      <point x="424" y="527.627" type="curve" smooth="yes"/>
      <point x="424" y="465.546"/>
      <point x="388.286" y="423.615"/>
      <point x="290.594" y="371" type="curve"/>
      <point x="411" y="281"/>
      <point x="445" y="232"/>
      <point x="445" y="160.141" type="curve" smooth="yes"/>
      <point x="445" y="53.9396"/>
      <point x="370.137" y="-14"/>
      <point x="253.114" y="-14" type="curve" smooth="yes"/>
      <point x="136.867" y="-14"/>
      <point x="56" y="53.6925"/>
    </contour>
    <contour>
      <point x="132" y="162.238" type="curve" smooth="yes"/>
      <point x="132" y="72"/>
      <point x="184.571" y="14"/>
      <point x="258.853" y="14" type="curve" smooth="yes"/>
      <point x="324.283" y="14"/>
      <point x="369" y="59"/>
      <point x="369" y="124" type="curve" smooth="yes"/>
      <point x="369" y="202.985"/>
      <point x="277.883" y="271.091"/>
      <point x="213.306" y="312" type="curve"/>
      <point x="155.836" y="265"/>
      <point x="132" y="223"/>
    </contour>
    <contour>
      <point x="138" y="546.823" type="curve" smooth="yes"/>
      <point x="138" y="492.727"/>
      <point x="174.115" y="446.708"/>
      <point x="261.858" y="389" type="curve"/>
      <point x="334.26" y="443.802"/>
      <point x="355" y="475.459"/>
      <point x="355" y="528.284" type="curve" smooth="yes"/>
      <point x="355" y="604"/>
      <point x="312.393" y="648"/>
      <point x="246.345" y="648" type="curve" smooth="yes"/>
      <point x="182.589" y="648"/>
      <point x="138" y="607"/>
    </contour>
  </outline>
</glyph>
<glyph name="nine" format="1">
  <advance width="500"/>
  <unicode hex="0039"/>
  <outline>
    <contour>
      <point x="30" y="435" type="curve" smooth="yes"/>
      <point x="30" y="568"/>
      <point x="110" y="676"/>
      <point x="240" y="676" type="curve" smooth="yes"/>
      <point x="363" y="676"/>
      <point x="459" y="563"/>
      <point x="459" y="396" type="curve" smooth="yes"/>
      <point x="459" y="184"/>
      <point x="313" y="-6"/>
      <point x="59" y="-22" type="curve"/>
      <point x="56" y="-2" type="line"/>
      <point x="298" y="38"/>
      <point x="353" y="265"/>
      <point x="359" y="290" type="curve"/>
      <point x="357" y="292" type="line"/>
      <point x="313" y="255"/>
      <point x="260" y="237"/>
      <point x="210" y="237" type="curve" smooth="yes"/>
      <point x="76" y="237"/>
      <point x="30" y="353"/>
    </contour>
    <contour>
      <point x="122" y="473" type="curve" smooth="yes"/>
      <point x="122" y="397"/>
      <point x="144" y="280"/>
      <point x="250" y="280" type="curve" smooth="yes"/>
      <point x="283" y="280"/>
      <point x="325" y="298"/>
      <point x="346" y="315" type="curve" smooth="yes"/>
      <point x="359" y="325"/>
      <point x="362" y="337"/>
      <point x="362" y="355" type="curve" smooth="yes"/>
      <point x="362" y="394" type="line" smooth="yes"/>
      <point x="362" y="453"/>
      <point x="362" y="648"/>
      <point x="229" y="648" type="curve" smooth="yes"/>
      <point x="145" y="648"/>
      <point x="122" y="555"/>
    </contour>
  </outline>
</glyph>
<glyph name="less" format="1">
  <advance width="564"/>
  <unicode hex="003C"/>
  <outline>
    <contour>
      <point x="28" y="220" type="line"/>
      <point x="28" y="286" type="line"/>
      <point x="536" y="516" type="line"/>
      <point x="536" y="444" type="line"/>
      <point x="116" y="253" type="line"/>
      <point x="536" y="62" type="line"/>
      <point x="536" y="-10" type="line"/>
    </contour>
  </outline>
</glyph>
<glyph name="at" format="2">
  <advance width="921"/>
  <unicode hex="0040"/>
  <outline>
    <contour>
      <point x="116" y="326.804" type="curve" smooth="yes"/>
      <point x="116" y="520.81"/>
      <point x="278" y="676"/>
      <point x="481" y="676" type="curve" smooth="yes"/>
      <point x="666" y="676"/>
      <point x="809" y="547.416"/>
      <point x="809" y="381.597" type="curve" smooth="yes"/>
      <point x="809" y="253.525"/>
      <point x="724" y="143"/>
      <point x="626.793" y="143" type="curve" smooth="yes"/>
      <point x="577" y="143"/>
      <point x="540" y="172"/>
      <point x="534" y="215.799" type="curve"/>
      <point x="500" y="171"/>
      <point x="453" y="144"/>
      <point x="413.369" y="144" type="curve" smooth="yes"/>
      <point x="360" y="144"/>
      <point x="321" y="192.964"/>
      <point x="321" y="262.7" type="curve" smooth="yes"/>
      <point x="321" y="360.035"/>
      <point x="396.978" y="508"/>
      <point x="514.562" y="508" type="curve" smooth="yes"/>
      <point x="552" y="508"/>
      <point x="577.864" y="493"/>
      <point x="589" y="454.072" type="curve"/>
      <point x="599" y="493.333" type="line"/>
      <point x="668" y="493.333" type="line"/>
      <point x="603" y="239.626" type="line" smooth="yes"/>
      <point x="601.871" y="235.221"/>
      <point x="601" y="227.026"/>
      <point x="601" y="220.513" type="curve" smooth="yes"/>
      <point x="601" y="190.978"/>
      <point x="614" y="176"/>
      <point x="640" y="176" type="curve" smooth="yes"/>
      <point x="706" y="176"/>
      <point x="769" y="272.388"/>
      <point x="769" y="374.752" type="curve" smooth="yes"/>
      <point x="769" y="521.796"/>
      <point x="639" y="643"/>
      <point x="482" y="643" type="curve" smooth="yes"/>
      <point x="303.41" y="643"/>
      <point x="200" y="489.487"/>
      <point x="200" y="326.276" type="curve" smooth="yes"/>
      <point x="200" y="149"/>
      <point x="322" y="25"/>
      <point x="501.032" y="25" type="curve" smooth="yes"/>
      <point x="559" y="25"/>
      <point x="610" y="38"/>
      <point x="688" y="73" type="curve"/>
      <point x="700" y="43" type="line"/>
      <point x="603" y="-1"/>
      <point x="553" y="-14"/>
      <point x="489.673" y="-14" type="curve" smooth="yes"/>
      <point x="276" y="-14"/>
      <point x="116" y="134"/>
    </contour>
    <contour>
      <point x="392" y="267.523" type="curve" smooth="yes"/>
      <point x="392" y="220.763"/>
      <point x="415" y="188"/>
      <point x="450.898" y="188" type="curve" smooth="yes"/>
      <point x="528.301" y="188"/>
      <point x="572" y="340.32"/>
      <point x="572" y="398.475" type="curve" smooth="yes"/>
      <point x="572" y="404.432" type="line" smooth="yes"/>
      <point x="572" y="439.18"/>
      <point x="554" y="464"/>
      <point x="520.991" y="464" type="curve" smooth="yes"/>
      <point x="447.198" y="464"/>
      <point x="392" y="339.962"/>
    </contour>
  </outline>
</glyph>
<glyph name="B" format="2">
  <advance width="622"/>
  <unicode hex="0042"/>
  <outline>
    <contour>
      <point x="12" y="0" type="line"/>
      <point x="12" y="19" type="line"/>
      <point x="88" y="19"/>
      <point x="108" y="32"/>
      <point x="108" y="109" type="curve" smooth="yes"/>
      <point x="108" y="553" type="line" smooth="yes"/>
      <point x="108" y="631"/>
      <point x="88" y="640"/>
      <point x="12" y="643" type="curve"/>
      <point x="12" y="662" type="line"/>
      <point x="292" y="662" type="line" smooth="yes"/>
      <point x="405" y="662"/>
      <point x="554" y="636"/>
      <point x="554" y="493" type="curve" smooth="yes"/>
      <point x="554" y="403"/>
      <point x="500" y="368"/>
      <point x="421" y="349" type="curve"/>
      <point x="421" y="347" type="line"/>
      <point x="512" y="328"/>
      <point x="588" y="278"/>
      <point x="588" y="176" type="curve" smooth="yes"/>
      <point x="588" y="45"/>
      <point x="457" y="0"/>
      <point x="346" y="0" type="curve" smooth="yes"/>
    </contour>
    <contour>
      <point x="211" y="78" type="line" smooth="yes"/>
      <point x="211" y="43.1135"/>
      <point x="248.747" y="37"/>
      <point x="286" y="37" type="curve" smooth="yes"/>
      <point x="384.958" y="37"/>
      <point x="474" y="67"/>
      <point x="474" y="180" type="curve" smooth="yes"/>
      <point x="474" y="325"/>
      <point x="322" y="326"/>
      <point x="216" y="326" type="curve" smooth="yes"/>
      <point x="211" y="326" type="line"/>
    </contour>
    <contour>
      <point x="211" y="365" type="line"/>
      <point x="216" y="365" type="line" smooth="yes"/>
      <point x="326.514" y="365"/>
      <point x="452" y="374"/>
      <point x="452" y="487" type="curve" smooth="yes"/>
      <point x="452" y="593"/>
      <point x="369" y="625"/>
      <point x="277" y="625" type="curve" smooth="yes"/>
      <point x="237.922" y="625"/>
      <point x="211" y="614.72"/>
      <point x="211" y="575" type="curve" smooth="yes"/>
    </contour>
  </outline>
</glyph>
<glyph name="L" format="2">
  <advance width="611"/>
  <unicode hex="004C"/>
  <outline>
    <contour>
      <point x="12" y="0" type="line"/>
      <point x="12" y="19" type="line"/>
      <point x="85" y="24"/>
      <point x="99" y="39"/>
      <point x="99" y="109" type="curve" smooth="yes"/>
      <point x="99" y="553" type="line" smooth="yes"/>
      <point x="99" y="623"/>
      <point x="86" y="637"/>
      <point x="12" y="643" type="curve"/>
      <point x="12" y="662" type="line"/>
      <point x="294" y="662" type="line"/>
      <point x="294" y="643" type="line"/>
      <point x="215" y="638"/>
      <point x="201" y="624"/>
      <point x="201" y="553" type="curve" smooth="yes"/>
      <point x="201" y="80" type="line" smooth="yes"/>
      <point x="201" y="45"/>
      <point x="214" y="39"/>
      <point x="287" y="39" type="curve" smooth="yes"/>
      <point x="354" y="39" type="line" smooth="yes"/>
      <point x="475.739" y="39"/>
      <point x="525.972" y="68.8778"/>
      <point x="573" y="174" type="curve"/>
      <point x="598" y="174" type="line"/>
      <point x="550" y="0" type="line"/>
    </contour>
  </outline>
</glyph>
<glyph name="P" format="2">
  <advance width="552"/>
  <unicode hex="0050"/>
  <outline>
    <contour>
      <point x="12" y="0" type="line"/>
      <point x="12" y="19" type="line"/>
      <point x="88" y="26"/>
      <point x="96" y="37"/>
      <point x="96" y="110" type="curve" smooth="yes"/>
      <point x="96" y="553" type="line" smooth="yes"/>
      <point x="96" y="625"/>
      <point x="86" y="635"/>
      <point x="12" y="643" type="curve"/>
      <point x="12" y="662" type="line"/>
      <point x="276" y="662" type="line" smooth="yes"/>
      <point x="432.811" y="662"/>
      <point x="538" y="585.403"/>
      <point x="538" y="471.216" type="curve" smooth="yes"/>
      <point x="538" y="358.642"/>
      <point x="436.215" y="288"/>
      <point x="267" y="288" type="curve" smooth="yes"/>
      <point x="241" y="288"/>
      <point x="194" y="292"/>
      <point x="168" y="296" type="curve"/>
      <point x="168" y="336" type="line"/>
      <point x="191" y="332"/>
      <point x="235" y="328"/>
      <point x="264.765" y="328" type="curve" smooth="yes"/>
      <point x="371.569" y="328"/>
      <point x="429" y="379.404"/>
      <point x="429" y="475" type="curve" smooth="yes"/>
      <point x="429" y="583.137"/>
      <point x="381.176" y="624.865"/>
      <point x="257.112" y="624.977" type="curve"/>
      <point x="232" y="625" type="line" smooth="yes"/>
      <point x="205" y="625.024"/>
      <point x="198" y="618"/>
      <point x="198" y="591" type="curve" smooth="yes"/>
      <point x="198" y="110" type="line" smooth="yes"/>
      <point x="198" y="37"/>
      <point x="213" y="22"/>
      <point x="292" y="19" type="curve"/>
      <point x="292" y="0" type="line"/>
    </contour>
  </outline>
</glyph>
<glyph name="Q" format="1">
  <advance width="722"/>
  <unicode hex="0051"/>
  <outline>
    <contour>
      <point x="34" y="330" type="curve" smooth="yes"/>
      <point x="34" y="523"/>
      <point x="162" y="676"/>
      <point x="361" y="676" type="curve" smooth="yes"/>
      <point x="560" y="676"/>
      <point x="688" y="524"/>
      <point x="688" y="330" type="curve" smooth="yes"/>
      <point x="688" y="173"/>
      <point x="592" y="13"/>
      <point x="426" y="-7" type="curve"/>
      <point x="442" y="-32"/>
      <point x="482" y="-71"/>
      <point x="505" y="-90" type="curve" smooth="yes"/>
      <point x="562" y="-137"/>
      <point x="627" y="-157"/>
      <point x="701" y="-159" type="curve"/>
      <point x="701" y="-177" type="line"/>
      <point x="685" y="-178"/>
      <point x="670" y="-178"/>
      <point x="654" y="-178" type="curve" smooth="yes"/>
      <point x="532" y="-178"/>
      <point x="396" y="-152"/>
      <point x="312" y="-56" type="curve" smooth="yes"/>
      <point x="265" y="-1" type="line"/>
      <point x="113" y="40"/>
      <point x="34" y="179"/>
    </contour>
    <contour>
      <point x="148" y="330" type="curve" smooth="yes"/>
      <point x="148" y="194"/>
      <point x="196" y="22"/>
      <point x="361" y="22" type="curve" smooth="yes"/>
      <point x="526" y="22"/>
      <point x="574" y="194"/>
      <point x="574" y="330" type="curve" smooth="yes"/>
      <point x="574" y="465"/>
      <point x="525" y="640"/>
      <point x="361" y="640" type="curve" smooth="yes"/>
      <point x="197" y="640"/>
      <point x="148" y="465"/>
    </contour>
  </outline>
</glyph>
<glyph name="W" format="2">
  <advance width="944"/>
  <unicode hex="0057"/>
  <outline>
    <contour>
      <point x="5" y="643" type="curve"/>
      <point x="5" y="662" type="line"/>
      <point x="250" y="662" type="line"/>
      <point x="250" y="643" type="line"/>
      <point x="226" y="642"/>
      <point x="184.783" y="632.045"/>
      <point x="185.011" y="607.871" type="curve" smooth="yes"/>
      <point x="185.095" y="598.878"/>
      <point x="191" y="579"/>
      <point x="196" y="565" type="curve" smooth="yes"/>
      <point x="340" y="189" type="line"/>
      <point x="447" y="471" type="line"/>
      <point x="414" y="553" type="line" smooth="yes"/>
      <point x="390" y="612"/>
      <point x="374.494" y="639.793"/>
      <point x="313" y="643" type="curve"/>
      <point x="313" y="662" type="line"/>
      <point x="580" y="662" type="line"/>
      <point x="580" y="643" type="line"/>
      <point x="554" y="643"/>
      <point x="503" y="635"/>
      <point x="503" y="603.022" type="curve" smooth="yes"/>
      <point x="503" y="597"/>
      <point x="504.809" y="587.201"/>
      <point x="511.854" y="569.218" type="curve" smooth="yes"/>
      <point x="662" y="186" type="line"/>
      <point x="787" y="525" type="line" smooth="yes"/>
      <point x="795" y="547"/>
      <point x="803" y="574"/>
      <point x="803" y="593.815" type="curve" smooth="yes"/>
      <point x="803" y="637"/>
      <point x="765" y="641"/>
      <point x="734" y="643" type="curve"/>
      <point x="734" y="662" type="line"/>
      <point x="932" y="662" type="line"/>
      <point x="932" y="643" type="line"/>
      <point x="887" y="636"/>
      <point x="867.997" y="624.756"/>
      <point x="853" y="582" type="curve" smooth="yes"/>
      <point x="645" y="-11" type="line"/>
      <point x="630" y="-11" type="line"/>
      <point x="470" y="412" type="line"/>
      <point x="316" y="-11" type="line"/>
      <point x="301" y="-11" type="line"/>
      <point x="108" y="526" type="line" smooth="yes"/>
      <point x="77.6143" y="610.545"/>
      <point x="65.5965" y="632"/>
    </contour>
  </outline>
</glyph>
<glyph name="X" format="1">
  <advance width="722"/>
  <unicode hex="0058"/>
  <outline>
    <contour>
      <point x="10" y="0" type="line"/>
      <point x="10" y="19" type="line"/>
      <point x="61" y="23"/>
      <point x="68" y="26"/>
      <point x="155" y="133" type="curve" smooth="yes"/>
      <point x="312" y="326" type="line"/>
      <point x="203" y="486" type="line" smooth="yes"/>
      <point x="107" y="627"/>
      <point x="87" y="640"/>
      <point x="22" y="643" type="curve"/>
      <point x="22" y="662" type="line"/>
      <point x="324" y="662" type="line"/>
      <point x="324" y="643" type="line"/>
      <point x="296" y="642" type="line" smooth="yes"/>
      <point x="263" y="641"/>
      <point x="248" y="633"/>
      <point x="248" y="613" type="curve" smooth="yes"/>
      <point x="248" y="591"/>
      <point x="272" y="548"/>
      <point x="333" y="463" type="curve" smooth="yes"/>
      <point x="375" y="404" type="line"/>
      <point x="488" y="542" type="line" smooth="yes"/>
      <point x="517" y="578"/>
      <point x="528" y="596"/>
      <point x="528" y="611" type="curve" smooth="yes"/>
      <point x="528" y="634"/>
      <point x="512" y="641"/>
      <point x="458" y="643" type="curve"/>
      <point x="458" y="662" type="line"/>
      <point x="696" y="662" type="line"/>
      <point x="696" y="643" type="line"/>
      <point x="632" y="639"/>
      <point x="611" y="628"/>
      <point x="547" y="549" type="curve" smooth="yes"/>
      <point x="401" y="367" type="line"/>
      <point x="593" y="93" type="line" smooth="yes"/>
      <point x="634" y="34"/>
      <point x="651" y="25"/>
      <point x="704" y="19" type="curve"/>
      <point x="704" y="0" type="line"/>
      <point x="407" y="0" type="line"/>
      <point x="407" y="19" type="line"/>
      <point x="419" y="20"/>
      <point x="430" y="21"/>
      <point x="434" y="21" type="curve" smooth="yes"/>
      <point x="468" y="22"/>
      <point x="484" y="32"/>
      <point x="484" y="50" type="curve" smooth="yes"/>
      <point x="484" y="65"/>
      <point x="466" y="99"/>
      <point x="433" y="148" type="curve" smooth="yes"/>
      <point x="338" y="288" type="line"/>
      <point x="219" y="140" type="line" smooth="yes"/>
      <point x="182" y="94"/>
      <point x="167" y="69"/>
      <point x="167" y="54" type="curve" smooth="yes"/>
      <point x="167" y="31"/>
      <point x="185" y="23"/>
      <point x="243" y="19" type="curve"/>
      <point x="243" y="0" type="line"/>
    </contour>
  </outline>
</glyph>
<glyph name="asciicircum" format="2">
  <advance width="469"/>
  <unicode hex="005E"/>
  <outline>
    <contour>
      <point x="24" y="297" type="line"/>
      <point x="205" y="662" type="line"/>
      <point x="265" y="662" type="line"/>
      <point x="446" y="297" type="line"/>
      <point x="378" y="297" type="line"/>
      <point x="235" y="586" type="line"/>
      <point x="92" y="297" type="line"/>
    </contour>
  </outline>
</glyph>
<glyph name="grave" format="1">
  <advance width="303"/>
  <unicode hex="0060"/>
  <outline>
    <contour>
      <point x="40" y="647" type="curve" smooth="yes"/>
      <point x="40" y="666"/>
      <point x="53" y="678"/>
      <point x="74" y="678" type="curve" smooth="yes"/>
      <point x="89" y="678"/>
      <point x="98" y="673"/>
      <point x="116" y="655" type="curve" smooth="yes"/>
      <point x="263" y="507" type="line"/>
      <point x="223" y="507" type="line"/>
      <point x="69" y="604" type="line" smooth="yes"/>
      <point x="51" y="616"/>
      <point x="40" y="631"/>
    </contour>
  </outline>
</glyph>
<glyph name="a" format="2">
  <advance width="444"/>
  <unicode hex="0061"/>
  <outline>
    <contour>
      <point x="37" y="97.1761" type="curve" smooth="yes"/>
      <point x="37" y="201.266"/>
      <point x="161.872" y="246.958"/>
      <point x="253.038" y="280.328" type="curve" smooth="yes"/>
      <point x="287" y="293" type="line"/>
      <point x="287" y="354" type="line" smooth="yes"/>
      <point x="287" y="405"/>
      <point x="262" y="437"/>
      <point x="214.512" y="437" type="curve" smooth="yes"/>
      <point x="182" y="437"/>
      <point x="137" y="422"/>
      <point x="137" y="384.856" type="curve" smooth="yes"/>
      <point x="137" y="376.199"/>
      <point x="139.445" y="371.587"/>
      <point x="140.159" y="370.207" type="curve"/>
      <point x="144.444" y="361.923"/>
      <point x="147" y="352.863"/>
      <point x="147" y="344.659" type="curve" smooth="yes"/>
      <point x="147" y="319"/>
      <point x="122" y="306"/>
      <point x="101.021" y="306" type="curve" smooth="yes"/>
      <point x="75" y="306"/>
      <point x="56" y="326"/>
      <point x="56" y="356.554" type="curve" smooth="yes"/>
      <point x="56" y="427"/>
      <point x="157" y="461"/>
      <point x="219" y="461" type="curve" smooth="yes"/>
      <point x="336" y="461"/>
      <point x="368" y="407"/>
      <point x="368" y="301" type="curve" smooth="yes"/>
      <point x="368" y="97" type="line" smooth="yes"/>
      <point x="368" y="75"/>
      <point x="370" y="47"/>
      <point x="405.836" y="47" type="curve" smooth="yes"/>
      <point x="415" y="47"/>
      <point x="420.894" y="48.8309"/>
      <point x="430.859" y="57.6273" type="curve"/>
      <point x="442" y="41" type="line"/>
      <point x="418" y="13"/>
      <point x="391" y="-9"/>
      <point x="351.896" y="-9" type="curve" smooth="yes"/>
      <point x="307" y="-9"/>
      <point x="291" y="20"/>
      <point x="288" y="64" type="curve"/>
      <point x="249" y="29"/>
      <point x="198" y="-9"/>
      <point x="143" y="-9" type="curve" smooth="yes"/>
      <point x="83" y="-9"/>
      <point x="37" y="34"/>
    </contour>
    <contour>
      <point x="125" y="128.092" type="curve" smooth="yes"/>
      <point x="125" y="88"/>
      <point x="148" y="49"/>
      <point x="186.59" y="49" type="curve" smooth="yes"/>
      <point x="219.686" y="49"/>
      <point x="265.887" y="77.6865"/>
      <point x="287" y="100.001" type="curve"/>
      <point x="287" y="269" type="line"/>
      <point x="221" y="247"/>
      <point x="125" y="210"/>
    </contour>
  </outline>
</glyph>
<glyph name="b" format="2">
  <advance width="500"/>
  <unicode hex="0062"/>
  <outline>
    <contour>
      <point x="69" y="-10" type="line"/>
      <point x="69" y="617" type="line" smooth="yes"/>
      <point x="69" y="644.135"/>
      <point x="46.1135" y="662.352"/>
      <point x="3" y="667" type="curve"/>
      <point x="3" y="683" type="line"/>
      <point x="153" y="683" type="line"/>
      <point x="153" y="375" type="line"/>
      <point x="173" y="424"/>
      <point x="231" y="460"/>
      <point x="292" y="460" type="curve" smooth="yes"/>
      <point x="392" y="460"/>
      <point x="468" y="366"/>
      <point x="468" y="243" type="curve" smooth="yes"/>
      <point x="468" y="100"/>
      <point x="366" y="-10"/>
      <point x="234" y="-10" type="curve" smooth="yes"/>
      <point x="192.074" y="-10"/>
      <point x="151.613" y="10.1336"/>
      <point x="131.663" y="30.4666" type="curve"/>
      <point x="79.4112" y="-10.3665" type="line"/>
    </contour>
    <contour>
      <point x="153" y="70" type="line" smooth="yes"/>
      <point x="153" y="45"/>
      <point x="198" y="22"/>
      <point x="248.223" y="22" type="curve" smooth="yes"/>
      <point x="332" y="22"/>
      <point x="380" y="86"/>
      <point x="380" y="201.311" type="curve" smooth="yes"/>
      <point x="380" y="319"/>
      <point x="330" y="397"/>
      <point x="252" y="397" type="curve" smooth="yes"/>
      <point x="200" y="397"/>
      <point x="153" y="361"/>
      <point x="153" y="322" type="curve" smooth="yes"/>
    </contour>
  </outline>
</glyph>
<glyph name="d" format="2">
  <advance width="500"/>
  <unicode hex="0064"/>
  <outline>
    <contour>
      <point x="27" y="205" type="curve" smooth="yes"/>
      <point x="27" y="347"/>
      <point x="118.062" y="460"/>
      <point x="237.243" y="460" type="curve" smooth="yes"/>
      <point x="274.427" y="460"/>
      <point x="301.665" y="449"/>
      <point x="340" y="417" type="curve"/>
      <point x="340" y="617" type="line" smooth="yes"/>
      <point x="340" y="646.711"/>
      <point x="308.773" y="662.506"/>
      <point x="271.401" y="667" type="curve"/>
      <point x="271.401" y="683" type="line"/>
      <point x="424" y="683" type="line"/>
      <point x="424" y="104" type="line" smooth="yes"/>
      <point x="424" y="67.8123"/>
      <point x="442.897" y="52.3276"/>
      <point x="491" y="48" type="curve"/>
      <point x="491" y="32" type="line"/>
      <point x="470.126" y="27.5413" type="line" smooth="yes"/>
      <point x="427.192" y="18.3704"/>
      <point x="385.389" y="5.6411"/>
      <point x="344" y="-10" type="curve"/>
      <point x="340" y="-7" type="line"/>
      <point x="340" y="57" type="line"/>
      <point x="305.7" y="10"/>
      <point x="267.366" y="-10"/>
      <point x="213.209" y="-10" type="curve" smooth="yes"/>
      <point x="100.256" y="-10"/>
      <point x="27" y="77"/>
    </contour>
    <contour>
      <point x="111" y="243.407" type="curve" smooth="yes"/>
      <point x="111" y="122"/>
      <point x="166.485" y="42"/>
      <point x="250.216" y="42" type="curve" smooth="yes"/>
      <point x="279.148" y="42"/>
      <point x="327.909" y="74.6906"/>
      <point x="340" y="102" type="curve"/>
      <point x="340" y="332" type="line" smooth="yes"/>
      <point x="340" y="385"/>
      <point x="290.568" y="432"/>
      <point x="232.852" y="432" type="curve" smooth="yes"/>
      <point x="160.432" y="432"/>
      <point x="111" y="358"/>
    </contour>
  </outline>
</glyph>
<glyph name="f" format="2">
  <advance width="253"/>
  <unicode hex="0066"/>
  <outline>
    <contour>
      <point x="20" y="0" type="line"/>
      <point x="20" y="15" type="line"/>
      <point x="92" y="19"/>
      <point x="103" y="31"/>
      <point x="103" y="104" type="curve" smooth="yes"/>
      <point x="103" y="418" type="line"/>
      <point x="21" y="418" type="line"/>
      <point x="21" y="450" type="line"/>
      <point x="103" y="450" type="line"/>
      <point x="103.478" y="567.762"/>
      <point x="128.284" y="683"/>
      <point x="242.877" y="683" type="curve" smooth="yes"/>
      <point x="280.338" y="683"/>
      <point x="317.933" y="657"/>
      <point x="317.933" y="621" type="curve" smooth="yes"/>
      <point x="317.933" y="598"/>
      <point x="301.958" y="580"/>
      <point x="278.439" y="580" type="curve" smooth="yes"/>
      <point x="257.727" y="580"/>
      <point x="241.997" y="593.959"/>
      <point x="241.997" y="613.585" type="curve" smooth="yes"/>
      <point x="241.997" y="624.712"/>
      <point x="247.053" y="634.59"/>
      <point x="255.372" y="643.285" type="curve"/>
      <point x="253" y="650.477"/>
      <point x="245.845" y="655"/>
      <point x="234.556" y="655" type="curve" smooth="yes"/>
      <point x="205" y="655"/>
      <point x="187" y="624"/>
      <point x="187" y="566" type="curve" smooth="yes"/>
      <point x="187" y="449.999" type="line"/>
      <point x="287" y="449.999" type="line"/>
      <point x="287" y="417.999" type="line"/>
      <point x="187" y="418.037" type="line"/>
      <point x="187" y="104" type="line" smooth="yes"/>
      <point x="187" y="29"/>
      <point x="198" y="18"/>
      <point x="280" y="15" type="curve"/>
      <point x="280" y="0" type="line"/>
    </contour>
  </outline>
</glyph>
<glyph name="g" format="2">
  <advance width="500"/>
  <unicode hex="0067"/>
  <outline>
    <contour>
      <point x="27" y="-121" type="curve" smooth="yes"/>
      <point x="27" y="-70"/>
      <point x="88" y="-25"/>
      <point x="125" y="1" type="curve"/>
      <point x="92.2177" y="8.2259"/>
      <point x="72" y="25"/>
      <point x="72" y="54" type="curve" smooth="yes"/>
      <point x="72" y="91"/>
      <point x="137" y="142"/>
      <point x="161" y="163" type="curve"/>
      <point x="107" y="187"/>
      <point x="68" y="231"/>
      <point x="68" y="293" type="curve" smooth="yes"/>
      <point x="68" y="393"/>
      <point x="142" y="460"/>
      <point x="240" y="460" type="curve" smooth="yes"/>
      <point x="263.537" y="460"/>
      <point x="294.267" y="452.13"/>
      <point x="321.505" y="442.442" type="curve" smooth="yes"/>
      <point x="337" y="437" type="line" smooth="yes"/>
      <point x="362" y="428"/>
      <point x="389" y="427"/>
      <point x="416" y="427" type="curve" smooth="yes"/>
      <point x="470" y="427" type="line"/>
      <point x="470" y="388" type="line"/>
      <point x="386" y="388" type="line"/>
      <point x="401" y="354"/>
      <point x="405" y="333"/>
      <point x="405" y="296" type="curve" smooth="yes"/>
      <point x="405" y="209"/>
      <point x="329" y="149"/>
      <point x="246" y="149" type="curve" smooth="yes"/>
      <point x="228" y="149"/>
      <point x="209.771" y="151.008"/>
      <point x="192" y="154" type="curve"/>
      <point x="171.375" y="144.521"/>
      <point x="132" y="110"/>
      <point x="132" y="91" type="curve" smooth="yes"/>
      <point x="132" y="72.9805"/>
      <point x="193" y="65"/>
      <point x="210" y="64" type="curve" smooth="yes"/>
      <point x="339" y="58" type="line" smooth="yes"/>
      <point x="403" y="55"/>
      <point x="460" y="21"/>
      <point x="460" y="-49" type="curve" smooth="yes"/>
      <point x="460" y="-161"/>
      <point x="296" y="-218"/>
      <point x="204" y="-218" type="curve" smooth="yes"/>
      <point x="149" y="-218"/>
      <point x="27" y="-196"/>
    </contour>
    <contour>
      <point x="97" y="-88" type="curve" smooth="yes"/>
      <point x="97" y="-132"/>
      <point x="155" y="-161"/>
      <point x="243" y="-161" type="curve" smooth="yes"/>
      <point x="356" y="-161"/>
      <point x="432" y="-122"/>
      <point x="432" y="-64" type="curve" smooth="yes"/>
      <point x="432" y="-28"/>
      <point x="399" y="-15"/>
      <point x="308" y="-15" type="curve" smooth="yes"/>
      <point x="259" y="-15"/>
      <point x="179" y="-9"/>
      <point x="146" y="-2" type="curve"/>
      <point x="104" y="-52"/>
      <point x="97" y="-65"/>
    </contour>
    <contour>
      <point x="151" y="342" type="curve" smooth="yes"/>
      <point x="151" y="276"/>
      <point x="171" y="174"/>
      <point x="255" y="174" type="curve" smooth="yes"/>
      <point x="310" y="174"/>
      <point x="328" y="223"/>
      <point x="328" y="270" type="curve" smooth="yes"/>
      <point x="328" y="329"/>
      <point x="299" y="432"/>
      <point x="226" y="432" type="curve" smooth="yes"/>
      <point x="174" y="432"/>
      <point x="151" y="390"/>
    </contour>
  </outline>
</glyph>
<glyph name="h" format="1">
  <advance width="500"/>
  <unicode hex="0068"/>
  <outline>
    <contour>
      <point x="9" y="0" type="line"/>
      <point x="9" y="15" type="line"/>
      <point x="61" y="21"/>
      <point x="73" y="32"/>
      <point x="73" y="88" type="curve" smooth="yes"/>
      <point x="73" y="573" type="line" smooth="yes"/>
      <point x="73" y="616"/>
      <point x="65" y="624"/>
      <point x="22" y="624" type="curve" smooth="yes"/>
      <point x="17" y="624"/>
      <point x="14" y="624"/>
      <point x="10" y="623" type="curve"/>
      <point x="10" y="639" type="line"/>
      <point x="37" y="647" type="line" smooth="yes"/>
      <point x="93" y="663"/>
      <point x="118" y="671"/>
      <point x="152" y="683" type="curve"/>
      <point x="157" y="680" type="line"/>
      <point x="157" y="376" type="line"/>
      <point x="203" y="436"/>
      <point x="245" y="460"/>
      <point x="304" y="460" type="curve" smooth="yes"/>
      <point x="385" y="460"/>
      <point x="427" y="406"/>
      <point x="427" y="301" type="curve" smooth="yes"/>
      <point x="427" y="88" type="line" smooth="yes"/>
      <point x="427" y="32"/>
      <point x="439" y="21"/>
      <point x="491" y="15" type="curve"/>
      <point x="491" y="0" type="line"/>
      <point x="279" y="0" type="line"/>
      <point x="279" y="15" type="line"/>
      <point x="331" y="21"/>
      <point x="343" y="32"/>
      <point x="343" y="88" type="curve" smooth="yes"/>
      <point x="343" y="300" type="line" smooth="yes"/>
      <point x="343" y="370"/>
      <point x="318" y="406"/>
      <point x="268" y="406" type="curve" smooth="yes"/>
      <point x="229" y="406"/>
      <point x="199" y="389"/>
      <point x="157" y="343" type="curve"/>
      <point x="157" y="88" type="line" smooth="yes"/>
      <point x="157" y="32"/>
      <point x="169" y="21"/>
      <point x="221" y="15" type="curve"/>
      <point x="221" y="0" type="line"/>
    </contour>
  </outline>
</glyph>
<glyph name="i" format="2">
  <advance width="278"/>
  <unicode hex="0069"/>
  <outline>
    <contour>
      <point x="16" y="0" type="line"/>
      <point x="16" y="15" type="line"/>
      <point x="85" y="19"/>
      <point x="95" y="30"/>
      <point x="95" y="102" type="curve" smooth="yes"/>
      <point x="95" y="389" type="line" smooth="yes"/>
      <point x="95" y="419.133"/>
      <point x="67.4378" y="439.713"/>
      <point x="20" y="445" type="curve"/>
      <point x="20" y="460" type="line"/>
      <point x="179" y="460" type="line"/>
      <point x="179" y="102" type="line" smooth="yes"/>
      <point x="179" y="30"/>
      <point x="187" y="20"/>
      <point x="253" y="15" type="curve"/>
      <point x="253" y="0" type="line"/>
    </contour>
    <contour>
      <point x="79" y="633" type="curve" smooth="yes"/>
      <point x="79" y="659"/>
      <point x="102" y="682"/>
      <point x="127" y="682" type="curve" smooth="yes"/>
      <point x="155" y="682"/>
      <point x="178" y="659"/>
      <point x="178" y="632" type="curve" smooth="yes"/>
      <point x="178" y="605"/>
      <point x="155" y="583"/>
      <point x="127" y="583" type="curve" smooth="yes"/>
      <point x="100" y="583"/>
      <point x="79" y="605"/>
    </contour>
  </outline>
</glyph>
<glyph name="l" format="2">
  <advance width="278"/>
  <unicode hex="006C"/>
  <outline>
    <contour>
      <point x="21" y="0" type="line"/>
      <point x="21" y="15" type="line"/>
      <point x="84" y="20"/>
      <point x="98" y="33"/>
      <point x="98" y="87" type="curve" smooth="yes"/>
      <point x="98" y="608" type="line" smooth="yes"/>
      <point x="98" y="647.6"/>
      <point x="69.9471" y="664"/>
      <point x="19" y="667" type="curve"/>
      <point x="19" y="683" type="line"/>
      <point x="182" y="683" type="line"/>
      <point x="182" y="84" type="line" smooth="yes"/>
      <point x="182" y="29"/>
      <point x="194" y="19"/>
      <point x="257" y="15" type="curve"/>
      <point x="257" y="0" type="line"/>
    </contour>
  </outline>
</glyph>
<glyph name="m" format="2">
  <advance width="778"/>
  <unicode hex="006D"/>
  <outline>
    <contour>
      <point x="19" y="0" type="line"/>
      <point x="19" y="15" type="line"/>
      <point x="71" y="21"/>
      <point x="83" y="32"/>
      <point x="83" y="88" type="curve" smooth="yes"/>
      <point x="83" y="383" type="line" smooth="yes"/>
      <point x="83" y="415.46"/>
      <point x="55.6636" y="440.295"/>
      <point x="16" y="443" type="curve"/>
      <point x="16" y="460" type="line"/>
      <point x="163" y="460" type="line"/>
      <point x="163" y="383" type="line"/>
      <point x="207.922" y="438.412"/>
      <point x="267" y="460"/>
      <point x="318" y="460" type="curve" smooth="yes"/>
      <point x="372" y="460"/>
      <point x="406" y="433"/>
      <point x="424" y="376" type="curve"/>
      <point x="478" y="434"/>
      <point x="529" y="460"/>
      <point x="587" y="460" type="curve" smooth="yes"/>
      <point x="664" y="460"/>
      <point x="703" y="400"/>
      <point x="703" y="282" type="curve" smooth="yes"/>
      <point x="703" y="88" type="line" smooth="yes"/>
      <point x="703" y="32"/>
      <point x="715" y="21"/>
      <point x="767" y="15" type="curve"/>
      <point x="767" y="0" type="line"/>
      <point x="555" y="0" type="line"/>
      <point x="555" y="15" type="line"/>
      <point x="607" y="21"/>
      <point x="619" y="32"/>
      <point x="619" y="88" type="curve" smooth="yes"/>
      <point x="619" y="298" type="line" smooth="yes"/>
      <point x="619" y="381"/>
      <point x="601" y="408"/>
      <point x="544" y="408" type="curve" smooth="yes"/>
      <point x="498" y="408"/>
      <point x="465" y="390"/>
      <point x="435" y="347" type="curve"/>
      <point x="435" y="88" type="line" smooth="yes"/>
      <point x="435" y="32"/>
      <point x="447" y="21"/>
      <point x="499" y="15" type="curve"/>
      <point x="499" y="0" type="line"/>
      <point x="287" y="0" type="line"/>
      <point x="287" y="15" type="line"/>
      <point x="339" y="21"/>
      <point x="351" y="32"/>
      <point x="351" y="88" type="curve" smooth="yes"/>
      <point x="351" y="303" type="line" smooth="yes"/>
      <point x="351" y="373"/>
      <point x="329" y="408"/>
      <point x="285" y="408" type="curve" smooth="yes"/>
      <point x="244.09" y="408"/>
      <point x="200.683" y="389.114"/>
      <point x="167" y="349" type="curve"/>
      <point x="167" y="88" type="line" smooth="yes"/>
      <point x="167" y="32"/>
      <point x="179" y="21"/>
      <point x="231" y="15" type="curve"/>
      <point x="231" y="0" type="line"/>
    </contour>
  </outline>
</glyph>
<glyph name="q" format="1">
  <advance width="500"/>
  <unicode hex="0071"/>
  <outline>
    <contour>
      <point x="24" y="212" type="curve" smooth="yes"/>
      <point x="24" y="339"/>
      <point x="113" y="460"/>
      <point x="247" y="460" type="curve" smooth="yes"/>
      <point x="295" y="460"/>
      <point x="320" y="448"/>
      <point x="360" y="425" type="curve"/>
      <point x="377" y="435"/>
      <point x="403" y="455"/>
      <point x="421" y="460" type="curve"/>
      <point x="425" y="456" type="line"/>
      <point x="425" y="-141" type="line" smooth="yes"/>
      <point x="425" y="-189"/>
      <point x="445" y="-194"/>
      <point x="488" y="-203" type="curve"/>
      <point x="488" y="-217" type="line"/>
      <point x="252" y="-217" type="line"/>
      <point x="252" y="-200" type="line"/>
      <point x="311" y="-198"/>
      <point x="341" y="-187"/>
      <point x="341" y="-124" type="curve" smooth="yes"/>
      <point x="341" y="62" type="line"/>
      <point x="336" y="62" type="line"/>
      <point x="312" y="21"/>
      <point x="233" y="-10"/>
      <point x="188" y="-10" type="curve" smooth="yes"/>
      <point x="66" y="-10"/>
      <point x="24" y="108"/>
    </contour>
    <contour>
      <point x="110" y="238" type="curve" smooth="yes"/>
      <point x="110" y="159"/>
      <point x="142" y="51"/>
      <point x="238" y="51" type="curve" smooth="yes"/>
      <point x="255" y="51"/>
      <point x="272" y="54"/>
      <point x="288" y="60" type="curve" smooth="yes"/>
      <point x="328" y="75"/>
      <point x="341" y="84"/>
      <point x="341" y="127" type="curve" smooth="yes"/>
      <point x="341" y="333" type="line" smooth="yes"/>
      <point x="341" y="397"/>
      <point x="313" y="432"/>
      <point x="245" y="432" type="curve" smooth="yes"/>
      <point x="142" y="432"/>
      <point x="110" y="323"/>
    </contour>
  </outline>
</glyph>
<glyph name="s" format="2">
  <advance width="389"/>
  <unicode hex="0073"/>
  <outline>
    <contour>
      <point x="51" y="334.827" type="curve" smooth="yes"/>
      <point x="51" y="408"/>
      <point x="108" y="459"/>
      <point x="190.375" y="459" type="curve" smooth="yes"/>
      <point x="220.894" y="459"/>
      <point x="246" y="452"/>
      <point x="258.477" y="446.176" type="curve" smooth="yes"/>
      <point x="267.953" y="441.753"/>
      <point x="279.615" y="440"/>
      <point x="284.965" y="440" type="curve" smooth="yes"/>
      <point x="294" y="440"/>
      <point x="299.963" y="445"/>
      <point x="304" y="450" type="curve"/>
      <point x="315" y="450" type="line"/>
      <point x="315" y="314" type="line"/>
      <point x="300" y="314" type="line"/>
      <point x="277" y="403"/>
      <point x="247" y="437"/>
      <point x="193.002" y="437" type="curve" smooth="yes"/>
      <point x="144" y="437"/>
      <point x="113" y="409"/>
      <point x="113" y="369" type="curve" smooth="yes"/>
      <point x="113" y="342"/>
      <point x="128" y="317"/>
      <point x="156" y="301" type="curve" smooth="yes"/>
      <point x="264" y="237" type="line" smooth="yes"/>
      <point x="324" y="201"/>
      <point x="348" y="168"/>
      <point x="348" y="122.424" type="curve" smooth="yes"/>
      <point x="348" y="48"/>
      <point x="284" y="-10"/>
      <point x="204.38" y="-10" type="curve" smooth="yes"/>
      <point x="181.217" y="-10"/>
      <point x="154.122" y="-5.09113"/>
      <point x="130.979" y="0.955648" type="curve" smooth="yes"/>
      <point x="113.898" y="5.41874"/>
      <point x="98.6763" y="8"/>
      <point x="86.6159" y="8" type="curve" smooth="yes"/>
      <point x="76" y="8"/>
      <point x="72" y="6"/>
      <point x="65" y="-4" type="curve"/>
      <point x="52" y="-4" type="line"/>
      <point x="52" y="152" type="line"/>
      <point x="68" y="152" type="line"/>
      <point x="75.6397" y="102.753"/>
      <point x="93" y="12"/>
      <point x="191.363" y="12" type="curve" smooth="yes"/>
      <point x="246" y="12"/>
      <point x="278" y="40"/>
      <point x="278" y="84" type="curve" smooth="yes"/>
      <point x="278" y="115"/>
      <point x="261" y="139"/>
      <point x="226" y="159" type="curve" smooth="yes"/>
      <point x="168" y="192" type="line" smooth="yes"/>
      <point x="83" y="240"/>
      <point x="51" y="280"/>
    </contour>
  </outline>
</glyph>
<glyph name="t" format="2">
  <advance width="278"/>
  <unicode hex="0074"/>
  <outline>
    <contour>
      <point x="13" y="418" type="line"/>
      <point x="13" y="425" type="line"/>
      <point x="64.1416" y="470"/>
      <point x="105.827" y="524.825"/>
      <point x="147" y="579" type="curve"/>
      <point x="154" y="579" type="line"/>
      <point x="154" y="450" type="line"/>
      <point x="255" y="450" type="line"/>
      <point x="255" y="418" type="line"/>
      <point x="154" y="418" type="line"/>
      <point x="154" y="132" type="line" smooth="yes"/>
      <point x="154" y="69"/>
      <point x="169" y="42"/>
      <point x="206" y="42" type="curve" smooth="yes"/>
      <point x="228" y="42"/>
      <point x="245" y="52"/>
      <point x="266" y="77" type="curve"/>
      <point x="279" y="66" type="line"/>
      <point x="246" y="14"/>
      <point x="208" y="-10"/>
      <point x="159" y="-10" type="curve" smooth="yes"/>
      <point x="100" y="-10"/>
      <point x="70" y="33"/>
      <point x="70" y="117" type="curve" smooth="yes"/>
      <point x="70" y="418" type="line"/>
    </contour>
  </outline>
</glyph>
<glyph name="v" format="1">
  <advance width="500"/>
  <unicode hex="0076"/>
  <outline>
    <contour>
      <point x="19" y="435" type="curve"/>
      <point x="19" y="450" type="line"/>
      <point x="215" y="450" type="line"/>
      <point x="215" y="435" type="line"/>
      <point x="195" y="434"/>
      <point x="169" y="431"/>
      <point x="169" y="405" type="curve" smooth="yes"/>
      <point x="169" y="375"/>
      <point x="264" y="154"/>
      <point x="280" y="114" type="curve"/>
      <point x="298" y="165"/>
      <point x="385" y="365"/>
      <point x="385" y="402" type="curve" smooth="yes"/>
      <point x="385" y="427"/>
      <point x="358" y="434"/>
      <point x="338" y="435" type="curve"/>
      <point x="338" y="450" type="line"/>
      <point x="477" y="450" type="line"/>
      <point x="477" y="435" type="line"/>
      <point x="435" y="432"/>
      <point x="425" y="391"/>
      <point x="412" y="357" type="curve" smooth="yes"/>
      <point x="284" y="36" type="line" smooth="yes"/>
      <point x="281" y="29"/>
      <point x="266" y="-14"/>
      <point x="257" y="-14" type="curve" smooth="yes"/>
      <point x="243" y="-14"/>
      <point x="234" y="24"/>
      <point x="230" y="33" type="curve" smooth="yes"/>
      <point x="200" y="110"/>
      <point x="168" y="186"/>
      <point x="135" y="262" type="curve" smooth="yes"/>
      <point x="116" y="307"/>
      <point x="97" y="355"/>
      <point x="74" y="398" type="curve" smooth="yes"/>
      <point x="61" y="422"/>
      <point x="47" y="434"/>
    </contour>
  </outline>
</glyph>
<glyph name="x" format="2">
  <advance width="500"/>
  <unicode hex="0078"/>
  <outline>
    <contour>
      <point x="17" y="0" type="line"/>
      <point x="17" y="15" type="line"/>
      <point x="56" y="19"/>
      <point x="68" y="34"/>
      <point x="90" y="66" type="curve" smooth="yes"/>
      <point x="204" y="231" type="line"/>
      <point x="110" y="375" type="line" smooth="yes"/>
      <point x="83.7642" y="413.829"/>
      <point x="75.7363" y="435"/>
      <point x="24" y="435" type="curve"/>
      <point x="24" y="450" type="line"/>
      <point x="231" y="450" type="line"/>
      <point x="231" y="435" type="line"/>
      <point x="215" y="435"/>
      <point x="188" y="434"/>
      <point x="188" y="412" type="curve" smooth="yes"/>
      <point x="188" y="403.54"/>
      <point x="195.568" y="385.799"/>
      <point x="207.099" y="367.81" type="curve" smooth="yes"/>
      <point x="248" y="304" type="line"/>
      <point x="297.035" y="375" type="line" smooth="yes"/>
      <point x="308.012" y="390.894"/>
      <point x="315" y="405.746"/>
      <point x="315" y="412" type="curve" smooth="yes"/>
      <point x="315" y="433"/>
      <point x="291" y="434"/>
      <point x="275" y="435" type="curve"/>
      <point x="275" y="450" type="line"/>
      <point x="433" y="450" type="line"/>
      <point x="433" y="435" type="line"/>
      <point x="402" y="434"/>
      <point x="370" y="416"/>
      <point x="352" y="391" type="curve" smooth="yes"/>
      <point x="269" y="271" type="line"/>
      <point x="397" y="75" type="line" smooth="yes"/>
      <point x="418" y="43"/>
      <point x="440" y="17"/>
      <point x="479" y="15" type="curve"/>
      <point x="479" y="0" type="line"/>
      <point x="278" y="0" type="line"/>
      <point x="278" y="15" type="line"/>
      <point x="299" y="16"/>
      <point x="318" y="17"/>
      <point x="318" y="41" type="curve" smooth="yes"/>
      <point x="318" y="46.3683"/>
      <point x="311.776" y="60.5452"/>
      <point x="300.691" y="77.2078" type="curve" smooth="yes"/>
      <point x="221" y="197" type="line"/>
      <point x="145.122" y="80.4543" type="line" smooth="yes"/>
      <point x="130.863" y="58.5527"/>
      <point x="122" y="39.4388"/>
      <point x="122" y="33" type="curve" smooth="yes"/>
      <point x="122" y="15"/>
      <point x="150" y="15"/>
      <point x="162" y="15" type="curve"/>
      <point x="162" y="0" type="line"/>
    </contour>
  </outline>
</glyph>
<glyph name="y" format="2">
  <advance width="500"/>
  <unicode hex="0079"/>
  <outline>
    <contour>
      <point x="29" y="-140.774" type="curve" smooth="yes"/>
      <point x="29" y="-111.741"/>
      <point x="44.6776" y="-80.1262"/>
      <point x="84.7944" y="-80.1262" type="curve" smooth="yes"/>
      <point x="120.964" y="-80.1262"/>
      <point x="129.479" y="-105.825"/>
      <point x="129.465" y="-122.17" type="curve" smooth="yes"/>
      <point x="129.457" y="-131.234"/>
      <point x="125.827" y="-137.118"/>
      <point x="122.353" y="-142.768" type="curve" smooth="yes"/>
      <point x="119.183" y="-147.925"/>
      <point x="116.142" y="-152.886"/>
      <point x="116.113" y="-158.825" type="curve" smooth="yes"/>
      <point x="116.074" y="-166.676"/>
      <point x="121.319" y="-171.758"/>
      <point x="133.295" y="-171.758" type="curve" smooth="yes"/>
      <point x="153.521" y="-171.758"/>
      <point x="177.18" y="-157.264"/>
      <point x="203.561" y="-92.512" type="curve" smooth="yes"/>
      <point x="247.752" y="15.9493" type="line"/>
      <point x="65.2482" y="402.166" type="line" smooth="yes"/>
      <point x="57.2211" y="419.154"/>
      <point x="39" y="432"/>
      <point x="13" y="436" type="curve"/>
      <point x="13" y="450" type="line"/>
      <point x="219" y="450" type="line"/>
      <point x="219" y="435" type="line"/>
      <point x="176" y="433"/>
      <point x="161" y="426"/>
      <point x="161" y="406.876" type="curve" smooth="yes"/>
      <point x="161" y="397"/>
      <point x="165" y="384"/>
      <point x="171" y="370" type="curve" smooth="yes"/>
      <point x="286" y="117" type="line"/>
      <point x="383" y="393" type="line" smooth="yes"/>
      <point x="385.525" y="400.185"/>
      <point x="387" y="406"/>
      <point x="387" y="410" type="curve" smooth="yes"/>
      <point x="387" y="426"/>
      <point x="371" y="435"/>
      <point x="339" y="435" type="curve"/>
      <point x="339" y="450" type="line"/>
      <point x="474" y="450" type="line"/>
      <point x="474" y="435" type="line"/>
      <point x="450" y="432"/>
      <point x="439" y="422"/>
      <point x="426" y="390" type="curve"/>
      <point x="272" y="-18" type="line" smooth="yes"/>
      <point x="218" y="-162"/>
      <point x="177.744" y="-220"/>
      <point x="115.611" y="-220" type="curve" smooth="yes"/>
      <point x="68.7444" y="-220"/>
      <point x="29" y="-187"/>
    </contour>
  </outline>
</glyph>
<glyph name="braceleft" format="1">
  <advance width="480"/>
  <unicode hex="007B"/>
  <outline>
    <contour>
      <point x="100" y="250" type="curve"/>
      <point x="167" y="270"/>
      <point x="185" y="293"/>
      <point x="185" y="363" type="curve" smooth="yes"/>
      <point x="185" y="541" type="line" smooth="yes"/>
      <point x="185" y="598"/>
      <point x="200" y="637"/>
      <point x="229" y="655" type="curve" smooth="yes"/>
      <point x="258" y="673"/>
      <point x="284" y="679"/>
      <point x="350" y="680" type="curve"/>
      <point x="350" y="669" type="line"/>
      <point x="281" y="651"/>
      <point x="259" y="621"/>
      <point x="259" y="546" type="curve" smooth="yes"/>
      <point x="259" y="378" type="line" smooth="yes"/>
      <point x="259" y="295"/>
      <point x="240" y="269"/>
      <point x="165" y="249" type="curve"/>
      <point x="240" y="230"/>
      <point x="259" y="204"/>
      <point x="259" y="121" type="curve" smooth="yes"/>
      <point x="259" y="-47" type="line" smooth="yes"/>
      <point x="259" y="-122"/>
      <point x="281" y="-152"/>
      <point x="350" y="-170" type="curve"/>
      <point x="350" y="-181" type="line"/>
      <point x="284" y="-180"/>
      <point x="257" y="-174"/>
      <point x="229" y="-156" type="curve" smooth="yes"/>
      <point x="201" y="-138"/>
      <point x="185" y="-97"/>
      <point x="185" y="-41" type="curve" smooth="yes"/>
      <point x="185" y="136" type="line" smooth="yes"/>
      <point x="185" y="205"/>
      <point x="167" y="229"/>
    </contour>
  </outline>
</glyph>
<glyph name="braceright" format="2">
  <advance width="480"/>
  <unicode hex="007D"/>
  <outline>
    <contour>
      <point x="130" y="-170" type="line"/>
      <point x="199" y="-152"/>
      <point x="221" y="-122"/>
      <point x="221" y="-47" type="curve" smooth="yes"/>
      <point x="221" y="121" type="line" smooth="yes"/>
      <point x="221" y="204"/>
      <point x="240" y="230"/>
      <point x="315" y="250" type="curve"/>
      <point x="240" y="269"/>
      <point x="221" y="294"/>
      <point x="221" y="378" type="curve" smooth="yes"/>
      <point x="221" y="546" type="line" smooth="yes"/>
      <point x="221" y="621"/>
      <point x="199" y="651"/>
      <point x="130" y="669" type="curve"/>
      <point x="130" y="680" type="line"/>
      <point x="197" y="679"/>
      <point x="223" y="673"/>
      <point x="251" y="655" type="curve" smooth="yes"/>
      <point x="279" y="637"/>
      <point x="295" y="596"/>
      <point x="295" y="540" type="curve" smooth="yes"/>
      <point x="295" y="363" type="line" smooth="yes"/>
      <point x="295" y="293"/>
      <point x="313" y="270"/>
      <point x="380" y="250" type="curve"/>
      <point x="313" y="229"/>
      <point x="295" y="206"/>
      <point x="295" y="136" type="curve" smooth="yes"/>
      <point x="295" y="-42" type="line" smooth="yes"/>
      <point x="295" y="-99"/>
      <point x="280" y="-138"/>
      <point x="251" y="-156" type="curve" smooth="yes"/>
      <point x="222" y="-174"/>
      <point x="196" y="-180"/>
      <point x="130" y="-181" type="curve"/>
    </contour>
  </outline>
</glyph>
<glyph name="exclamdown" format="1">
  <advance width="333"/>
  <unicode hex="00A1"/>
  <outline>
    <contour>
      <point x="97" y="-138" type="curve" smooth="yes"/>
      <point x="97" y="-126"/>
      <point x="98" y="-113"/>
      <point x="99" y="-101" type="curve" smooth="yes"/>
      <point x="144" y="282" type="line"/>
      <point x="157" y="282" type="line"/>
      <point x="166" y="174" type="line" smooth="yes"/>
      <point x="170" y="127"/>
      <point x="176" y="81"/>
      <point x="183" y="36" type="curve" smooth="yes"/>
      <point x="195" y="-35"/>
      <point x="203" y="-106"/>
      <point x="203" y="-140" type="curve" smooth="yes"/>
      <point x="203" y="-188"/>
      <point x="183" y="-218"/>
      <point x="150" y="-218" type="curve" smooth="yes"/>
      <point x="116" y="-218"/>
      <point x="97" y="-190"/>
    </contour>
    <contour>
      <point x="97" y="418" type="curve" smooth="yes"/>
      <point x="97" y="448"/>
      <point x="119" y="469"/>
      <point x="151" y="469" type="curve" smooth="yes"/>
      <point x="180" y="469"/>
      <point x="204" y="446"/>
      <point x="204" y="417" type="curve" smooth="yes"/>
      <point x="204" y="387"/>
      <point x="180" y="362"/>
      <point x="150" y="362" type="curve" smooth="yes"/>
      <point x="120" y="362"/>
      <point x="97" y="386"/>
    </contour>
  </outline>
</glyph>
<glyph name="yen" format="1">
  <advance width="500"/>
  <unicode hex="00A5"/>
  <outline>
    <contour>
      <point x="-53" y="643" type="curve"/>
      <point x="-53" y="662" type="line"/>
      <point x="190" y="662" type="line"/>
      <point x="190" y="643" type="line"/>
      <point x="143" y="642"/>
      <point x="125" y="634"/>
      <point x="125" y="614" type="curve" smooth="yes"/>
      <point x="125" y="601"/>
      <point x="130" y="585"/>
      <point x="138" y="569" type="curve" smooth="yes"/>
      <point x="256" y="348" type="line"/>
      <point x="368" y="568" type="line" smooth="yes"/>
      <point x="377" y="585"/>
      <point x="382" y="602"/>
      <point x="382" y="612" type="curve" smooth="yes"/>
      <point x="382" y="631"/>
      <point x="361" y="643"/>
      <point x="331" y="643" type="curve" smooth="yes"/>
      <point x="317" y="643" type="line"/>
      <point x="317" y="662" type="line"/>
      <point x="512" y="662" type="line"/>
      <point x="512" y="643" type="line"/>
      <point x="461" y="632"/>
      <point x="431" y="605"/>
      <point x="394" y="536" type="curve" smooth="yes"/>
      <point x="302" y="352" type="line"/>
      <point x="448" y="352" type="line"/>
      <point x="448" y="312" type="line"/>
      <point x="282" y="312" type="line"/>
      <point x="275" y="298" type="line"/>
      <point x="275" y="222" type="line"/>
      <point x="448" y="222" type="line"/>
      <point x="448" y="182" type="line"/>
      <point x="275" y="182" type="line"/>
      <point x="275" y="109" type="line" smooth="yes"/>
      <point x="275" y="39"/>
      <point x="291" y="21"/>
      <point x="355" y="19" type="curve"/>
      <point x="355" y="0" type="line"/>
      <point x="111" y="0" type="line"/>
      <point x="111" y="19" type="line"/>
      <point x="178" y="22"/>
      <point x="190" y="37"/>
      <point x="190" y="120" type="curve" smooth="yes"/>
      <point x="190" y="182" type="line"/>
      <point x="16" y="182" type="line"/>
      <point x="16" y="222" type="line"/>
      <point x="190" y="222" type="line"/>
      <point x="190" y="298" type="line"/>
      <point x="183" y="312" type="line"/>
      <point x="16" y="312" type="line"/>
      <point x="16" y="352" type="line"/>
      <point x="160" y="352" type="line"/>
      <point x="65" y="525" type="line" smooth="yes"/>
      <point x="10" y="624"/>
      <point x="-7" y="640"/>
    </contour>
  </outline>
</glyph>
<glyph name="logicalnot" format="1">
  <advance width="564"/>
  <unicode hex="00AC"/>
  <outline>
    <contour>
      <point x="30" y="320" type="line"/>
      <point x="30" y="386" type="line"/>
      <point x="534" y="386" type="line"/>
      <point x="534" y="108" type="line"/>
      <point x="468" y="108" type="line"/>
      <point x="468" y="320" type="line"/>
    </contour>
  </outline>
</glyph>
<glyph name="macron" format="2">
  <advance width="451"/>
  <unicode hex="00AF"/>
  <outline>
    <contour>
      <point x="70" y="532" type="line"/>
      <point x="70" y="586" type="line"/>
      <point x="381" y="586" type="line"/>
      <point x="381" y="532" type="line"/>
    </contour>
  </outline>
</glyph>
<glyph name="paragraph" format="1">
  <advance width="453"/>
  <unicode hex="00B6"/>
  <outline>
    <contour>
      <point x="-22" y="477" type="curve" smooth="yes"/>
      <point x="-22" y="607"/>
      <point x="40" y="662"/>
      <point x="187" y="662" type="curve" smooth="yes"/>
      <point x="450" y="662" type="line"/>
      <point x="450" y="643" type="line"/>
      <point x="373" y="636"/>
      <point x="362" y="625"/>
      <point x="362" y="553" type="curve" smooth="yes"/>
      <point x="362" y="-42" type="line" smooth="yes"/>
      <point x="362" y="-113"/>
      <point x="374" y="-126"/>
      <point x="450" y="-132" type="curve"/>
      <point x="450" y="-154" type="line"/>
      <point x="296" y="-154" type="line"/>
      <point x="296" y="640" type="line"/>
      <point x="238" y="640" type="line"/>
      <point x="238" y="-154" type="line"/>
      <point x="84" y="-154" type="line"/>
      <point x="84" y="-132" type="line"/>
      <point x="162" y="-127"/>
      <point x="172" y="-115"/>
      <point x="172" y="-31" type="curve" smooth="yes"/>
      <point x="172" y="273" type="line"/>
      <point x="109" y="275"/>
      <point x="81" y="283"/>
      <point x="48" y="307" type="curve" smooth="yes"/>
      <point x="1" y="339"/>
      <point x="-22" y="396"/>
    </contour>
    <contour>
      <point x="54" y="481" type="curve" smooth="yes"/>
      <point x="54" y="355"/>
      <point x="86" y="304"/>
      <point x="172" y="295" type="curve"/>
      <point x="172" y="640" type="line"/>
      <point x="132" y="637"/>
      <point x="115" y="631"/>
      <point x="97" y="618" type="curve" smooth="yes"/>
      <point x="68" y="597"/>
      <point x="54" y="552"/>
    </contour>
  </outline>
</glyph>
<glyph name="periodcentered" format="1">
  <advance width="250"/>
  <unicode hex="00B7"/>
  <outline>
    <contour>
      <point x="70" y="253" type="curve" smooth="yes"/>
      <point x="70" y="284"/>
      <point x="95" y="310"/>
      <point x="125" y="310" type="curve" smooth="yes"/>
      <point x="155" y="310"/>
      <point x="181" y="284"/>
      <point x="181" y="253" type="curve" smooth="yes"/>
      <point x="181" y="224"/>
      <point x="155" y="199"/>
      <point x="124" y="199" type="curve" smooth="yes"/>
      <point x="95" y="199"/>
      <point x="70" y="224"/>
    </contour>
  </outline>
</glyph>
<glyph name="one.superior" format="1">
  <advance width="300"/>
  <unicode hex="00B9"/>
  <outline>
    <contour>
      <point x="57" y="270" type="line"/>
      <point x="57" y="294" type="line"/>
      <point x="100" y="297"/>
      <point x="110" y="303"/>
      <point x="110" y="326" type="curve" smooth="yes"/>
      <point x="110" y="583" type="line" smooth="yes"/>
      <point x="110" y="605"/>
      <point x="108" y="611"/>
      <point x="102" y="611" type="curve" smooth="yes"/>
      <point x="96" y="611"/>
      <point x="96" y="611"/>
      <point x="59" y="598" type="curve"/>
      <point x="59" y="621" type="line"/>
      <point x="177" y="676" type="line"/>
      <point x="191" y="673" type="line"/>
      <point x="191" y="330" type="line" smooth="yes"/>
      <point x="191" y="304"/>
      <point x="202" y="297"/>
      <point x="248" y="294" type="curve"/>
      <point x="248" y="270" type="line"/>
    </contour>
  </outline>
</glyph>
<glyph name="Iacute" format="1">
  <advance width="333"/>
  <unicode hex="00CD"/>
  <outline>
    <contour>
      <point x="12" y="0" type="line"/>
      <point x="12" y="19" type="line"/>
      <point x="96" y="22"/>
      <point x="109" y="34"/>
      <point x="109" y="109" type="curve" smooth="yes"/>
      <point x="109" y="553" type="line" smooth="yes"/>
      <point x="109" y="627"/>
      <point x="97" y="638"/>
      <point x="12" y="643" type="curve"/>
      <point x="12" y="662" type="line"/>
      <point x="309" y="662" type="line"/>
      <point x="309" y="643" type="line"/>
      <point x="225" y="639"/>
      <point x="211" y="626"/>
      <point x="211" y="553" type="curve" smooth="yes"/>
      <point x="211" y="109" type="line" smooth="yes"/>
      <point x="211" y="36"/>
      <point x="227" y="22"/>
      <point x="309" y="19" type="curve"/>
      <point x="309" y="0" type="line"/>
    </contour>
    <contour>
      <point x="86" y="719" type="line"/>
      <point x="233" y="867" type="line" smooth="yes"/>
      <point x="251" y="885"/>
      <point x="260" y="890"/>
      <point x="275" y="890" type="curve" smooth="yes"/>
      <point x="297" y="890"/>
      <point x="310" y="878"/>
      <point x="310" y="858" type="curve" smooth="yes"/>
      <point x="310" y="842"/>
      <point x="301" y="829"/>
      <point x="280" y="816" type="curve" smooth="yes"/>
      <point x="126" y="719" type="line"/>
    </contour>
  </outline>
</glyph>
<glyph name="Eth" format="2">
  <advance width="722"/>
  <unicode hex="00D0"/>
  <outline>
    <component base="D"/>
    <contour>
      <point x="21" y="315" type="line"/>
      <point x="21" y="359" type="line"/>
      <point x="350" y="359" type="line"/>
      <point x="350" y="315" type="line"/>
    </contour>
  </outline>
</glyph>
<glyph name="Oslash" format="1">
  <advance width="722"/>
  <unicode hex="00D8"/>
  <outline>
    <contour>
      <point x="34" y="330" type="curve" smooth="yes"/>
      <point x="34" y="524"/>
      <point x="162" y="676"/>
      <point x="361" y="676" type="curve" smooth="yes"/>
      <point x="423" y="676"/>
      <point x="484" y="660"/>
      <point x="537" y="627" type="curve"/>
      <point x="609" y="734" type="line"/>
      <point x="658" y="734" type="line"/>
      <point x="570" y="604" type="line"/>
      <point x="653" y="536"/>
      <point x="688" y="435"/>
      <point x="688" y="330" type="curve" smooth="yes"/>
      <point x="688" y="136"/>
      <point x="560" y="-14"/>
      <point x="361" y="-14" type="curve" smooth="yes"/>
      <point x="299" y="-14"/>
      <point x="236" y="2"/>
      <point x="184" y="36" type="curve"/>
      <point x="105" y="-80" type="line"/>
      <point x="56" y="-80" type="line"/>
      <point x="151" y="59" type="line"/>
      <point x="69" y="126"/>
      <point x="34" y="227"/>
    </contour>
    <contour>
      <point x="148" y="330" type="curve" smooth="yes"/>
      <point x="148" y="242"/>
      <point x="160" y="187"/>
      <point x="194" y="123" type="curve"/>
      <point x="502" y="575" type="line"/>
      <point x="458" y="621"/>
      <point x="416" y="640"/>
      <point x="361" y="640" type="curve" smooth="yes"/>
      <point x="230" y="640"/>
      <point x="148" y="521"/>
    </contour>
    <contour>
      <point x="219" y="88" type="line"/>
      <point x="262" y="41"/>
      <point x="303" y="22"/>
      <point x="361" y="22" type="curve" smooth="yes"/>
      <point x="493" y="22"/>
      <point x="574" y="139"/>
      <point x="574" y="330" type="curve" smooth="yes"/>
      <point x="574" y="419"/>
      <point x="561" y="475"/>
      <point x="527" y="540" type="curve"/>
    </contour>
  </outline>
</glyph>
<glyph name="Ugrave" format="1">
  <advance width="722"/>
  <unicode hex="00D9"/>
  <outline>
    <contour>
      <point x="14" y="643" type="curve"/>
      <point x="14" y="662" type="line"/>
      <point x="297" y="662" type="line"/>
      <point x="297" y="643" type="line"/>
      <point x="217" y="636"/>
      <point x="206" y="625"/>
      <point x="206" y="553" type="curve" smooth="yes"/>
      <point x="206" y="233" type="line" smooth="yes"/>
      <point x="206" y="170"/>
      <point x="213" y="133"/>
      <point x="231" y="101" type="curve" smooth="yes"/>
      <point x="258" y="54"/>
      <point x="307" y="30"/>
      <point x="378" y="30" type="curve" smooth="yes"/>
      <point x="453" y="30"/>
      <point x="517" y="61"/>
      <point x="544" y="109" type="curve" smooth="yes"/>
      <point x="560" y="139"/>
      <point x="567" y="177"/>
      <point x="567" y="245" type="curve" smooth="yes"/>
      <point x="567" y="515" type="line" smooth="yes"/>
      <point x="567" y="615"/>
      <point x="551" y="637"/>
      <point x="473" y="643" type="curve"/>
      <point x="473" y="662" type="line"/>
      <point x="705" y="662" type="line"/>
      <point x="705" y="643" type="line"/>
      <point x="623" y="633"/>
      <point x="611" y="617"/>
      <point x="611" y="515" type="curve" smooth="yes"/>
      <point x="611" y="254" type="line" smooth="yes"/>
      <point x="611" y="177"/>
      <point x="602" y="131"/>
      <point x="578" y="89" type="curve" smooth="yes"/>
      <point x="539" y="21"/>
      <point x="464" y="-14"/>
      <point x="355" y="-14" type="curve" smooth="yes"/>
      <point x="185" y="-14"/>
      <point x="104" y="68"/>
      <point x="104" y="241" type="curve" smooth="yes"/>
      <point x="104" y="553" type="line" smooth="yes"/>
      <point x="104" y="626"/>
      <point x="93" y="637"/>
    </contour>
    <contour>
      <point x="231" y="859" type="curve" smooth="yes"/>
      <point x="231" y="878"/>
      <point x="244" y="890"/>
      <point x="265" y="890" type="curve" smooth="yes"/>
      <point x="280" y="890"/>
      <point x="289" y="885"/>
      <point x="307" y="867" type="curve" smooth="yes"/>
      <point x="454" y="719" type="line"/>
      <point x="414" y="719" type="line"/>
      <point x="260" y="816" type="line" smooth="yes"/>
      <point x="242" y="828"/>
      <point x="231" y="843"/>
    </contour>
  </outline>
</glyph>
<glyph name="Udieresis" format="1">
  <advance width="722"/>
  <unicode hex="00DC"/>
  <outline>
    <contour>
      <point x="14" y="643" type="curve"/>
      <point x="14" y="662" type="line"/>
      <point x="297" y="662" type="line"/>
      <point x="297" y="643" type="line"/>
      <point x="217" y="636"/>
      <point x="206" y="625"/>
      <point x="206" y="553" type="curve" smooth="yes"/>
      <point x="206" y="233" type="line" smooth="yes"/>
      <point x="206" y="170"/>
      <point x="213" y="133"/>
      <point x="231" y="101" type="curve" smooth="yes"/>
      <point x="258" y="54"/>
      <point x="307" y="30"/>
      <point x="378" y="30" type="curve" smooth="yes"/>
      <point x="453" y="30"/>
      <point x="517" y="61"/>
      <point x="544" y="109" type="curve" smooth="yes"/>
      <point x="560" y="139"/>
      <point x="567" y="177"/>
      <point x="567" y="245" type="curve" smooth="yes"/>
      <point x="567" y="515" type="line" smooth="yes"/>
      <point x="567" y="615"/>
      <point x="551" y="637"/>
      <point x="473" y="643" type="curve"/>
      <point x="473" y="662" type="line"/>
      <point x="705" y="662" type="line"/>
      <point x="705" y="643" type="line"/>
      <point x="623" y="633"/>
      <point x="611" y="617"/>
      <point x="611" y="515" type="curve" smooth="yes"/>
      <point x="611" y="254" type="line" smooth="yes"/>
      <point x="611" y="177"/>
      <point x="602" y="131"/>
      <point x="578" y="89" type="curve" smooth="yes"/>
      <point x="539" y="21"/>
      <point x="464" y="-14"/>
      <point x="355" y="-14" type="curve" smooth="yes"/>
      <point x="185" y="-14"/>
      <point x="104" y="68"/>
      <point x="104" y="241" type="curve" smooth="yes"/>
      <point x="104" y="553" type="line" smooth="yes"/>
      <point x="104" y="626"/>
      <point x="93" y="637"/>
    </contour>
    <contour>
      <point x="230" y="785" type="curve" smooth="yes"/>
      <point x="230" y="811"/>
      <point x="253" y="834"/>
      <point x="278" y="834" type="curve" smooth="yes"/>
      <point x="306" y="834"/>
      <point x="329" y="811"/>
      <point x="329" y="784" type="curve" smooth="yes"/>
      <point x="329" y="757"/>
      <point x="306" y="735"/>
      <point x="278" y="735" type="curve" smooth="yes"/>
      <point x="251" y="735"/>
      <point x="230" y="757"/>
    </contour>
    <contour>
      <point x="429" y="785" type="curve" smooth="yes"/>
      <point x="429" y="811"/>
      <point x="452" y="834"/>
      <point x="477" y="834" type="curve" smooth="yes"/>
      <point x="505" y="834"/>
      <point x="528" y="811"/>
      <point x="528" y="784" type="curve" smooth="yes"/>
      <point x="528" y="757"/>
      <point x="505" y="735"/>
      <point x="477" y="735" type="curve" smooth="yes"/>
      <point x="450" y="735"/>
      <point x="429" y="757"/>
    </contour>
  </outline>
</glyph>
<glyph name="Yacute" format="1">
  <advance width="722"/>
  <unicode hex="00DD"/>
  <outline>
    <contour>
      <point x="22" y="643" type="curve"/>
      <point x="22" y="662" type="line"/>
      <point x="302" y="662" type="line"/>
      <point x="302" y="643" type="line"/>
      <point x="291" y="642"/>
      <point x="281" y="642"/>
      <point x="277" y="642" type="curve" smooth="yes"/>
      <point x="245" y="640"/>
      <point x="231" y="631"/>
      <point x="231" y="613" type="curve" smooth="yes"/>
      <point x="231" y="602"/>
      <point x="237" y="585"/>
      <point x="248" y="569" type="curve" smooth="yes"/>
      <point x="396" y="347" type="line"/>
      <point x="539" y="573" type="line" smooth="yes"/>
      <point x="548" y="588"/>
      <point x="553" y="600"/>
      <point x="553" y="610" type="curve" smooth="yes"/>
      <point x="553" y="634"/>
      <point x="536" y="642"/>
      <point x="484" y="643" type="curve"/>
      <point x="484" y="662" type="line"/>
      <point x="703" y="662" type="line"/>
      <point x="703" y="643" type="line"/>
      <point x="652" y="639"/>
      <point x="624" y="619"/>
      <point x="565" y="529" type="curve" smooth="yes"/>
      <point x="417" y="303" type="line"/>
      <point x="417" y="109" type="line" smooth="yes"/>
      <point x="417" y="33"/>
      <point x="431" y="21"/>
      <point x="520" y="19" type="curve"/>
      <point x="520" y="0" type="line"/>
      <point x="214" y="0" type="line"/>
      <point x="214" y="19" type="line"/>
      <point x="305" y="23"/>
      <point x="315" y="33"/>
      <point x="315" y="120" type="curve" smooth="yes"/>
      <point x="315" y="294" type="line"/>
      <point x="184" y="486" type="line" smooth="yes"/>
      <point x="87" y="629"/>
      <point x="70" y="641"/>
    </contour>
    <contour>
      <point x="317" y="719" type="line"/>
      <point x="464" y="867" type="line" smooth="yes"/>
      <point x="482" y="885"/>
      <point x="491" y="890"/>
      <point x="506" y="890" type="curve" smooth="yes"/>
      <point x="528" y="890"/>
      <point x="541" y="878"/>
      <point x="541" y="858" type="curve" smooth="yes"/>
      <point x="541" y="842"/>
      <point x="532" y="829"/>
      <point x="511" y="816" type="curve" smooth="yes"/>
      <point x="357" y="719" type="line"/>
    </contour>
  </outline>
</glyph>
<glyph name="Thorn" format="2">
  <advance width="556"/>
  <unicode hex="00DE"/>
  <outline>
    <component base="I"/>
    <contour>
      <point x="191" y="164" type="line"/>
      <point x="218" y="160"/>
      <point x="256" y="158"/>
      <point x="285.269" y="158" type="curve" smooth="yes"/>
      <point x="514" y="158"/>
      <point x="551" y="280.139"/>
      <point x="551" y="349.061" type="curve" smooth="yes"/>
      <point x="551" y="461.566"/>
      <point x="451" y="532.233"/>
      <point x="291" y="532" type="curve" smooth="yes"/>
      <point x="191" y="531.854" type="line"/>
      <point x="191" y="459.701" type="line"/>
      <point x="211" y="459.539" type="line"/>
      <point x="211" y="485.892"/>
      <point x="218" y="494"/>
      <point x="243" y="494" type="curve" smooth="yes"/>
      <point x="381" y="494"/>
      <point x="442" y="447.376"/>
      <point x="442" y="345.176" type="curve" smooth="yes"/>
      <point x="442" y="244.664"/>
      <point x="383" y="198"/>
      <point x="275.355" y="198" type="curve" smooth="yes"/>
      <point x="248" y="198"/>
      <point x="214" y="201.014"/>
      <point x="191" y="205.047" type="curve"/>
    </contour>
  </outline>
</glyph>
<glyph name="germandbls" format="2">
  <advance width="500"/>
  <unicode hex="00DF"/>
  <outline>
    <contour>
      <point x="12" y="0" type="line"/>
      <point x="12" y="15" type="line"/>
      <point x="62" y="19"/>
      <point x="73" y="31"/>
      <point x="73" y="84" type="curve" smooth="yes"/>
      <point x="73" y="452.743" type="line" smooth="yes"/>
      <point x="73" y="572.785"/>
      <point x="108.079" y="683"/>
      <point x="249.234" y="683" type="curve" smooth="yes"/>
      <point x="355" y="683"/>
      <point x="421" y="621.121"/>
      <point x="421" y="527.056" type="curve" smooth="yes"/>
      <point x="421" y="452.014"/>
      <point x="378.996" y="404.971"/>
      <point x="284" y="376.026" type="curve"/>
      <point x="388.049" y="355.632"/>
      <point x="468" y="303.444"/>
      <point x="468" y="180.515" type="curve" smooth="yes"/>
      <point x="468" y="77"/>
      <point x="411.309" y="-9"/>
      <point x="308.425" y="-9" type="curve" smooth="yes"/>
      <point x="255.26" y="-9"/>
      <point x="221.44" y="13.9646"/>
      <point x="202.324" y="38.9621" type="curve"/>
      <point x="242.138" y="68.6104" type="line"/>
      <point x="255.995" y="37.4917"/>
      <point x="277.919" y="20"/>
      <point x="306.369" y="20" type="curve" smooth="yes"/>
      <point x="352" y="20"/>
      <point x="374" y="65"/>
      <point x="374" y="154.683" type="curve" smooth="yes"/>
      <point x="374" y="284.364"/>
      <point x="328" y="353.11"/>
      <point x="240" y="356.099" type="curve"/>
      <point x="240" y="387.982" type="line"/>
      <point x="305" y="394.956"/>
      <point x="334" y="435.805"/>
      <point x="334" y="515.511" type="curve" smooth="yes"/>
      <point x="334" y="602.191"/>
      <point x="300" y="654"/>
      <point x="243" y="654" type="curve" smooth="yes"/>
      <point x="191" y="654"/>
      <point x="157" y="612.154"/>
      <point x="157" y="547.393" type="curve" smooth="yes"/>
      <point x="157" y="0" type="line"/>
    </contour>
  </outline>
</glyph>
<glyph name="atilde" format="1">
  <advance width="444"/>
  <unicode hex="00E3"/>
  <outline>
    <contour>
      <point x="37" y="95" type="curve" smooth="yes"/>
      <point x="37" y="215"/>
      <point x="197" y="258"/>
      <point x="287" y="293" type="curve"/>
      <point x="287" y="354" type="line" smooth="yes"/>
      <point x="287" y="405"/>
      <point x="262" y="437"/>
      <point x="210" y="437" type="curve" smooth="yes"/>
      <point x="182" y="437"/>
      <point x="139" y="422"/>
      <point x="139" y="388" type="curve" smooth="yes"/>
      <point x="139" y="375"/>
      <point x="144" y="362"/>
      <point x="144" y="349" type="curve" smooth="yes"/>
      <point x="144" y="325"/>
      <point x="122" y="306"/>
      <point x="99" y="306" type="curve" smooth="yes"/>
      <point x="75" y="306"/>
      <point x="56" y="326"/>
      <point x="56" y="350" type="curve" smooth="yes"/>
      <point x="56" y="427"/>
      <point x="157" y="461"/>
      <point x="219" y="461" type="curve" smooth="yes"/>
      <point x="336" y="461"/>
      <point x="368" y="407"/>
      <point x="368" y="301" type="curve" smooth="yes"/>
      <point x="368" y="106" type="line"/>
      <point x="368" y="97" type="line" smooth="yes"/>
      <point x="368" y="75"/>
      <point x="370" y="47"/>
      <point x="397" y="47" type="curve" smooth="yes"/>
      <point x="415" y="47"/>
      <point x="429" y="55"/>
      <point x="442" y="66" type="curve"/>
      <point x="442" y="41" type="line"/>
      <point x="418" y="13"/>
      <point x="391" y="-9"/>
      <point x="353" y="-9" type="curve" smooth="yes"/>
      <point x="307" y="-9"/>
      <point x="291" y="20"/>
      <point x="288" y="64" type="curve"/>
      <point x="249" y="29"/>
      <point x="198" y="-9"/>
      <point x="143" y="-9" type="curve" smooth="yes"/>
      <point x="83" y="-9"/>
      <point x="37" y="34"/>
    </contour>
    <contour>
      <point x="57" y="533" type="line"/>
      <point x="72" y="598"/>
      <point x="108" y="634"/>
      <point x="158" y="634" type="curve" smooth="yes"/>
      <point x="180" y="634"/>
      <point x="205" y="628"/>
      <point x="228" y="616" type="curve" smooth="yes"/>
      <point x="252" y="604" type="line" smooth="yes"/>
      <point x="271" y="595"/>
      <point x="290" y="589"/>
      <point x="305" y="589" type="curve" smooth="yes"/>
      <point x="328" y="589"/>
      <point x="341" y="601"/>
      <point x="358" y="639" type="curve"/>
      <point x="387" y="639" type="line"/>
      <point x="366" y="563"/>
      <point x="337" y="533"/>
      <point x="282" y="533" type="curve" smooth="yes"/>
      <point x="257" y="533"/>
      <point x="242" y="537"/>
      <point x="201" y="557" type="curve" smooth="yes"/>
      <point x="178" y="568" type="line" smooth="yes"/>
      <point x="163" y="575"/>
      <point x="149" y="579"/>
      <point x="137" y="579" type="curve" smooth="yes"/>
      <point x="114" y="579"/>
      <point x="97" y="564"/>
      <point x="86" y="533" type="curve"/>
    </contour>
    <contour>
      <point x="125" y="127" type="curve" smooth="yes"/>
      <point x="125" y="88"/>
      <point x="148" y="49"/>
      <point x="191" y="49" type="curve" smooth="yes"/>
      <point x="209" y="49"/>
      <point x="237" y="59"/>
      <point x="253" y="67" type="curve" smooth="yes"/>
      <point x="282" y="82"/>
      <point x="287" y="92"/>
      <point x="287" y="124" type="curve" smooth="yes"/>
      <point x="287" y="269" type="line"/>
      <point x="221" y="247"/>
      <point x="125" y="210"/>
    </contour>
  </outline>
</glyph>
<glyph name="ccedilla" format="1">
  <advance width="444"/>
  <unicode hex="00E7"/>
  <outline>
    <contour>
      <point x="25" y="212" type="curve" smooth="yes"/>
      <point x="25" y="365"/>
      <point x="131" y="460"/>
      <point x="244" y="460" type="curve" smooth="yes"/>
      <point x="328" y="460"/>
      <point x="398" y="413"/>
      <point x="398" y="357" type="curve" smooth="yes"/>
      <point x="398" y="334"/>
      <point x="376" y="315"/>
      <point x="351" y="315" type="curve" smooth="yes"/>
      <point x="329" y="315"/>
      <point x="311" y="332"/>
      <point x="303" y="361" type="curve" smooth="yes"/>
      <point x="297" y="383" type="line" smooth="yes"/>
      <point x="287" y="420"/>
      <point x="274" y="431"/>
      <point x="238" y="431" type="curve" smooth="yes"/>
      <point x="157" y="431"/>
      <point x="102" y="360"/>
      <point x="102" y="257" type="curve" smooth="yes"/>
      <point x="102" y="142"/>
      <point x="166" y="62"/>
      <point x="257" y="62" type="curve" smooth="yes"/>
      <point x="314" y="62"/>
      <point x="350" y="86"/>
      <point x="398" y="156" type="curve"/>
      <point x="412" y="147" type="line"/>
      <point x="360" y="42"/>
      <point x="307" y="-3"/>
      <point x="226" y="-10" type="curve"/>
      <point x="205" y="-65" type="line"/>
      <point x="215" y="-63"/>
      <point x="221" y="-62"/>
      <point x="231" y="-62" type="curve" smooth="yes"/>
      <point x="285" y="-62"/>
      <point x="317" y="-88"/>
      <point x="317" y="-131" type="curve" smooth="yes"/>
      <point x="317" y="-183"/>
      <point x="269" y="-215"/>
      <point x="192" y="-215" type="curve" smooth="yes"/>
      <point x="160" y="-215"/>
      <point x="137" y="-211"/>
      <point x="108" y="-199" type="curve"/>
      <point x="122" y="-168" type="line"/>
      <point x="149" y="-177"/>
      <point x="166" y="-180"/>
      <point x="187" y="-180" type="curve" smooth="yes"/>
      <point x="221" y="-180"/>
      <point x="242" y="-163"/>
      <point x="242" y="-136" type="curve" smooth="yes"/>
      <point x="242" y="-110"/>
      <point x="227" y="-100"/>
      <point x="189" y="-100" type="curve" smooth="yes"/>
      <point x="178" y="-100"/>
      <point x="169" y="-101"/>
      <point x="161" y="-104" type="curve"/>
      <point x="154" y="-99" type="line"/>
      <point x="192" y="-8" type="line"/>
      <point x="91" y="5"/>
      <point x="25" y="93"/>
    </contour>
  </outline>
</glyph>
<glyph name="iacute" format="1">
  <advance width="278"/>
  <unicode hex="00ED"/>
  <outline>
    <contour>
      <point x="16" y="0" type="line"/>
      <point x="16" y="15" type="line"/>
      <point x="85" y="19"/>
      <point x="95" y="30"/>
      <point x="95" y="102" type="curve" smooth="yes"/>
      <point x="95" y="334" type="line" smooth="yes"/>
      <point x="95" y="378"/>
      <point x="86" y="394"/>
      <point x="62" y="394" type="curve" smooth="yes"/>
      <point x="53" y="394"/>
      <point x="40" y="393"/>
      <point x="28" y="391" type="curve" smooth="yes"/>
      <point x="20" y="390" type="line"/>
      <point x="20" y="405" type="line"/>
      <point x="175" y="460" type="line"/>
      <point x="179" y="457" type="line"/>
      <point x="179" y="102" type="line" smooth="yes"/>
      <point x="179" y="30"/>
      <point x="187" y="20"/>
      <point x="253" y="15" type="curve"/>
      <point x="253" y="0" type="line"/>
    </contour>
    <contour>
      <point x="66" y="507" type="line"/>
      <point x="213" y="655" type="line" smooth="yes"/>
      <point x="231" y="673"/>
      <point x="240" y="678"/>
      <point x="255" y="678" type="curve" smooth="yes"/>
      <point x="277" y="678"/>
      <point x="290" y="666"/>
      <point x="290" y="646" type="curve" smooth="yes"/>
      <point x="290" y="630"/>
      <point x="281" y="617"/>
      <point x="260" y="604" type="curve" smooth="yes"/>
      <point x="106" y="507" type="line"/>
    </contour>
  </outline>
</glyph>
<glyph name="ograve" format="1">
  <advance width="500"/>
  <unicode hex="00F2"/>
  <outline>
    <contour>
      <point x="29" y="228" type="curve" smooth="yes"/>
      <point x="29" y="354"/>
      <point x="114" y="460"/>
      <point x="245" y="460" type="curve" smooth="yes"/>
      <point x="384" y="460"/>
      <point x="470" y="365"/>
      <point x="470" y="228" type="curve" smooth="yes"/>
      <point x="470" y="103"/>
      <point x="378" y="-10"/>
      <point x="248" y="-10" type="curve" smooth="yes"/>
      <point x="113" y="-10"/>
      <point x="29" y="99"/>
    </contour>
    <contour>
      <point x="102" y="647" type="curve" smooth="yes"/>
      <point x="102" y="666"/>
      <point x="115" y="678"/>
      <point x="136" y="678" type="curve" smooth="yes"/>
      <point x="151" y="678"/>
      <point x="160" y="673"/>
      <point x="178" y="655" type="curve" smooth="yes"/>
      <point x="325" y="507" type="line"/>
      <point x="285" y="507" type="line"/>
      <point x="131" y="604" type="line" smooth="yes"/>
      <point x="113" y="616"/>
      <point x="102" y="631"/>
    </contour>
    <contour>
      <point x="119" y="276" type="curve" smooth="yes"/>
      <point x="119" y="188"/>
      <point x="147" y="18"/>
      <point x="262" y="18" type="curve" smooth="yes"/>
      <point x="356" y="18"/>
      <point x="380" y="124"/>
      <point x="380" y="199" type="curve" smooth="yes"/>
      <point x="380" y="285"/>
      <point x="348" y="432"/>
      <point x="237" y="432" type="curve" smooth="yes"/>
      <point x="152" y="432"/>
      <point x="119" y="349"/>
    </contour>
  </outline>
</glyph>
<glyph name="divide" format="1">
  <advance width="564"/>
  <unicode hex="00F7"/>
  <outline>
    <contour>
      <point x="30" y="220" type="line"/>
      <point x="30" y="286" type="line"/>
      <point x="534" y="286" type="line"/>
      <point x="534" y="220" type="line"/>
    </contour>
    <contour>
      <point x="227" y="44" type="curve" smooth="yes"/>
      <point x="227" y="75"/>
      <point x="252" y="101"/>
      <point x="282" y="101" type="curve" smooth="yes"/>
      <point x="312" y="101"/>
      <point x="338" y="75"/>
      <point x="338" y="44" type="curve" smooth="yes"/>
      <point x="338" y="15"/>
      <point x="312" y="-10"/>
      <point x="281" y="-10" type="curve" smooth="yes"/>
      <point x="252" y="-10"/>
      <point x="227" y="15"/>
    </contour>
    <contour>
      <point x="227" y="459" type="curve" smooth="yes"/>
      <point x="227" y="490"/>
      <point x="252" y="516"/>
      <point x="282" y="516" type="curve" smooth="yes"/>
      <point x="312" y="516"/>
      <point x="338" y="490"/>
      <point x="338" y="459" type="curve" smooth="yes"/>
      <point x="338" y="430"/>
      <point x="312" y="405"/>
      <point x="281" y="405" type="curve" smooth="yes"/>
      <point x="252" y="405"/>
      <point x="227" y="430"/>
    </contour>
  </outline>
</glyph>
<glyph name="Ccaron" format="1">
  <advance width="667"/>
  <unicode hex="010C"/>
  <outline>
    <contour>
      <point x="28" y="331" type="curve" smooth="yes"/>
      <point x="28" y="529"/>
      <point x="169" y="676"/>
      <point x="368" y="676" type="curve" smooth="yes"/>
      <point x="369" y="676" type="line" smooth="yes"/>
      <point x="466" y="676"/>
      <point x="510" y="643"/>
      <point x="544" y="643" type="curve" smooth="yes"/>
      <point x="567" y="643"/>
      <point x="583" y="653"/>
      <point x="590" y="676" type="curve"/>
      <point x="611" y="676" type="line"/>
      <point x="620" y="451" type="line"/>
      <point x="597" y="451" type="line"/>
      <point x="571" y="562"/>
      <point x="494" y="636"/>
      <point x="377" y="636" type="curve" smooth="yes"/>
      <point x="320" y="636"/>
      <point x="268" y="613"/>
      <point x="227" y="575" type="curve" smooth="yes"/>
      <point x="160" y="513"/>
      <point x="144" y="416"/>
      <point x="144" y="329" type="curve" smooth="yes"/>
      <point x="144" y="174"/>
      <point x="217" y="30"/>
      <point x="389" y="30" type="curve" smooth="yes"/>
      <point x="482" y="30"/>
      <point x="551" y="68"/>
      <point x="615" y="131" type="curve"/>
      <point x="633" y="113" type="line"/>
      <point x="577" y="30"/>
      <point x="458" y="-14"/>
      <point x="362" y="-14" type="curve" smooth="yes"/>
      <point x="155" y="-14"/>
      <point x="28" y="126"/>
    </contour>
    <contour>
      <point x="210" y="886" type="line"/>
      <point x="244" y="886" type="line"/>
      <point x="365" y="783" type="line"/>
      <point x="487" y="886" type="line"/>
      <point x="521" y="886" type="line"/>
      <point x="396" y="719" type="line"/>
      <point x="334" y="719" type="line"/>
    </contour>
  </outline>
</glyph>
<glyph name="ccaron" format="1">
  <advance width="444"/>
  <unicode hex="010D"/>
  <outline>
    <contour>
      <point x="25" y="213" type="curve" smooth="yes"/>
      <point x="25" y="367"/>
      <point x="133" y="460"/>
      <point x="244" y="460" type="curve" smooth="yes"/>
      <point x="328" y="460"/>
      <point x="398" y="413"/>
      <point x="398" y="357" type="curve" smooth="yes"/>
      <point x="398" y="334"/>
      <point x="376" y="315"/>
      <point x="350" y="315" type="curve" smooth="yes"/>
      <point x="329" y="315"/>
      <point x="311" y="333"/>
      <point x="303" y="361" type="curve" smooth="yes"/>
      <point x="297" y="383" type="line" smooth="yes"/>
      <point x="287" y="420"/>
      <point x="274" y="431"/>
      <point x="238" y="431" type="curve" smooth="yes"/>
      <point x="157" y="431"/>
      <point x="102" y="360"/>
      <point x="102" y="257" type="curve" smooth="yes"/>
      <point x="102" y="142"/>
      <point x="166" y="62"/>
      <point x="257" y="62" type="curve" smooth="yes"/>
      <point x="314" y="62"/>
      <point x="350" y="86"/>
      <point x="398" y="156" type="curve"/>
      <point x="412" y="147" type="line"/>
      <point x="391" y="106"/>
      <point x="338" y="-10"/>
      <point x="215" y="-10" type="curve" smooth="yes"/>
      <point x="104" y="-10"/>
      <point x="25" y="83"/>
    </contour>
    <contour>
      <point x="95" y="674" type="line"/>
      <point x="129" y="674" type="line"/>
      <point x="250" y="571" type="line"/>
      <point x="372" y="674" type="line"/>
      <point x="406" y="674" type="line"/>
      <point x="281" y="507" type="line"/>
      <point x="219" y="507" type="line"/>
    </contour>
  </outline>
</glyph>
<glyph name="Dcaron" format="1">
  <advance width="722"/>
  <unicode hex="010E"/>
  <outline>
    <contour>
      <point x="16" y="0" type="line"/>
      <point x="16" y="19" type="line"/>
      <point x="88" y="21"/>
      <point x="104" y="38"/>
      <point x="104" y="109" type="curve" smooth="yes"/>
      <point x="104" y="553" type="line" smooth="yes"/>
      <point x="104" y="627"/>
      <point x="90" y="639"/>
      <point x="16" y="643" type="curve"/>
      <point x="16" y="662" type="line"/>
      <point x="286" y="662" type="line" smooth="yes"/>
      <point x="504" y="662"/>
      <point x="685" y="570"/>
      <point x="685" y="329" type="curve" smooth="yes"/>
      <point x="685" y="105"/>
      <point x="508" y="0"/>
      <point x="300" y="0" type="curve" smooth="yes"/>
    </contour>
    <contour>
      <point x="159" y="886" type="line"/>
      <point x="193" y="886" type="line"/>
      <point x="314" y="783" type="line"/>
      <point x="436" y="886" type="line"/>
      <point x="470" y="886" type="line"/>
      <point x="345" y="719" type="line"/>
      <point x="283" y="719" type="line"/>
    </contour>
    <contour>
      <point x="204" y="78" type="line" smooth="yes"/>
      <point x="204" y="38"/>
      <point x="227" y="37"/>
      <point x="260" y="37" type="curve" smooth="yes"/>
      <point x="266" y="37" type="line" smooth="yes"/>
      <point x="456" y="37"/>
      <point x="576" y="123"/>
      <point x="576" y="328" type="curve"/>
      <point x="574" y="328" type="line"/>
      <point x="574" y="417"/>
      <point x="548" y="494"/>
      <point x="481" y="555" type="curve" smooth="yes"/>
      <point x="415" y="615"/>
      <point x="337" y="625"/>
      <point x="251" y="625" type="curve" smooth="yes"/>
      <point x="218" y="625"/>
      <point x="204" y="619"/>
      <point x="204" y="586" type="curve" smooth="yes"/>
    </contour>
  </outline>
</glyph>
<glyph name="Eogonek" format="1">
  <advance width="611"/>
  <unicode hex="0118"/>
  <outline>
    <contour>
      <point x="12" y="0" type="line"/>
      <point x="12" y="19" type="line"/>
      <point x="85" y="24"/>
      <point x="99" y="38"/>
      <point x="99" y="109" type="curve" smooth="yes"/>
      <point x="99" y="553" type="line" smooth="yes"/>
      <point x="99" y="623"/>
      <point x="86" y="637"/>
      <point x="12" y="643" type="curve"/>
      <point x="12" y="662" type="line"/>
      <point x="543" y="662" type="line"/>
      <point x="546" y="519" type="line"/>
      <point x="521" y="519" type="line"/>
      <point x="504" y="609"/>
      <point x="482" y="624"/>
      <point x="369" y="624" type="curve" smooth="yes"/>
      <point x="234" y="624" type="line" smooth="yes"/>
      <point x="207" y="624"/>
      <point x="201" y="618"/>
      <point x="201" y="590" type="curve" smooth="yes"/>
      <point x="201" y="368" type="line"/>
      <point x="355" y="368" type="line" smooth="yes"/>
      <point x="470" y="368"/>
      <point x="453" y="422"/>
      <point x="465" y="463" type="curve"/>
      <point x="488" y="464" type="line"/>
      <point x="488" y="232" type="line"/>
      <point x="465" y="232" type="line"/>
      <point x="452" y="315"/>
      <point x="437" y="328"/>
      <point x="355" y="328" type="curve" smooth="yes"/>
      <point x="201" y="328" type="line"/>
      <point x="201" y="81" type="line"/>
      <point x="201" y="78" type="line" smooth="yes"/>
      <point x="201" y="51"/>
      <point x="202" y="37"/>
      <point x="306" y="37" type="curve" smooth="yes"/>
      <point x="333" y="37" type="line" smooth="yes"/>
      <point x="476" y="37"/>
      <point x="519" y="61"/>
      <point x="569" y="169" type="curve"/>
      <point x="597" y="169" type="line"/>
      <point x="552" y="0" type="line"/>
      <point x="546" y="0" type="line" smooth="yes"/>
      <point x="516" y="0"/>
      <point x="482" y="-37"/>
      <point x="482" y="-69" type="curve" smooth="yes"/>
      <point x="482" y="-92"/>
      <point x="498" y="-109"/>
      <point x="520" y="-109" type="curve" smooth="yes"/>
      <point x="541" y="-109"/>
      <point x="560" y="-99"/>
      <point x="591" y="-73" type="curve"/>
      <point x="611" y="-89" type="line"/>
      <point x="574" y="-142"/>
      <point x="540" y="-165"/>
      <point x="499" y="-165" type="curve" smooth="yes"/>
      <point x="458" y="-165"/>
      <point x="426" y="-132"/>
      <point x="426" y="-89" type="curve" smooth="yes"/>
      <point x="426" y="-56"/>
      <point x="441" y="-31"/>
      <point x="480" y="0" type="curve"/>
    </contour>
  </outline>
</glyph>
<glyph name="Gcedilla" format="1">
  <advance width="722"/>
  <unicode hex="0122"/>
  <outline>
    <contour>
      <point x="32" y="325" type="curve" smooth="yes"/>
      <point x="32" y="529"/>
      <point x="175" y="676"/>
      <point x="375" y="676" type="curve" smooth="yes"/>
      <point x="475" y="676"/>
      <point x="520" y="643"/>
      <point x="555" y="643" type="curve" smooth="yes"/>
      <point x="576" y="643"/>
      <point x="594" y="657"/>
      <point x="600" y="676" type="curve"/>
      <point x="622" y="676" type="line"/>
      <point x="630" y="465" type="line"/>
      <point x="607" y="465" type="line"/>
      <point x="582" y="526"/>
      <point x="566" y="553"/>
      <point x="536" y="581" type="curve" smooth="yes"/>
      <point x="497" y="617"/>
      <point x="448" y="636"/>
      <point x="392" y="636" type="curve" smooth="yes"/>
      <point x="324" y="636"/>
      <point x="262" y="609"/>
      <point x="218" y="560" type="curve" smooth="yes"/>
      <point x="174" y="511"/>
      <point x="146" y="420"/>
      <point x="146" y="326" type="curve" smooth="yes"/>
      <point x="146" y="140"/>
      <point x="246" y="26"/>
      <point x="409" y="26" type="curve" smooth="yes"/>
      <point x="481" y="26"/>
      <point x="542" y="53"/>
      <point x="542" y="85" type="curve" smooth="yes"/>
      <point x="542" y="247" type="line" smooth="yes"/>
      <point x="542" y="324"/>
      <point x="527" y="331"/>
      <point x="454" y="336" type="curve"/>
      <point x="454" y="354" type="line"/>
      <point x="709" y="354" type="line"/>
      <point x="709" y="336" type="line"/>
      <point x="651" y="331"/>
      <point x="639" y="318"/>
      <point x="639" y="259" type="curve" smooth="yes"/>
      <point x="639" y="56" type="line"/>
      <point x="599" y="21"/>
      <point x="474" y="-14"/>
      <point x="388" y="-14" type="curve" smooth="yes"/>
      <point x="278" y="-14"/>
      <point x="182" y="24"/>
      <point x="115" y="93" type="curve" smooth="yes"/>
      <point x="59" y="152"/>
      <point x="32" y="227"/>
    </contour>
    <contour>
      <point x="316" y="-89" type="curve" smooth="yes"/>
      <point x="316" y="-62"/>
      <point x="338" y="-45"/>
      <point x="364" y="-45" type="curve" smooth="yes"/>
      <point x="401" y="-45"/>
      <point x="428" y="-76"/>
      <point x="428" y="-114" type="curve" smooth="yes"/>
      <point x="428" y="-160"/>
      <point x="396" y="-194"/>
      <point x="340" y="-218" type="curve"/>
      <point x="332" y="-203" type="line"/>
      <point x="356" y="-194"/>
      <point x="396" y="-166"/>
      <point x="396" y="-135" type="curve" smooth="yes"/>
      <point x="396" y="-128"/>
      <point x="392" y="-126"/>
      <point x="386" y="-126" type="curve" smooth="yes"/>
      <point x="384" y="-126"/>
      <point x="380" y="-127"/>
      <point x="376" y="-128" type="curve" smooth="yes"/>
      <point x="371" y="-129"/>
      <point x="368" y="-130"/>
      <point x="364" y="-130" type="curve" smooth="yes"/>
      <point x="338" y="-130"/>
      <point x="316" y="-114"/>
    </contour>
  </outline>
</glyph>
<glyph name="imacron" format="1">
  <advance width="278"/>
  <unicode hex="012B"/>
  <outline>
    <contour>
      <point x="-17" y="547" type="line"/>
      <point x="-17" y="601" type="line"/>
      <point x="294" y="601" type="line"/>
      <point x="294" y="547" type="line"/>
    </contour>
    <contour>
      <point x="16" y="0" type="line"/>
      <point x="16" y="15" type="line"/>
      <point x="85" y="19"/>
      <point x="95" y="30"/>
      <point x="95" y="102" type="curve" smooth="yes"/>
      <point x="95" y="334" type="line" smooth="yes"/>
      <point x="95" y="378"/>
      <point x="86" y="394"/>
      <point x="62" y="394" type="curve" smooth="yes"/>
      <point x="53" y="394"/>
      <point x="40" y="393"/>
      <point x="28" y="391" type="curve" smooth="yes"/>
      <point x="20" y="390" type="line"/>
      <point x="20" y="405" type="line"/>
      <point x="175" y="460" type="line"/>
      <point x="179" y="457" type="line"/>
      <point x="179" y="102" type="line" smooth="yes"/>
      <point x="179" y="30"/>
      <point x="187" y="20"/>
      <point x="253" y="15" type="curve"/>
      <point x="253" y="0" type="line"/>
    </contour>
  </outline>
</glyph>
<glyph name="Iogonek" format="1">
  <advance width="333"/>
  <unicode hex="012E"/>
  <outline>
    <contour>
      <point x="18" y="0" type="line"/>
      <point x="18" y="19" type="line"/>
      <point x="102" y="22"/>
      <point x="115" y="34"/>
      <point x="115" y="109" type="curve" smooth="yes"/>
      <point x="115" y="553" type="line" smooth="yes"/>
      <point x="115" y="627"/>
      <point x="103" y="638"/>
      <point x="18" y="643" type="curve"/>
      <point x="18" y="662" type="line"/>
      <point x="315" y="662" type="line"/>
      <point x="315" y="643" type="line"/>
      <point x="231" y="639"/>
      <point x="217" y="626"/>
      <point x="217" y="553" type="curve" smooth="yes"/>
      <point x="217" y="109" type="line" smooth="yes"/>
      <point x="217" y="36"/>
      <point x="233" y="22"/>
      <point x="315" y="19" type="curve"/>
      <point x="315" y="0" type="line"/>
      <point x="310" y="-1"/>
      <point x="307" y="-4"/>
      <point x="296" y="-13" type="curve" smooth="yes"/>
      <point x="278" y="-32"/>
      <point x="268" y="-51"/>
      <point x="268" y="-70" type="curve" smooth="yes"/>
      <point x="268" y="-92"/>
      <point x="284" y="-109"/>
      <point x="306" y="-109" type="curve" smooth="yes"/>
      <point x="327" y="-109"/>
      <point x="346" y="-99"/>
      <point x="377" y="-73" type="curve"/>
      <point x="397" y="-89" type="line"/>
      <point x="360" y="-142"/>
      <point x="326" y="-165"/>
      <point x="285" y="-165" type="curve" smooth="yes"/>
      <point x="244" y="-165"/>
      <point x="212" y="-132"/>
      <point x="212" y="-89" type="curve" smooth="yes"/>
      <point x="212" y="-56"/>
      <point x="227" y="-31"/>
      <point x="266" y="0" type="curve"/>
    </contour>
  </outline>
</glyph>
<glyph name="Kcedilla" format="1">
  <advance width="700"/>
  <unicode hex="0136"/>
  <outline>
    <contour>
      <point x="12" y="0" type="line"/>
      <point x="12" y="19" type="line"/>
      <point x="91" y="24"/>
      <point x="102" y="37"/>
      <point x="102" y="120" type="curve" smooth="yes"/>
      <point x="102" y="553" type="line" smooth="yes"/>
      <point x="102" y="624"/>
      <point x="90" y="637"/>
      <point x="12" y="643" type="curve"/>
      <point x="12" y="662" type="line"/>
      <point x="296" y="662" type="line"/>
      <point x="296" y="643" type="line"/>
      <point x="215" y="637"/>
      <point x="204" y="626"/>
      <point x="204" y="553" type="curve" smooth="yes"/>
      <point x="204" y="348" type="line"/>
      <point x="381" y="509" type="line" smooth="yes"/>
      <point x="436" y="560"/>
      <point x="459" y="590"/>
      <point x="459" y="612" type="curve" smooth="yes"/>
      <point x="459" y="632"/>
      <point x="447" y="640"/>
      <point x="417" y="642" type="curve" smooth="yes"/>
      <point x="413" y="642"/>
      <point x="403" y="642"/>
      <point x="391" y="643" type="curve"/>
      <point x="391" y="662" type="line"/>
      <point x="653" y="662" type="line"/>
      <point x="653" y="643" type="line"/>
      <point x="585" y="638"/>
      <point x="568" y="631"/>
      <point x="501" y="565" type="curve" smooth="yes"/>
      <point x="311" y="377" type="line"/>
      <point x="544" y="127" type="line" smooth="yes"/>
      <point x="635" y="30"/>
      <point x="649" y="20"/>
      <point x="701" y="19" type="curve"/>
      <point x="701" y="0" type="line"/>
      <point x="396" y="0" type="line"/>
      <point x="396" y="19" type="line"/>
      <point x="408" y="20"/>
      <point x="419" y="20"/>
      <point x="424" y="20" type="curve" smooth="yes"/>
      <point x="452" y="21"/>
      <point x="466" y="28"/>
      <point x="466" y="42" type="curve" smooth="yes"/>
      <point x="466" y="66"/>
      <point x="412" y="137"/>
      <point x="336" y="212" type="curve" smooth="yes"/>
      <point x="230" y="317" type="line"/>
      <point x="204" y="296" type="line"/>
      <point x="204" y="109" type="line" smooth="yes"/>
      <point x="204" y="36"/>
      <point x="216" y="24"/>
      <point x="294" y="19" type="curve"/>
      <point x="294" y="0" type="line"/>
    </contour>
    <contour>
      <point x="284" y="-89" type="curve" smooth="yes"/>
      <point x="284" y="-62"/>
      <point x="306" y="-45"/>
      <point x="332" y="-45" type="curve" smooth="yes"/>
      <point x="369" y="-45"/>
      <point x="396" y="-76"/>
      <point x="396" y="-114" type="curve" smooth="yes"/>
      <point x="396" y="-160"/>
      <point x="364" y="-194"/>
      <point x="308" y="-218" type="curve"/>
      <point x="300" y="-203" type="line"/>
      <point x="324" y="-194"/>
      <point x="364" y="-166"/>
      <point x="364" y="-135" type="curve" smooth="yes"/>
      <point x="364" y="-128"/>
      <point x="360" y="-126"/>
      <point x="354" y="-126" type="curve" smooth="yes"/>
      <point x="352" y="-126"/>
      <point x="348" y="-127"/>
      <point x="344" y="-128" type="curve" smooth="yes"/>
      <point x="339" y="-129"/>
      <point x="336" y="-130"/>
      <point x="332" y="-130" type="curve" smooth="yes"/>
      <point x="306" y="-130"/>
      <point x="284" y="-114"/>
    </contour>
  </outline>
</glyph>
<glyph name="kgreenlandic" format="1">
  <advance width="508"/>
  <unicode hex="0138"/>
  <outline>
    <contour>
      <point x="15" y="0" type="line"/>
      <point x="15" y="15" type="line"/>
      <point x="87" y="27"/>
      <point x="89" y="30"/>
      <point x="90" y="82" type="curve" smooth="yes"/>
      <point x="90" y="368" type="line"/>
      <point x="90" y="370" type="line"/>
      <point x="90" y="380" type="line" smooth="yes"/>
      <point x="90" y="422"/>
      <point x="82" y="425"/>
      <point x="15" y="436" type="curve"/>
      <point x="15" y="451" type="line"/>
      <point x="249" y="451" type="line"/>
      <point x="249" y="436" type="line"/>
      <point x="229" y="435" type="line" smooth="yes"/>
      <point x="189" y="433"/>
      <point x="176" y="419"/>
      <point x="174" y="384" type="curve" smooth="yes"/>
      <point x="174" y="262" type="line"/>
      <point x="311" y="384" type="line" smooth="yes"/>
      <point x="325" y="396"/>
      <point x="334" y="410"/>
      <point x="334" y="418" type="curve" smooth="yes"/>
      <point x="334" y="432"/>
      <point x="323" y="436"/>
      <point x="284" y="437" type="curve"/>
      <point x="284" y="451" type="line"/>
      <point x="488" y="451" type="line"/>
      <point x="488" y="436" type="line"/>
      <point x="480" y="436" type="line" smooth="yes"/>
      <point x="463" y="436"/>
      <point x="449" y="434"/>
      <point x="434" y="430" type="curve" smooth="yes"/>
      <point x="405" y="422"/>
      <point x="343" y="376"/>
      <point x="272" y="310" type="curve" smooth="yes"/>
      <point x="243" y="283" type="line"/>
      <point x="396" y="89" type="line" smooth="yes"/>
      <point x="438" y="38"/>
      <point x="469" y="19"/>
      <point x="513" y="16" type="curve"/>
      <point x="513" y="1" type="line"/>
      <point x="295" y="1" type="line"/>
      <point x="295" y="16" type="line"/>
      <point x="314" y="16" type="line" smooth="yes"/>
      <point x="326" y="16"/>
      <point x="335" y="22"/>
      <point x="335" y="31" type="curve" smooth="yes"/>
      <point x="335" y="41"/>
      <point x="322" y="52"/>
      <point x="314" y="64" type="curve" smooth="yes"/>
      <point x="174" y="251" type="line"/>
      <point x="174" y="67" type="line" smooth="yes"/>
      <point x="174" y="32"/>
      <point x="189" y="18"/>
      <point x="229" y="16" type="curve" smooth="yes"/>
      <point x="249" y="15" type="line"/>
      <point x="249" y="0" type="line"/>
    </contour>
  </outline>
</glyph>
<glyph name="Lcedilla" format="1">
  <advance width="611"/>
  <unicode hex="013B"/>
  <outline>
    <contour>
      <point x="12" y="0" type="line"/>
      <point x="12" y="19" type="line"/>
      <point x="85" y="24"/>
      <point x="99" y="39"/>
      <point x="99" y="109" type="curve" smooth="yes"/>
      <point x="99" y="553" type="line" smooth="yes"/>
      <point x="99" y="623"/>
      <point x="86" y="637"/>
      <point x="12" y="643" type="curve"/>
      <point x="12" y="662" type="line"/>
      <point x="294" y="662" type="line"/>
      <point x="294" y="643" type="line"/>
      <point x="215" y="638"/>
      <point x="201" y="624"/>
      <point x="201" y="553" type="curve" smooth="yes"/>
      <point x="201" y="80" type="line" smooth="yes"/>
      <point x="201" y="45"/>
      <point x="214" y="39"/>
      <point x="287" y="39" type="curve" smooth="yes"/>
      <point x="354" y="39" type="line" smooth="yes"/>
      <point x="437" y="39"/>
      <point x="492" y="57"/>
      <point x="527" y="96" type="curve" smooth="yes"/>
      <point x="542" y="113"/>
      <point x="556" y="136"/>
      <point x="573" y="174" type="curve"/>
      <point x="598" y="174" type="line"/>
      <point x="550" y="0" type="line"/>
    </contour>
    <contour>
      <point x="246" y="-89" type="curve" smooth="yes"/>
      <point x="246" y="-62"/>
      <point x="268" y="-45"/>
      <point x="294" y="-45" type="curve" smooth="yes"/>
      <point x="331" y="-45"/>
      <point x="358" y="-76"/>
      <point x="358" y="-114" type="curve" smooth="yes"/>
      <point x="358" y="-160"/>
      <point x="326" y="-194"/>
      <point x="270" y="-218" type="curve"/>
      <point x="262" y="-203" type="line"/>
      <point x="286" y="-194"/>
      <point x="326" y="-166"/>
      <point x="326" y="-135" type="curve" smooth="yes"/>
      <point x="326" y="-128"/>
      <point x="322" y="-126"/>
      <point x="316" y="-126" type="curve" smooth="yes"/>
      <point x="314" y="-126"/>
      <point x="310" y="-127"/>
      <point x="306" y="-128" type="curve" smooth="yes"/>
      <point x="301" y="-129"/>
      <point x="298" y="-130"/>
      <point x="294" y="-130" type="curve" smooth="yes"/>
      <point x="268" y="-130"/>
      <point x="246" y="-114"/>
    </contour>
  </outline>
</glyph>
<glyph name="lcedilla" format="1">
  <advance width="278"/>
  <unicode hex="013C"/>
  <outline>
    <contour>
      <point x="19" y="623" type="line"/>
      <point x="19" y="639" type="line"/>
      <point x="88" y="656"/>
      <point x="126" y="666"/>
      <point x="178" y="683" type="curve"/>
      <point x="182" y="681" type="line"/>
      <point x="182" y="84" type="line" smooth="yes"/>
      <point x="182" y="29"/>
      <point x="194" y="19"/>
      <point x="257" y="15" type="curve"/>
      <point x="257" y="0" type="line"/>
      <point x="21" y="0" type="line"/>
      <point x="21" y="15" type="line"/>
      <point x="84" y="20"/>
      <point x="98" y="33"/>
      <point x="98" y="87" type="curve" smooth="yes"/>
      <point x="98" y="564" type="line" smooth="yes"/>
      <point x="98" y="611"/>
      <point x="88" y="625"/>
      <point x="56" y="625" type="curve" smooth="yes"/>
      <point x="48" y="625"/>
      <point x="36" y="624"/>
      <point x="25" y="623" type="curve" smooth="yes"/>
    </contour>
    <contour>
      <point x="76" y="-89" type="curve" smooth="yes"/>
      <point x="76" y="-62"/>
      <point x="98" y="-45"/>
      <point x="124" y="-45" type="curve" smooth="yes"/>
      <point x="161" y="-45"/>
      <point x="188" y="-76"/>
      <point x="188" y="-114" type="curve" smooth="yes"/>
      <point x="188" y="-160"/>
      <point x="156" y="-194"/>
      <point x="100" y="-218" type="curve"/>
      <point x="92" y="-203" type="line"/>
      <point x="116" y="-194"/>
      <point x="156" y="-166"/>
      <point x="156" y="-135" type="curve" smooth="yes"/>
      <point x="156" y="-128"/>
      <point x="152" y="-126"/>
      <point x="146" y="-126" type="curve" smooth="yes"/>
      <point x="144" y="-126"/>
      <point x="140" y="-127"/>
      <point x="136" y="-128" type="curve" smooth="yes"/>
      <point x="131" y="-129"/>
      <point x="128" y="-130"/>
      <point x="124" y="-130" type="curve" smooth="yes"/>
      <point x="98" y="-130"/>
      <point x="76" y="-114"/>
    </contour>
  </outline>
</glyph>
<glyph name="Nacute" format="1">
  <advance width="722"/>
  <unicode hex="0143"/>
  <outline>
    <contour>
      <point x="12" y="0" type="line"/>
      <point x="12" y="19" type="line"/>
      <point x="95" y="25"/>
      <point x="109" y="44"/>
      <point x="109" y="147" type="curve" smooth="yes"/>
      <point x="109" y="588" type="line"/>
      <point x="69" y="635"/>
      <point x="55" y="643"/>
      <point x="12" y="643" type="curve"/>
      <point x="12" y="662" type="line"/>
      <point x="183" y="662" type="line"/>
      <point x="568" y="178" type="line"/>
      <point x="568" y="515" type="line" smooth="yes"/>
      <point x="568" y="577"/>
      <point x="559" y="613"/>
      <point x="539" y="627" type="curve" smooth="yes"/>
      <point x="524" y="636"/>
      <point x="510" y="640"/>
      <point x="472" y="643" type="curve"/>
      <point x="472" y="662" type="line"/>
      <point x="707" y="662" type="line"/>
      <point x="707" y="643" type="line"/>
      <point x="669" y="639"/>
      <point x="655" y="635"/>
      <point x="641" y="625" type="curve" smooth="yes"/>
      <point x="622" y="612"/>
      <point x="612" y="575"/>
      <point x="612" y="515" type="curve" smooth="yes"/>
      <point x="612" y="-11" type="line"/>
      <point x="595" y="-11" type="line"/>
      <point x="153" y="539" type="line"/>
      <point x="153" y="147" type="line" smooth="yes"/>
      <point x="153" y="46"/>
      <point x="170" y="23"/>
      <point x="247" y="19" type="curve"/>
      <point x="247" y="0" type="line"/>
    </contour>
    <contour>
      <point x="288" y="719" type="line"/>
      <point x="435" y="867" type="line" smooth="yes"/>
      <point x="453" y="885"/>
      <point x="462" y="890"/>
      <point x="477" y="890" type="curve" smooth="yes"/>
      <point x="499" y="890"/>
      <point x="512" y="878"/>
      <point x="512" y="858" type="curve" smooth="yes"/>
      <point x="512" y="842"/>
      <point x="503" y="829"/>
      <point x="482" y="816" type="curve" smooth="yes"/>
      <point x="328" y="719" type="line"/>
    </contour>
  </outline>
</glyph>
<glyph name="Ncedilla" format="1">
  <advance width="722"/>
  <unicode hex="0145"/>
  <outline>
    <contour>
      <point x="12" y="0" type="line"/>
      <point x="12" y="19" type="line"/>
      <point x="95" y="25"/>
      <point x="109" y="44"/>
      <point x="109" y="147" type="curve" smooth="yes"/>
      <point x="109" y="588" type="line"/>
      <point x="69" y="635"/>
      <point x="55" y="643"/>
      <point x="12" y="643" type="curve"/>
      <point x="12" y="662" type="line"/>
      <point x="183" y="662" type="line"/>
      <point x="568" y="178" type="line"/>
      <point x="568" y="515" type="line" smooth="yes"/>
      <point x="568" y="577"/>
      <point x="559" y="613"/>
      <point x="539" y="627" type="curve" smooth="yes"/>
      <point x="524" y="636"/>
      <point x="510" y="640"/>
      <point x="472" y="643" type="curve"/>
      <point x="472" y="662" type="line"/>
      <point x="707" y="662" type="line"/>
      <point x="707" y="643" type="line"/>
      <point x="669" y="639"/>
      <point x="655" y="635"/>
      <point x="641" y="625" type="curve" smooth="yes"/>
      <point x="622" y="612"/>
      <point x="612" y="575"/>
      <point x="612" y="515" type="curve" smooth="yes"/>
      <point x="612" y="-11" type="line"/>
      <point x="595" y="-11" type="line"/>
      <point x="153" y="539" type="line"/>
      <point x="153" y="147" type="line" smooth="yes"/>
      <point x="153" y="46"/>
      <point x="170" y="23"/>
      <point x="247" y="19" type="curve"/>
      <point x="247" y="0" type="line"/>
    </contour>
    <contour>
      <point x="304" y="-89" type="curve" smooth="yes"/>
      <point x="304" y="-62"/>
      <point x="326" y="-45"/>
      <point x="352" y="-45" type="curve" smooth="yes"/>
      <point x="389" y="-45"/>
      <point x="416" y="-76"/>
      <point x="416" y="-114" type="curve" smooth="yes"/>
      <point x="416" y="-160"/>
      <point x="384" y="-194"/>
      <point x="328" y="-218" type="curve"/>
      <point x="320" y="-203" type="line"/>
      <point x="344" y="-194"/>
      <point x="384" y="-166"/>
      <point x="384" y="-135" type="curve" smooth="yes"/>
      <point x="384" y="-128"/>
      <point x="380" y="-126"/>
      <point x="374" y="-126" type="curve" smooth="yes"/>
      <point x="372" y="-126"/>
      <point x="368" y="-127"/>
      <point x="364" y="-128" type="curve" smooth="yes"/>
      <point x="359" y="-129"/>
      <point x="356" y="-130"/>
      <point x="352" y="-130" type="curve" smooth="yes"/>
      <point x="326" y="-130"/>
      <point x="304" y="-114"/>
    </contour>
  </outline>
</glyph>
<glyph name="ncedilla" format="1">
  <advance width="500"/>
  <unicode hex="0146"/>
  <outline>
    <contour>
      <point x="16" y="0" type="line"/>
      <point x="16" y="15" type="line"/>
      <point x="68" y="21"/>
      <point x="80" y="32"/>
      <point x="80" y="88" type="curve" smooth="yes"/>
      <point x="80" y="338" type="line" smooth="yes"/>
      <point x="80" y="387"/>
      <point x="71" y="402"/>
      <point x="43" y="402" type="curve" smooth="yes"/>
      <point x="32" y="402"/>
      <point x="22" y="401"/>
      <point x="16" y="398" type="curve"/>
      <point x="16" y="415" type="line"/>
      <point x="71" y="431"/>
      <point x="105" y="442"/>
      <point x="154" y="460" type="curve"/>
      <point x="161" y="458" type="line"/>
      <point x="161" y="379" type="line"/>
      <point x="229" y="443"/>
      <point x="260" y="460"/>
      <point x="306" y="460" type="curve" smooth="yes"/>
      <point x="380" y="460"/>
      <point x="424" y="404"/>
      <point x="424" y="310" type="curve" smooth="yes"/>
      <point x="424" y="88" type="line" smooth="yes"/>
      <point x="424" y="32"/>
      <point x="436" y="21"/>
      <point x="488" y="15" type="curve"/>
      <point x="488" y="0" type="line"/>
      <point x="276" y="0" type="line"/>
      <point x="276" y="15" type="line"/>
      <point x="328" y="21"/>
      <point x="340" y="32"/>
      <point x="340" y="88" type="curve" smooth="yes"/>
      <point x="340" y="308" type="line" smooth="yes"/>
      <point x="340" y="374"/>
      <point x="316" y="405"/>
      <point x="267" y="405" type="curve" smooth="yes"/>
      <point x="234" y="405"/>
      <point x="212" y="393"/>
      <point x="164" y="348" type="curve"/>
      <point x="164" y="88" type="line" smooth="yes"/>
      <point x="164" y="32"/>
      <point x="176" y="21"/>
      <point x="228" y="15" type="curve"/>
      <point x="228" y="0" type="line"/>
    </contour>
    <contour>
      <point x="192" y="-89" type="curve" smooth="yes"/>
      <point x="192" y="-62"/>
      <point x="214" y="-45"/>
      <point x="240" y="-45" type="curve" smooth="yes"/>
      <point x="277" y="-45"/>
      <point x="304" y="-76"/>
      <point x="304" y="-114" type="curve" smooth="yes"/>
      <point x="304" y="-160"/>
      <point x="272" y="-194"/>
      <point x="216" y="-218" type="curve"/>
      <point x="208" y="-203" type="line"/>
      <point x="232" y="-194"/>
      <point x="272" y="-166"/>
      <point x="272" y="-135" type="curve" smooth="yes"/>
      <point x="272" y="-128"/>
      <point x="268" y="-126"/>
      <point x="262" y="-126" type="curve" smooth="yes"/>
      <point x="260" y="-126"/>
      <point x="256" y="-127"/>
      <point x="252" y="-128" type="curve" smooth="yes"/>
      <point x="247" y="-129"/>
      <point x="244" y="-130"/>
      <point x="240" y="-130" type="curve" smooth="yes"/>
      <point x="214" y="-130"/>
      <point x="192" y="-114"/>
    </contour>
  </outline>
</glyph>
<glyph name="napostrophe" format="1">
  <advance width="564"/>
  <unicode hex="0149"/>
  <outline>
    <contour>
      <point x="8" y="670" type="curve" smooth="yes"/>
      <point x="8" y="703"/>
      <point x="34" y="727"/>
      <point x="67" y="727" type="curve" smooth="yes"/>
      <point x="112" y="727"/>
      <point x="146" y="688"/>
      <point x="146" y="638" type="curve" smooth="yes"/>
      <point x="146" y="575"/>
      <point x="104" y="532"/>
      <point x="34" y="507" type="curve"/>
      <point x="25" y="526" type="line"/>
      <point x="80" y="548"/>
      <point x="107" y="577"/>
      <point x="107" y="609" type="curve" smooth="yes"/>
      <point x="107" y="617"/>
      <point x="101" y="623"/>
      <point x="93" y="623" type="curve" smooth="yes"/>
      <point x="92" y="623"/>
      <point x="88" y="623"/>
      <point x="81" y="621" type="curve" smooth="yes"/>
      <point x="75" y="620"/>
      <point x="73" y="619"/>
      <point x="67" y="619" type="curve" smooth="yes"/>
      <point x="34" y="619"/>
      <point x="8" y="638"/>
    </contour>
    <contour>
      <point x="79" y="0" type="line"/>
      <point x="79" y="15" type="line"/>
      <point x="131" y="21"/>
      <point x="143" y="32"/>
      <point x="143" y="88" type="curve" smooth="yes"/>
      <point x="143" y="338" type="line" smooth="yes"/>
      <point x="143" y="387"/>
      <point x="134" y="402"/>
      <point x="106" y="402" type="curve" smooth="yes"/>
      <point x="95" y="402"/>
      <point x="85" y="401"/>
      <point x="79" y="398" type="curve"/>
      <point x="79" y="415" type="line"/>
      <point x="134" y="431"/>
      <point x="168" y="442"/>
      <point x="217" y="460" type="curve"/>
      <point x="224" y="458" type="line"/>
      <point x="224" y="379" type="line"/>
      <point x="292" y="443"/>
      <point x="323" y="460"/>
      <point x="369" y="460" type="curve" smooth="yes"/>
      <point x="443" y="460"/>
      <point x="487" y="404"/>
      <point x="487" y="310" type="curve" smooth="yes"/>
      <point x="487" y="88" type="line" smooth="yes"/>
      <point x="487" y="32"/>
      <point x="499" y="21"/>
      <point x="551" y="15" type="curve"/>
      <point x="551" y="0" type="line"/>
      <point x="339" y="0" type="line"/>
      <point x="339" y="15" type="line"/>
      <point x="391" y="21"/>
      <point x="403" y="32"/>
      <point x="403" y="88" type="curve" smooth="yes"/>
      <point x="403" y="308" type="line" smooth="yes"/>
      <point x="403" y="374"/>
      <point x="379" y="405"/>
      <point x="330" y="405" type="curve" smooth="yes"/>
      <point x="297" y="405"/>
      <point x="275" y="393"/>
      <point x="227" y="348" type="curve"/>
      <point x="227" y="88" type="line" smooth="yes"/>
      <point x="227" y="32"/>
      <point x="239" y="21"/>
      <point x="291" y="15" type="curve"/>
      <point x="291" y="0" type="line"/>
    </contour>
  </outline>
</glyph>
<glyph name="Ohungarumlaut" format="1">
  <advance width="722"/>
  <unicode hex="0150"/>
  <outline>
    <contour>
      <point x="34" y="330" type="curve" smooth="yes"/>
      <point x="34" y="524"/>
      <point x="162" y="676"/>
      <point x="361" y="676" type="curve" smooth="yes"/>
      <point x="560" y="676"/>
      <point x="688" y="524"/>
      <point x="688" y="330" type="curve" smooth="yes"/>
      <point x="688" y="136"/>
      <point x="560" y="-14"/>
      <point x="361" y="-14" type="curve" smooth="yes"/>
      <point x="162" y="-14"/>
      <point x="34" y="136"/>
    </contour>
    <contour>
      <point x="148" y="331" type="curve" smooth="yes"/>
      <point x="148" y="195"/>
      <point x="195" y="22"/>
      <point x="361" y="22" type="curve" smooth="yes"/>
      <point x="527" y="22"/>
      <point x="574" y="195"/>
      <point x="574" y="331" type="curve" smooth="yes"/>
      <point x="574" y="465"/>
      <point x="525" y="640"/>
      <point x="361" y="640" type="curve" smooth="yes"/>
      <point x="197" y="640"/>
      <point x="148" y="465"/>
    </contour>
    <contour>
      <point x="210" y="719" type="line"/>
      <point x="357" y="867" type="line" smooth="yes"/>
      <point x="375" y="885"/>
      <point x="384" y="890"/>
      <point x="399" y="890" type="curve" smooth="yes"/>
      <point x="421" y="890"/>
      <point x="434" y="878"/>
      <point x="434" y="858" type="curve" smooth="yes"/>
      <point x="434" y="842"/>
      <point x="425" y="829"/>
      <point x="404" y="816" type="curve" smooth="yes"/>
      <point x="250" y="719" type="line"/>
    </contour>
    <contour>
      <point x="366" y="719" type="line"/>
      <point x="513" y="867" type="line" smooth="yes"/>
      <point x="531" y="885"/>
      <point x="540" y="890"/>
      <point x="555" y="890" type="curve" smooth="yes"/>
      <point x="577" y="890"/>
      <point x="590" y="878"/>
      <point x="590" y="858" type="curve" smooth="yes"/>
      <point x="590" y="842"/>
      <point x="581" y="829"/>
      <point x="560" y="816" type="curve" smooth="yes"/>
      <point x="406" y="719" type="line"/>
    </contour>
  </outline>
</glyph>
<glyph name="ohungarumlaut" format="1">
  <advance width="500"/>
  <unicode hex="0151"/>
  <outline>
    <contour>
      <point x="29" y="228" type="curve" smooth="yes"/>
      <point x="29" y="354"/>
      <point x="114" y="460"/>
      <point x="245" y="460" type="curve" smooth="yes"/>
      <point x="384" y="460"/>
      <point x="470" y="365"/>
      <point x="470" y="228" type="curve" smooth="yes"/>
      <point x="470" y="103"/>
      <point x="378" y="-10"/>
      <point x="248" y="-10" type="curve" smooth="yes"/>
      <point x="113" y="-10"/>
      <point x="29" y="99"/>
    </contour>
    <contour>
      <point x="99" y="507" type="line"/>
      <point x="246" y="655" type="line" smooth="yes"/>
      <point x="264" y="673"/>
      <point x="273" y="678"/>
      <point x="288" y="678" type="curve" smooth="yes"/>
      <point x="310" y="678"/>
      <point x="323" y="666"/>
      <point x="323" y="646" type="curve" smooth="yes"/>
      <point x="323" y="630"/>
      <point x="314" y="617"/>
      <point x="293" y="604" type="curve" smooth="yes"/>
      <point x="139" y="507" type="line"/>
    </contour>
    <contour>
      <point x="119" y="276" type="curve" smooth="yes"/>
      <point x="119" y="188"/>
      <point x="147" y="18"/>
      <point x="262" y="18" type="curve" smooth="yes"/>
      <point x="356" y="18"/>
      <point x="380" y="124"/>
      <point x="380" y="199" type="curve" smooth="yes"/>
      <point x="380" y="285"/>
      <point x="348" y="432"/>
      <point x="237" y="432" type="curve" smooth="yes"/>
      <point x="152" y="432"/>
      <point x="119" y="349"/>
    </contour>
    <contour>
      <point x="255" y="507" type="line"/>
      <point x="402" y="655" type="line" smooth="yes"/>
      <point x="420" y="673"/>
      <point x="429" y="678"/>
      <point x="444" y="678" type="curve" smooth="yes"/>
      <point x="466" y="678"/>
      <point x="479" y="666"/>
      <point x="479" y="646" type="curve" smooth="yes"/>
      <point x="479" y="630"/>
      <point x="470" y="617"/>
      <point x="449" y="604" type="curve" smooth="yes"/>
      <point x="295" y="507" type="line"/>
    </contour>
  </outline>
</glyph>
<glyph name="oe" format="1">
  <advance width="722"/>
  <unicode hex="0153"/>
  <outline>
    <contour>
      <point x="30" y="221" type="curve" smooth="yes"/>
      <point x="30" y="343"/>
      <point x="102" y="460"/>
      <point x="235" y="460" type="curve" smooth="yes"/>
      <point x="295" y="460"/>
      <point x="347" y="430"/>
      <point x="384" y="384" type="curve"/>
      <point x="419" y="431"/>
      <point x="453" y="460"/>
      <point x="515" y="460" type="curve" smooth="yes"/>
      <point x="621" y="460"/>
      <point x="674" y="376"/>
      <point x="674" y="277" type="curve"/>
      <point x="420" y="277" type="line"/>
      <point x="423" y="193"/>
      <point x="440" y="57"/>
      <point x="551" y="57" type="curve" smooth="yes"/>
      <point x="608" y="57"/>
      <point x="649" y="102"/>
      <point x="679" y="145" type="curve"/>
      <point x="690" y="139" type="line"/>
      <point x="655" y="64"/>
      <point x="605" y="-10"/>
      <point x="513" y="-10" type="curve" smooth="yes"/>
      <point x="446" y="-10"/>
      <point x="407" y="25"/>
      <point x="383" y="85" type="curve"/>
      <point x="354" y="27"/>
      <point x="306" y="-10"/>
      <point x="240" y="-10" type="curve" smooth="yes"/>
      <point x="105" y="-10"/>
      <point x="30" y="93"/>
    </contour>
    <contour>
      <point x="120" y="281" type="curve" smooth="yes"/>
      <point x="120" y="200"/>
      <point x="124" y="16"/>
      <point x="239" y="16" type="curve" smooth="yes"/>
      <point x="335" y="16"/>
      <point x="343" y="135"/>
      <point x="343" y="206" type="curve" smooth="yes"/>
      <point x="343" y="282"/>
      <point x="330" y="431"/>
      <point x="227" y="431" type="curve" smooth="yes"/>
      <point x="146" y="431"/>
      <point x="120" y="348"/>
    </contour>
    <contour>
      <point x="419" y="307" type="curve"/>
      <point x="579" y="307" type="line"/>
      <point x="579" y="334" type="line" smooth="yes"/>
      <point x="579" y="390"/>
      <point x="546" y="431"/>
      <point x="500" y="431" type="curve" smooth="yes"/>
      <point x="447" y="431"/>
      <point x="420" y="390"/>
    </contour>
  </outline>
</glyph>
<glyph name="Rcedilla" format="1">
  <advance width="662"/>
  <unicode hex="0156"/>
  <outline>
    <contour>
      <point x="12" y="0" type="line"/>
      <point x="12" y="19" type="line"/>
      <point x="87" y="25"/>
      <point x="97" y="37"/>
      <point x="97" y="120" type="curve" smooth="yes"/>
      <point x="97" y="553" type="line" smooth="yes"/>
      <point x="97" y="624"/>
      <point x="87" y="635"/>
      <point x="12" y="643" type="curve"/>
      <point x="12" y="662" type="line"/>
      <point x="288" y="662" type="line" smooth="yes"/>
      <point x="382" y="662"/>
      <point x="542" y="638"/>
      <point x="542" y="486" type="curve" smooth="yes"/>
      <point x="542" y="362"/>
      <point x="428" y="332"/>
      <point x="361" y="319" type="curve"/>
      <point x="567" y="66" type="line" smooth="yes"/>
      <point x="596" y="32"/>
      <point x="616" y="22"/>
      <point x="654" y="19" type="curve"/>
      <point x="654" y="0" type="line"/>
      <point x="493" y="0" type="line"/>
      <point x="255" y="308" type="line"/>
      <point x="199" y="306" type="line"/>
      <point x="199" y="109" type="line" smooth="yes"/>
      <point x="199" y="37"/>
      <point x="212" y="24"/>
      <point x="289" y="19" type="curve"/>
      <point x="289" y="0" type="line"/>
    </contour>
    <contour>
      <point x="199" y="343" type="line"/>
      <point x="295" y="345"/>
      <point x="433" y="346"/>
      <point x="433" y="488" type="curve" smooth="yes"/>
      <point x="433" y="582"/>
      <point x="375" y="625"/>
      <point x="250" y="625" type="curve" smooth="yes"/>
      <point x="210" y="625"/>
      <point x="199" y="617"/>
      <point x="199" y="589" type="curve" smooth="yes"/>
    </contour>
    <contour>
      <point x="284" y="-89" type="curve" smooth="yes"/>
      <point x="284" y="-62"/>
      <point x="306" y="-45"/>
      <point x="332" y="-45" type="curve" smooth="yes"/>
      <point x="369" y="-45"/>
      <point x="396" y="-76"/>
      <point x="396" y="-114" type="curve" smooth="yes"/>
      <point x="396" y="-160"/>
      <point x="364" y="-194"/>
      <point x="308" y="-218" type="curve"/>
      <point x="300" y="-203" type="line"/>
      <point x="324" y="-194"/>
      <point x="364" y="-166"/>
      <point x="364" y="-135" type="curve" smooth="yes"/>
      <point x="364" y="-128"/>
      <point x="360" y="-126"/>
      <point x="354" y="-126" type="curve" smooth="yes"/>
      <point x="352" y="-126"/>
      <point x="348" y="-127"/>
      <point x="344" y="-128" type="curve" smooth="yes"/>
      <point x="339" y="-129"/>
      <point x="336" y="-130"/>
      <point x="332" y="-130" type="curve" smooth="yes"/>
      <point x="306" y="-130"/>
      <point x="284" y="-114"/>
    </contour>
  </outline>
</glyph>
<glyph name="rcaron" format="1">
  <advance width="333"/>
  <unicode hex="0159"/>
  <outline>
    <contour>
      <point x="16" y="0" type="line"/>
      <point x="16" y="15" type="line"/>
      <point x="80" y="27"/>
      <point x="87" y="34"/>
      <point x="87" y="84" type="curve" smooth="yes"/>
      <point x="87" y="334" type="line" smooth="yes"/>
      <point x="87" y="378"/>
      <point x="78" y="394"/>
      <point x="53" y="394" type="curve" smooth="yes"/>
      <point x="41" y="394"/>
      <point x="32" y="393"/>
      <point x="18" y="390" type="curve"/>
      <point x="18" y="406" type="line"/>
      <point x="77" y="425"/>
      <point x="113" y="438"/>
      <point x="166" y="460" type="curve"/>
      <point x="171" y="458" type="line"/>
      <point x="171" y="366" type="line"/>
      <point x="220" y="437"/>
      <point x="249" y="460"/>
      <point x="291" y="460" type="curve" smooth="yes"/>
      <point x="325" y="460"/>
      <point x="346" y="440"/>
      <point x="346" y="407" type="curve" smooth="yes"/>
      <point x="346" y="379"/>
      <point x="331" y="362"/>
      <point x="307" y="362" type="curve" smooth="yes"/>
      <point x="294" y="362"/>
      <point x="283" y="368"/>
      <point x="267" y="382" type="curve" smooth="yes"/>
      <point x="256" y="392"/>
      <point x="247" y="397"/>
      <point x="241" y="397" type="curve" smooth="yes"/>
      <point x="214" y="397"/>
      <point x="171" y="347"/>
      <point x="171" y="315" type="curve" smooth="yes"/>
      <point x="171" y="90" type="line" smooth="yes"/>
      <point x="171" y="33"/>
      <point x="188" y="18"/>
      <point x="256" y="15" type="curve"/>
      <point x="256" y="0" type="line"/>
    </contour>
    <contour>
      <point x="43" y="674" type="line"/>
      <point x="77" y="674" type="line"/>
      <point x="198" y="571" type="line"/>
      <point x="320" y="674" type="line"/>
      <point x="354" y="674" type="line"/>
      <point x="229" y="507" type="line"/>
      <point x="167" y="507" type="line"/>
    </contour>
  </outline>
</glyph>
<glyph name="Scedilla" format="1">
  <advance width="556"/>
  <unicode hex="015E"/>
  <outline>
    <contour>
      <point x="42" y="199" type="line"/>
      <point x="65" y="199" type="line"/>
      <point x="115" y="77"/>
      <point x="178" y="22"/>
      <point x="267" y="22" type="curve" smooth="yes"/>
      <point x="340" y="22"/>
      <point x="390" y="68"/>
      <point x="390" y="135" type="curve" smooth="yes"/>
      <point x="390" y="159"/>
      <point x="385" y="180"/>
      <point x="376" y="193" type="curve" smooth="yes"/>
      <point x="351" y="231"/>
      <point x="299" y="272"/>
      <point x="227" y="310" type="curve" smooth="yes"/>
      <point x="115" y="369"/>
      <point x="71" y="425"/>
      <point x="71" y="505" type="curve" smooth="yes"/>
      <point x="71" y="557"/>
      <point x="89" y="599"/>
      <point x="124" y="630" type="curve" smooth="yes"/>
      <point x="157" y="659"/>
      <point x="201" y="676"/>
      <point x="244" y="676" type="curve" smooth="yes"/>
      <point x="276" y="676"/>
      <point x="313" y="668"/>
      <point x="350" y="654" type="curve" smooth="yes"/>
      <point x="367" y="646"/>
      <point x="384" y="642"/>
      <point x="394" y="642" type="curve" smooth="yes"/>
      <point x="411" y="642"/>
      <point x="422" y="653"/>
      <point x="426" y="676" type="curve"/>
      <point x="447" y="676" type="line"/>
      <point x="469" y="463" type="line"/>
      <point x="444" y="463" type="line"/>
      <point x="428" y="522"/>
      <point x="414" y="548"/>
      <point x="383" y="580" type="curve" smooth="yes"/>
      <point x="348" y="616"/>
      <point x="306" y="635"/>
      <point x="261" y="635" type="curve" smooth="yes"/>
      <point x="199" y="635"/>
      <point x="157" y="597"/>
      <point x="157" y="542" type="curve" smooth="yes"/>
      <point x="157" y="488"/>
      <point x="199" y="444"/>
      <point x="304" y="386" type="curve" smooth="yes"/>
      <point x="436" y="315"/>
      <point x="491" y="250"/>
      <point x="491" y="168" type="curve" smooth="yes"/>
      <point x="491" y="66"/>
      <point x="403" y="-14"/>
      <point x="289" y="-14" type="curve" smooth="yes"/>
      <point x="280" y="-14" type="line"/>
      <point x="261" y="-65" type="line"/>
      <point x="270" y="-63"/>
      <point x="277" y="-62"/>
      <point x="287" y="-62" type="curve" smooth="yes"/>
      <point x="341" y="-62"/>
      <point x="373" y="-88"/>
      <point x="373" y="-131" type="curve" smooth="yes"/>
      <point x="373" y="-183"/>
      <point x="325" y="-215"/>
      <point x="248" y="-215" type="curve" smooth="yes"/>
      <point x="216" y="-215"/>
      <point x="193" y="-211"/>
      <point x="164" y="-199" type="curve"/>
      <point x="178" y="-168" type="line"/>
      <point x="205" y="-177"/>
      <point x="222" y="-180"/>
      <point x="243" y="-180" type="curve" smooth="yes"/>
      <point x="277" y="-180"/>
      <point x="298" y="-163"/>
      <point x="298" y="-136" type="curve" smooth="yes"/>
      <point x="298" y="-110"/>
      <point x="283" y="-100"/>
      <point x="245" y="-100" type="curve" smooth="yes"/>
      <point x="233" y="-100"/>
      <point x="225" y="-101"/>
      <point x="217" y="-104" type="curve"/>
      <point x="210" y="-99" type="line"/>
      <point x="246" y="-11" type="line"/>
      <point x="218" y="-7"/>
      <point x="195" y="-2"/>
      <point x="169" y="9" type="curve" smooth="yes"/>
      <point x="150" y="16"/>
      <point x="133" y="20"/>
      <point x="122" y="20" type="curve" smooth="yes"/>
      <point x="107" y="20"/>
      <point x="95" y="6"/>
      <point x="94" y="-13" type="curve"/>
      <point x="72" y="-13" type="line"/>
    </contour>
  </outline>
</glyph>
<glyph name="scedilla" format="1">
  <advance width="389"/>
  <unicode hex="015F"/>
  <outline>
    <contour>
      <point x="51" y="336" type="curve" smooth="yes"/>
      <point x="51" y="408"/>
      <point x="108" y="459"/>
      <point x="187" y="459" type="curve" smooth="yes"/>
      <point x="213" y="459"/>
      <point x="235" y="455"/>
      <point x="257" y="447" type="curve" smooth="yes"/>
      <point x="268" y="442"/>
      <point x="278" y="440"/>
      <point x="284" y="440" type="curve" smooth="yes"/>
      <point x="288" y="440"/>
      <point x="289" y="441"/>
      <point x="298" y="448" type="curve" smooth="yes"/>
      <point x="300" y="450" type="line"/>
      <point x="311" y="450" type="line"/>
      <point x="315" y="314" type="line"/>
      <point x="300" y="314" type="line"/>
      <point x="277" y="403"/>
      <point x="247" y="437"/>
      <point x="190" y="437" type="curve" smooth="yes"/>
      <point x="144" y="437"/>
      <point x="113" y="409"/>
      <point x="113" y="369" type="curve" smooth="yes"/>
      <point x="113" y="342"/>
      <point x="128" y="317"/>
      <point x="156" y="301" type="curve" smooth="yes"/>
      <point x="264" y="237" type="line" smooth="yes"/>
      <point x="324" y="201"/>
      <point x="348" y="168"/>
      <point x="348" y="118" type="curve" smooth="yes"/>
      <point x="348" y="49"/>
      <point x="284" y="-10"/>
      <point x="209" y="-10" type="curve" smooth="yes"/>
      <point x="198" y="-10" type="line"/>
      <point x="177" y="-65" type="line"/>
      <point x="187" y="-63"/>
      <point x="193" y="-62"/>
      <point x="203" y="-62" type="curve" smooth="yes"/>
      <point x="257" y="-62"/>
      <point x="289" y="-88"/>
      <point x="289" y="-131" type="curve" smooth="yes"/>
      <point x="289" y="-183"/>
      <point x="241" y="-215"/>
      <point x="164" y="-215" type="curve" smooth="yes"/>
      <point x="132" y="-215"/>
      <point x="109" y="-211"/>
      <point x="80" y="-199" type="curve"/>
      <point x="94" y="-168" type="line"/>
      <point x="122" y="-177"/>
      <point x="138" y="-180"/>
      <point x="159" y="-180" type="curve" smooth="yes"/>
      <point x="193" y="-180"/>
      <point x="214" y="-163"/>
      <point x="214" y="-136" type="curve" smooth="yes"/>
      <point x="214" y="-110"/>
      <point x="199" y="-100"/>
      <point x="161" y="-100" type="curve" smooth="yes"/>
      <point x="150" y="-100"/>
      <point x="141" y="-101"/>
      <point x="133" y="-104" type="curve"/>
      <point x="126" y="-99" type="line"/>
      <point x="165" y="-6" type="line"/>
      <point x="153" y="-4"/>
      <point x="147" y="-3"/>
      <point x="134" y="0" type="curve" smooth="yes"/>
      <point x="110" y="6"/>
      <point x="97" y="8"/>
      <point x="88" y="8" type="curve" smooth="yes"/>
      <point x="76" y="8"/>
      <point x="72" y="6"/>
      <point x="65" y="-4" type="curve"/>
      <point x="52" y="-4" type="line"/>
      <point x="52" y="152" type="line"/>
      <point x="68" y="152" type="line"/>
      <point x="81" y="95"/>
      <point x="90" y="72"/>
      <point x="111" y="47" type="curve" smooth="yes"/>
      <point x="130" y="25"/>
      <point x="161" y="12"/>
      <point x="195" y="12" type="curve" smooth="yes"/>
      <point x="246" y="12"/>
      <point x="278" y="40"/>
      <point x="278" y="84" type="curve" smooth="yes"/>
      <point x="278" y="115"/>
      <point x="261" y="139"/>
      <point x="226" y="159" type="curve" smooth="yes"/>
      <point x="168" y="192" type="line" smooth="yes"/>
      <point x="83" y="240"/>
      <point x="51" y="280"/>
    </contour>
  </outline>
</glyph>
<glyph name="uni0162" format="1">
  <advance width="611"/>
  <unicode hex="0162"/>
  <outline>
    <contour>
      <point x="17" y="492" type="line"/>
      <point x="23" y="662" type="line"/>
      <point x="587" y="662" type="line"/>
      <point x="593" y="492" type="line"/>
      <point x="569" y="492" type="line"/>
      <point x="546" y="602"/>
      <point x="524" y="620"/>
      <point x="410" y="620" type="curve" smooth="yes"/>
      <point x="356" y="620" type="line"/>
      <point x="356" y="109" type="line" smooth="yes"/>
      <point x="356" y="36"/>
      <point x="370" y="23"/>
      <point x="452" y="19" type="curve"/>
      <point x="452" y="0" type="line"/>
      <point x="321" y="0" type="line"/>
      <point x="296" y="-65" type="line"/>
      <point x="306" y="-63"/>
      <point x="312" y="-62"/>
      <point x="322" y="-62" type="curve" smooth="yes"/>
      <point x="376" y="-62"/>
      <point x="408" y="-88"/>
      <point x="408" y="-131" type="curve" smooth="yes"/>
      <point x="408" y="-183"/>
      <point x="360" y="-215"/>
      <point x="283" y="-215" type="curve" smooth="yes"/>
      <point x="251" y="-215"/>
      <point x="228" y="-211"/>
      <point x="199" y="-199" type="curve"/>
      <point x="213" y="-168" type="line"/>
      <point x="241" y="-177"/>
      <point x="257" y="-180"/>
      <point x="278" y="-180" type="curve" smooth="yes"/>
      <point x="312" y="-180"/>
      <point x="333" y="-163"/>
      <point x="333" y="-136" type="curve" smooth="yes"/>
      <point x="333" y="-110"/>
      <point x="318" y="-100"/>
      <point x="280" y="-100" type="curve" smooth="yes"/>
      <point x="269" y="-100"/>
      <point x="260" y="-101"/>
      <point x="252" y="-104" type="curve"/>
      <point x="245" y="-99" type="line"/>
      <point x="286" y="0" type="line"/>
      <point x="160" y="0" type="line"/>
      <point x="160" y="19" type="line"/>
      <point x="243" y="24"/>
      <point x="254" y="35"/>
      <point x="254" y="120" type="curve" smooth="yes"/>
      <point x="254" y="620" type="line"/>
      <point x="200" y="620" type="line" smooth="yes"/>
      <point x="88" y="620"/>
      <point x="65" y="601"/>
      <point x="41" y="492" type="curve"/>
    </contour>
  </outline>
</glyph>
<glyph name="uni0163" format="1">
  <advance width="278"/>
  <unicode hex="0163"/>
  <outline>
    <contour>
      <point x="13" y="425" type="curve" smooth="yes"/>
      <point x="13" y="430"/>
      <point x="19" y="437"/>
      <point x="30" y="444" type="curve"/>
      <point x="59" y="451"/>
      <point x="128" y="554"/>
      <point x="147" y="579" type="curve"/>
      <point x="153" y="579"/>
      <point x="154" y="576"/>
      <point x="154" y="566" type="curve" smooth="yes"/>
      <point x="154" y="450" type="line"/>
      <point x="255" y="450" type="line"/>
      <point x="255" y="417" type="line"/>
      <point x="154" y="417" type="line"/>
      <point x="154" y="131" type="line" smooth="yes"/>
      <point x="154" y="68"/>
      <point x="169" y="41"/>
      <point x="206" y="41" type="curve" smooth="yes"/>
      <point x="228" y="41"/>
      <point x="245" y="51"/>
      <point x="266" y="76" type="curve"/>
      <point x="279" y="65" type="line"/>
      <point x="249" y="17"/>
      <point x="214" y="-7"/>
      <point x="170" y="-10" type="curve"/>
      <point x="149" y="-65" type="line"/>
      <point x="159" y="-63"/>
      <point x="165" y="-62"/>
      <point x="175" y="-62" type="curve" smooth="yes"/>
      <point x="229" y="-62"/>
      <point x="261" y="-88"/>
      <point x="261" y="-131" type="curve" smooth="yes"/>
      <point x="261" y="-183"/>
      <point x="213" y="-215"/>
      <point x="136" y="-215" type="curve" smooth="yes"/>
      <point x="104" y="-215"/>
      <point x="81" y="-211"/>
      <point x="52" y="-199" type="curve"/>
      <point x="66" y="-168" type="line"/>
      <point x="94" y="-177"/>
      <point x="110" y="-180"/>
      <point x="131" y="-180" type="curve" smooth="yes"/>
      <point x="165" y="-180"/>
      <point x="186" y="-163"/>
      <point x="186" y="-136" type="curve" smooth="yes"/>
      <point x="186" y="-110"/>
      <point x="171" y="-100"/>
      <point x="133" y="-100" type="curve" smooth="yes"/>
      <point x="122" y="-100"/>
      <point x="113" y="-101"/>
      <point x="105" y="-104" type="curve"/>
      <point x="98" y="-99" type="line"/>
      <point x="136" y="-7" type="line"/>
      <point x="92" y="3"/>
      <point x="70" y="45"/>
      <point x="70" y="117" type="curve" smooth="yes"/>
      <point x="70" y="418" type="line"/>
      <point x="17" y="418" type="line" smooth="yes"/>
      <point x="14" y="420"/>
      <point x="13" y="422"/>
    </contour>
  </outline>
</glyph>
<glyph name="ycircumflex" format="1">
  <advance width="500"/>
  <unicode hex="0177"/>
  <outline>
    <contour>
      <point x="13" y="436" type="curve"/>
      <point x="13" y="450" type="line"/>
      <point x="219" y="450" type="line"/>
      <point x="219" y="435" type="line"/>
      <point x="176" y="433"/>
      <point x="161" y="426"/>
      <point x="161" y="408" type="curve" smooth="yes"/>
      <point x="161" y="397"/>
      <point x="165" y="384"/>
      <point x="171" y="370" type="curve" smooth="yes"/>
      <point x="286" y="117" type="line"/>
      <point x="383" y="393" type="line" smooth="yes"/>
      <point x="386" y="400"/>
      <point x="387" y="406"/>
      <point x="387" y="410" type="curve" smooth="yes"/>
      <point x="387" y="426"/>
      <point x="371" y="435"/>
      <point x="339" y="435" type="curve"/>
      <point x="339" y="450" type="line"/>
      <point x="474" y="450" type="line"/>
      <point x="474" y="435" type="line"/>
      <point x="450" y="432"/>
      <point x="439" y="422"/>
      <point x="426" y="390" type="curve" smooth="yes"/>
      <point x="272" y="-18" type="line" smooth="yes"/>
      <point x="218" y="-162"/>
      <point x="170" y="-218"/>
      <point x="103" y="-218" type="curve" smooth="yes"/>
      <point x="61" y="-218"/>
      <point x="29" y="-193"/>
      <point x="29" y="-160" type="curve" smooth="yes"/>
      <point x="29" y="-136"/>
      <point x="49" y="-116"/>
      <point x="72" y="-116" type="curve" smooth="yes"/>
      <point x="110" y="-116"/>
      <point x="134" y="-134"/>
      <point x="151" y="-134" type="curve" smooth="yes"/>
      <point x="165" y="-134"/>
      <point x="187" y="-115"/>
      <point x="201" y="-89" type="curve" smooth="yes"/>
      <point x="217" y="-61"/>
      <point x="241" y="-10"/>
      <point x="241" y="22" type="curve" smooth="yes"/>
      <point x="241" y="33"/>
      <point x="231" y="50"/>
      <point x="225" y="65" type="curve" smooth="yes"/>
      <point x="65" y="404" type="line"/>
      <point x="64" y="404" type="line"/>
      <point x="56" y="421"/>
      <point x="39" y="432"/>
    </contour>
    <contour>
      <point x="106" y="507" type="line"/>
      <point x="230" y="674" type="line"/>
      <point x="292" y="674" type="line"/>
      <point x="417" y="507" type="line"/>
      <point x="383" y="507" type="line"/>
      <point x="261" y="610" type="line"/>
      <point x="140" y="507" type="line"/>
    </contour>
  </outline>
</glyph>
<glyph name="zacute" format="1">
  <advance width="444"/>
  <unicode hex="017A"/>
  <outline>
    <contour>
      <point x="27" y="0" type="line"/>
      <point x="27" y="15" type="line"/>
      <point x="293" y="420" type="line"/>
      <point x="155" y="420" type="line" smooth="yes"/>
      <point x="95" y="420"/>
      <point x="80" y="405"/>
      <point x="71" y="332" type="curve"/>
      <point x="53" y="332" type="line"/>
      <point x="56" y="450" type="line"/>
      <point x="403" y="450" type="line"/>
      <point x="403" y="435" type="line"/>
      <point x="134" y="30" type="line"/>
      <point x="272" y="30" type="line" smooth="yes"/>
      <point x="323" y="30"/>
      <point x="357" y="39"/>
      <point x="371" y="56" type="curve" smooth="yes"/>
      <point x="384" y="73"/>
      <point x="390" y="89"/>
      <point x="400" y="139" type="curve"/>
      <point x="418" y="135" type="line"/>
      <point x="404" y="0" type="line"/>
    </contour>
    <contour>
      <point x="149" y="507" type="line"/>
      <point x="296" y="655" type="line" smooth="yes"/>
      <point x="314" y="673"/>
      <point x="323" y="678"/>
      <point x="338" y="678" type="curve" smooth="yes"/>
      <point x="360" y="678"/>
      <point x="373" y="666"/>
      <point x="373" y="646" type="curve" smooth="yes"/>
      <point x="373" y="630"/>
      <point x="364" y="617"/>
      <point x="343" y="604" type="curve" smooth="yes"/>
      <point x="189" y="507" type="line"/>
    </contour>
  </outline>
</glyph>
<glyph name="longs" format="2">
  <advance width="333"/>
  <unicode hex="017F"/>
  <outline>
    <contour>
      <point x="20" y="0" type="line"/>
      <point x="20" y="15" type="line"/>
      <point x="92" y="19"/>
      <point x="103" y="31"/>
      <point x="103" y="104" type="curve" smooth="yes"/>
      <point x="103" y="418" type="line"/>
      <point x="21" y="418" type="line"/>
      <point x="21" y="450" type="line"/>
      <point x="103" y="450" type="line"/>
      <point x="103.478" y="567.762"/>
      <point x="128.284" y="683"/>
      <point x="242.877" y="683" type="curve" smooth="yes"/>
      <point x="280.338" y="683"/>
      <point x="317.933" y="657"/>
      <point x="317.933" y="621" type="curve" smooth="yes"/>
      <point x="317.933" y="598"/>
      <point x="301.958" y="580"/>
      <point x="277.162" y="580" type="curve" smooth="yes"/>
      <point x="257.727" y="580"/>
      <point x="246.392" y="591.058"/>
      <point x="246.392" y="611.771" type="curve" smooth="yes"/>
      <point x="246.392" y="628.444"/>
      <point x="254.529" y="634.885"/>
      <point x="255.372" y="643.285" type="curve"/>
      <point x="255.372" y="650.412"/>
      <point x="250.526" y="655"/>
      <point x="237.878" y="655" type="curve" smooth="yes"/>
      <point x="205" y="655"/>
      <point x="187" y="624"/>
      <point x="187" y="566" type="curve" smooth="yes"/>
      <point x="187" y="104" type="line" smooth="yes"/>
      <point x="187" y="29"/>
      <point x="198" y="18"/>
      <point x="280" y="15" type="curve"/>
      <point x="280" y="0" type="line"/>
    </contour>
  </outline>
</glyph>
<glyph name="florin" format="2">
  <advance width="500"/>
  <unicode hex="0192"/>
  <outline>
    <contour>
      <point x="7" y="-122.474" type="curve" smooth="yes"/>
      <point x="7" y="-94"/>
      <point x="26" y="-75"/>
      <point x="50.6486" y="-75" type="curve" smooth="yes"/>
      <point x="75" y="-75"/>
      <point x="89" y="-93.5446"/>
      <point x="89" y="-115.544" type="curve" smooth="yes"/>
      <point x="89" y="-128.97"/>
      <point x="83.7852" y="-142.494"/>
      <point x="74" y="-152" type="curve"/>
      <point x="75.9625" y="-159.674"/>
      <point x="83" y="-165"/>
      <point x="97.5412" y="-165" type="curve" smooth="yes"/>
      <point x="140" y="-165"/>
      <point x="162.607" y="-113.845"/>
      <point x="177" y="9" type="curve" smooth="yes"/>
      <point x="220" y="376" type="line"/>
      <point x="106" y="376" type="line"/>
      <point x="116" y="407" type="line"/>
      <point x="224" y="407" type="line"/>
      <point x="238.229" y="504.076"/>
      <point x="276.01" y="676"/>
      <point x="398.964" y="676" type="curve" smooth="yes"/>
      <point x="452" y="676"/>
      <point x="490" y="644.012"/>
      <point x="490" y="608.306" type="curve" smooth="yes"/>
      <point x="490" y="581.762"/>
      <point x="469" y="562"/>
      <point x="444" y="562" type="curve" smooth="yes"/>
      <point x="421.016" y="562"/>
      <point x="406" y="577.81"/>
      <point x="406" y="598.152" type="curve" smooth="yes"/>
      <point x="406" y="608.234"/>
      <point x="409.688" y="621.058"/>
      <point x="419" y="633.143" type="curve"/>
      <point x="416.586" y="639.431"/>
      <point x="409.662" y="645"/>
      <point x="395.599" y="645" type="curve" smooth="yes"/>
      <point x="331.604" y="645"/>
      <point x="318.521" y="529.676"/>
      <point x="314" y="482.513" type="curve" smooth="yes"/>
      <point x="306" y="407" type="line"/>
      <point x="432" y="407" type="line"/>
      <point x="422" y="376" type="line"/>
      <point x="302" y="376" type="line"/>
      <point x="283.18" y="218.02" type="line" smooth="yes"/>
      <point x="270.707" y="113.328"/>
      <point x="226.323" y="-189"/>
      <point x="84.0606" y="-189" type="curve" smooth="yes"/>
      <point x="40" y="-189"/>
      <point x="7" y="-160"/>
    </contour>
  </outline>
</glyph>
<glyph name="ohorn" format="2">
  <advance width="500"/>
  <unicode hex="01A1"/>
  <outline>
    <contour>
      <point x="356.127" y="395.841" type="line"/>
      <point x="355.997" y="399.55"/>
      <point x="355.659" y="409.184"/>
      <point x="355.595" y="411" type="curve"/>
      <point x="362.264" y="413.058"/>
      <point x="382.425" y="419.28"/>
      <point x="388" y="421" type="curve" smooth="yes"/>
      <point x="416.756" y="429.874"/>
      <point x="440.463" y="446.455"/>
      <point x="445.25" y="460.228" type="curve"/>
      <point x="411.759" y="469.408"/>
      <point x="393" y="489.713"/>
      <point x="393" y="516.784" type="curve" smooth="yes"/>
      <point x="393" y="543.613"/>
      <point x="413.581" y="564"/>
      <point x="444.147" y="564" type="curve" smooth="yes"/>
      <point x="475.599" y="564"/>
      <point x="497" y="542.413"/>
      <point x="497" y="505.457" type="curve" smooth="yes"/>
      <point x="497" y="457.677"/>
      <point x="461.227" y="420.745"/>
      <point x="399" y="406" type="curve" smooth="yes"/>
    </contour>
    <contour>
      <point x="29" y="225" type="curve" smooth="yes"/>
      <point x="29" y="365"/>
      <point x="115" y="460"/>
      <point x="245" y="460" type="curve" smooth="yes"/>
      <point x="375" y="460"/>
      <point x="461" y="365"/>
      <point x="461" y="225" type="curve" smooth="yes"/>
      <point x="461" y="85"/>
      <point x="375" y="-10"/>
      <point x="245" y="-10" type="curve" smooth="yes"/>
      <point x="115" y="-10"/>
      <point x="29" y="85"/>
    </contour>
    <contour>
      <point x="119" y="225" type="curve" smooth="yes"/>
      <point x="119" y="105"/>
      <point x="165" y="18"/>
      <point x="245" y="18" type="curve" smooth="yes"/>
      <point x="325" y="18"/>
      <point x="371" y="105"/>
      <point x="371" y="225" type="curve" smooth="yes"/>
      <point x="371" y="345"/>
      <point x="325" y="432"/>
      <point x="245" y="432" type="curve" smooth="yes"/>
      <point x="165" y="432"/>
      <point x="119" y="345"/>
    </contour>
  </outline>
</glyph>
<glyph name="uni01C9" format="1">
  <advance width="556"/>
  <unicode hex="01C9"/>
  <outline>
    <contour>
      <point x="19" y="623" type="line"/>
      <point x="19" y="639" type="line"/>
      <point x="88" y="656"/>
      <point x="126" y="666"/>
      <point x="178" y="683" type="curve"/>
      <point x="182" y="681" type="line"/>
      <point x="182" y="84" type="line" smooth="yes"/>
      <point x="182" y="29"/>
      <point x="194" y="19"/>
      <point x="257" y="15" type="curve"/>
      <point x="257" y="0" type="line"/>
      <point x="21" y="0" type="line"/>
      <point x="21" y="15" type="line"/>
      <point x="84" y="20"/>
      <point x="98" y="33"/>
      <point x="98" y="87" type="curve" smooth="yes"/>
      <point x="98" y="564" type="line" smooth="yes"/>
      <point x="98" y="611"/>
      <point x="88" y="625"/>
      <point x="56" y="625" type="curve" smooth="yes"/>
      <point x="48" y="625"/>
      <point x="36" y="624"/>
      <point x="25" y="623" type="curve" smooth="yes"/>
    </contour>
    <contour>
      <point x="208" y="-163" type="curve" smooth="yes"/>
      <point x="208" y="-141"/>
      <point x="226" y="-124"/>
      <point x="249" y="-124" type="curve" smooth="yes"/>
      <point x="265" y="-124"/>
      <point x="279" y="-133"/>
      <point x="297" y="-156" type="curve" smooth="yes"/>
      <point x="314" y="-177"/>
      <point x="324" y="-184"/>
      <point x="339" y="-184" type="curve" smooth="yes"/>
      <point x="353" y="-184"/>
      <point x="367" y="-176"/>
      <point x="373" y="-166" type="curve" smooth="yes"/>
      <point x="384" y="-146"/>
      <point x="387" y="-121"/>
      <point x="387" y="-45" type="curve" smooth="yes"/>
      <point x="387" y="334" type="line" smooth="yes"/>
      <point x="387" y="377"/>
      <point x="378" y="394"/>
      <point x="355" y="394" type="curve" smooth="yes"/>
      <point x="345" y="394"/>
      <point x="330" y="393"/>
      <point x="315" y="391" type="curve" smooth="yes"/>
      <point x="310" y="390" type="line"/>
      <point x="310" y="406" type="line"/>
      <point x="369" y="424"/>
      <point x="407" y="437"/>
      <point x="466" y="460" type="curve"/>
      <point x="471" y="457" type="line"/>
      <point x="471" y="0" type="line" smooth="yes"/>
      <point x="471" y="-142"/>
      <point x="412" y="-218"/>
      <point x="302" y="-218" type="curve" smooth="yes"/>
      <point x="248" y="-218"/>
      <point x="208" y="-195"/>
    </contour>
    <contour>
      <point x="370" y="633" type="curve" smooth="yes"/>
      <point x="370" y="659"/>
      <point x="393" y="682"/>
      <point x="418" y="682" type="curve" smooth="yes"/>
      <point x="446" y="682"/>
      <point x="469" y="659"/>
      <point x="469" y="632" type="curve" smooth="yes"/>
      <point x="469" y="605"/>
      <point x="446" y="583"/>
      <point x="418" y="583" type="curve" smooth="yes"/>
      <point x="391" y="583"/>
      <point x="370" y="605"/>
    </contour>
  </outline>
</glyph>
<glyph name="uni01CA" format="1">
  <advance width="1111"/>
  <unicode hex="01CA"/>
  <outline>
    <contour>
      <point x="12" y="0" type="line"/>
      <point x="12" y="19" type="line"/>
      <point x="95" y="25"/>
      <point x="109" y="44"/>
      <point x="109" y="147" type="curve" smooth="yes"/>
      <point x="109" y="588" type="line"/>
      <point x="69" y="635"/>
      <point x="55" y="643"/>
      <point x="12" y="643" type="curve"/>
      <point x="12" y="662" type="line"/>
      <point x="183" y="662" type="line"/>
      <point x="568" y="178" type="line"/>
      <point x="568" y="515" type="line" smooth="yes"/>
      <point x="568" y="577"/>
      <point x="559" y="613"/>
      <point x="539" y="627" type="curve" smooth="yes"/>
      <point x="524" y="636"/>
      <point x="510" y="640"/>
      <point x="472" y="643" type="curve"/>
      <point x="472" y="662" type="line"/>
      <point x="707" y="662" type="line"/>
      <point x="707" y="643" type="line"/>
      <point x="669" y="639"/>
      <point x="655" y="635"/>
      <point x="641" y="625" type="curve" smooth="yes"/>
      <point x="622" y="612"/>
      <point x="612" y="575"/>
      <point x="612" y="515" type="curve" smooth="yes"/>
      <point x="612" y="-11" type="line"/>
      <point x="595" y="-11" type="line"/>
      <point x="153" y="539" type="line"/>
      <point x="153" y="147" type="line" smooth="yes"/>
      <point x="153" y="46"/>
      <point x="170" y="23"/>
      <point x="247" y="19" type="curve"/>
      <point x="247" y="0" type="line"/>
    </contour>
    <contour>
      <point x="732" y="58" type="curve" smooth="yes"/>
      <point x="732" y="85"/>
      <point x="754" y="108"/>
      <point x="781" y="108" type="curve" smooth="yes"/>
      <point x="807" y="108"/>
      <point x="823" y="92"/>
      <point x="833" y="57" type="curve" smooth="yes"/>
      <point x="840" y="32"/>
      <point x="846" y="24"/>
      <point x="860" y="24" type="curve" smooth="yes"/>
      <point x="886" y="24"/>
      <point x="898" y="45"/>
      <point x="898" y="90" type="curve" smooth="yes"/>
      <point x="898" y="553" type="line" smooth="yes"/>
      <point x="898" y="626"/>
      <point x="887" y="637"/>
      <point x="805" y="643" type="curve"/>
      <point x="805" y="662" type="line"/>
      <point x="1092" y="662" type="line"/>
      <point x="1092" y="643" type="line"/>
      <point x="1011" y="637"/>
      <point x="1000" y="626"/>
      <point x="1000" y="553" type="curve" smooth="yes"/>
      <point x="1000" y="183" type="line" smooth="yes"/>
      <point x="1000" y="58"/>
      <point x="939" y="-14"/>
      <point x="831" y="-14" type="curve" smooth="yes"/>
      <point x="773" y="-14"/>
      <point x="732" y="16"/>
    </contour>
  </outline>
</glyph>
<glyph name="uni01CB" format="1">
  <advance width="1000"/>
  <unicode hex="01CB"/>
  <outline>
    <contour>
      <point x="12" y="0" type="line"/>
      <point x="12" y="19" type="line"/>
      <point x="95" y="25"/>
      <point x="109" y="44"/>
      <point x="109" y="147" type="curve" smooth="yes"/>
      <point x="109" y="588" type="line"/>
      <point x="69" y="635"/>
      <point x="55" y="643"/>
      <point x="12" y="643" type="curve"/>
      <point x="12" y="662" type="line"/>
      <point x="183" y="662" type="line"/>
      <point x="568" y="178" type="line"/>
      <point x="568" y="515" type="line" smooth="yes"/>
      <point x="568" y="577"/>
      <point x="559" y="613"/>
      <point x="539" y="627" type="curve" smooth="yes"/>
      <point x="524" y="636"/>
      <point x="510" y="640"/>
      <point x="472" y="643" type="curve"/>
      <point x="472" y="662" type="line"/>
      <point x="707" y="662" type="line"/>
      <point x="707" y="643" type="line"/>
      <point x="669" y="639"/>
      <point x="655" y="635"/>
      <point x="641" y="625" type="curve" smooth="yes"/>
      <point x="622" y="612"/>
      <point x="612" y="575"/>
      <point x="612" y="515" type="curve" smooth="yes"/>
      <point x="612" y="-11" type="line"/>
      <point x="595" y="-11" type="line"/>
      <point x="153" y="539" type="line"/>
      <point x="153" y="147" type="line" smooth="yes"/>
      <point x="153" y="46"/>
      <point x="170" y="23"/>
      <point x="247" y="19" type="curve"/>
      <point x="247" y="0" type="line"/>
    </contour>
    <contour>
      <point x="652" y="-163" type="curve" smooth="yes"/>
      <point x="652" y="-141"/>
      <point x="670" y="-124"/>
      <point x="693" y="-124" type="curve" smooth="yes"/>
      <point x="709" y="-124"/>
      <point x="723" y="-133"/>
      <point x="741" y="-156" type="curve" smooth="yes"/>
      <point x="758" y="-177"/>
      <point x="768" y="-184"/>
      <point x="783" y="-184" type="curve" smooth="yes"/>
      <point x="797" y="-184"/>
      <point x="811" y="-176"/>
      <point x="817" y="-166" type="curve" smooth="yes"/>
      <point x="828" y="-146"/>
      <point x="831" y="-121"/>
      <point x="831" y="-45" type="curve" smooth="yes"/>
      <point x="831" y="334" type="line" smooth="yes"/>
      <point x="831" y="377"/>
      <point x="822" y="394"/>
      <point x="799" y="394" type="curve" smooth="yes"/>
      <point x="789" y="394"/>
      <point x="774" y="393"/>
      <point x="759" y="391" type="curve" smooth="yes"/>
      <point x="754" y="390" type="line"/>
      <point x="754" y="406" type="line"/>
      <point x="813" y="424"/>
      <point x="851" y="437"/>
      <point x="910" y="460" type="curve"/>
      <point x="915" y="457" type="line"/>
      <point x="915" y="0" type="line" smooth="yes"/>
      <point x="915" y="-142"/>
      <point x="856" y="-218"/>
      <point x="746" y="-218" type="curve" smooth="yes"/>
      <point x="692" y="-218"/>
      <point x="652" y="-195"/>
    </contour>
    <contour>
      <point x="814" y="633" type="curve" smooth="yes"/>
      <point x="814" y="659"/>
      <point x="837" y="682"/>
      <point x="862" y="682" type="curve" smooth="yes"/>
      <point x="890" y="682"/>
      <point x="913" y="659"/>
      <point x="913" y="632" type="curve" smooth="yes"/>
      <point x="913" y="605"/>
      <point x="890" y="583"/>
      <point x="862" y="583" type="curve" smooth="yes"/>
      <point x="835" y="583"/>
      <point x="814" y="605"/>
    </contour>
  </outline>
</glyph>
<glyph name="Acaron" format="1">
  <advance width="722"/>
  <unicode hex="01CD"/>
  <outline>
    <contour>
      <point x="14" y="0" type="line"/>
      <point x="14" y="19" type="line"/>
      <point x="62" y="21"/>
      <point x="76" y="36"/>
      <point x="138" y="183" type="curve" smooth="yes"/>
      <point x="346" y="674" type="line"/>
      <point x="366" y="674" type="line"/>
      <point x="615" y="106" type="line" smooth="yes"/>
      <point x="648" y="31"/>
      <point x="660" y="22"/>
      <point x="705" y="19" type="curve"/>
      <point x="705" y="0" type="line"/>
      <point x="450" y="0" type="line"/>
      <point x="450" y="19" type="line"/>
      <point x="503" y="20"/>
      <point x="520" y="28"/>
      <point x="520" y="53" type="curve" smooth="yes"/>
      <point x="520" y="67"/>
      <point x="513" y="93"/>
      <point x="501" y="120" type="curve" smooth="yes"/>
      <point x="460" y="216" type="line"/>
      <point x="198" y="216" type="line"/>
      <point x="152" y="99" type="line" smooth="yes"/>
      <point x="147" y="86"/>
      <point x="144" y="72"/>
      <point x="144" y="60" type="curve" smooth="yes"/>
      <point x="144" y="32"/>
      <point x="164" y="19"/>
      <point x="212" y="19" type="curve"/>
      <point x="212" y="0" type="line"/>
    </contour>
    <contour>
      <point x="201" y="903" type="line"/>
      <point x="235" y="903" type="line"/>
      <point x="356" y="800" type="line"/>
      <point x="478" y="903" type="line"/>
      <point x="512" y="903" type="line"/>
      <point x="387" y="736" type="line"/>
      <point x="325" y="736" type="line"/>
    </contour>
    <contour>
      <point x="215" y="257" type="line"/>
      <point x="446" y="257" type="line"/>
      <point x="330" y="532" type="line"/>
    </contour>
  </outline>
</glyph>
<glyph name="Icaron" format="1">
  <advance width="329"/>
  <unicode hex="01CF"/>
  <outline>
    <contour>
      <point x="5" y="903" type="line"/>
      <point x="39" y="903" type="line"/>
      <point x="160" y="800" type="line"/>
      <point x="282" y="903" type="line"/>
      <point x="316" y="903" type="line"/>
      <point x="191" y="736" type="line"/>
      <point x="129" y="736" type="line"/>
    </contour>
    <contour>
      <point x="12" y="0" type="line"/>
      <point x="12" y="19" type="line"/>
      <point x="96" y="22"/>
      <point x="109" y="34"/>
      <point x="109" y="109" type="curve" smooth="yes"/>
      <point x="109" y="553" type="line" smooth="yes"/>
      <point x="109" y="627"/>
      <point x="97" y="638"/>
      <point x="12" y="643" type="curve"/>
      <point x="12" y="662" type="line"/>
      <point x="309" y="662" type="line"/>
      <point x="309" y="643" type="line"/>
      <point x="225" y="639"/>
      <point x="211" y="626"/>
      <point x="211" y="553" type="curve" smooth="yes"/>
      <point x="211" y="109" type="line" smooth="yes"/>
      <point x="211" y="36"/>
      <point x="227" y="22"/>
      <point x="309" y="19" type="curve"/>
      <point x="309" y="0" type="line"/>
    </contour>
  </outline>
</glyph>
<glyph name="Ocaron" format="1">
  <advance width="722"/>
  <unicode hex="01D1"/>
  <outline>
    <contour>
      <point x="33" y="330" type="curve" smooth="yes"/>
      <point x="33" y="524"/>
      <point x="161" y="676"/>
      <point x="360" y="676" type="curve" smooth="yes"/>
      <point x="559" y="676"/>
      <point x="687" y="524"/>
      <point x="687" y="330" type="curve" smooth="yes"/>
      <point x="687" y="136"/>
      <point x="559" y="-14"/>
      <point x="360" y="-14" type="curve" smooth="yes"/>
      <point x="161" y="-14"/>
      <point x="33" y="136"/>
    </contour>
    <contour>
      <point x="147" y="331" type="curve" smooth="yes"/>
      <point x="147" y="195"/>
      <point x="194" y="22"/>
      <point x="360" y="22" type="curve" smooth="yes"/>
      <point x="526" y="22"/>
      <point x="573" y="195"/>
      <point x="573" y="331" type="curve" smooth="yes"/>
      <point x="573" y="465"/>
      <point x="524" y="640"/>
      <point x="360" y="640" type="curve" smooth="yes"/>
      <point x="196" y="640"/>
      <point x="147" y="465"/>
    </contour>
    <contour>
      <point x="205" y="903" type="line"/>
      <point x="239" y="903" type="line"/>
      <point x="360" y="800" type="line"/>
      <point x="482" y="903" type="line"/>
      <point x="516" y="903" type="line"/>
      <point x="391" y="736" type="line"/>
      <point x="329" y="736" type="line"/>
    </contour>
  </outline>
</glyph>
<glyph name="uni01DA" format="1">
  <advance width="500"/>
  <unicode hex="01DA"/>
  <outline>
    <contour>
      <point x="9" y="436" type="curve"/>
      <point x="9" y="450" type="line"/>
      <point x="155" y="450" type="line"/>
      <point x="155" y="124" type="line" smooth="yes"/>
      <point x="155" y="82"/>
      <point x="187" y="48"/>
      <point x="226" y="48" type="curve" smooth="yes"/>
      <point x="256" y="48"/>
      <point x="287" y="60"/>
      <point x="314" y="82" type="curve" smooth="yes"/>
      <point x="328" y="93"/>
      <point x="333" y="107"/>
      <point x="333" y="135" type="curve" smooth="yes"/>
      <point x="333" y="370" type="line" smooth="yes"/>
      <point x="333" y="420"/>
      <point x="321" y="430"/>
      <point x="259" y="433" type="curve"/>
      <point x="259" y="450" type="line"/>
      <point x="417" y="450" type="line"/>
      <point x="417" y="107" type="line" smooth="yes"/>
      <point x="417" y="61"/>
      <point x="428" y="50"/>
      <point x="474" y="50" type="curve" smooth="yes"/>
      <point x="479" y="50" type="line"/>
      <point x="479" y="36" type="line"/>
      <point x="428" y="22"/>
      <point x="392" y="11"/>
      <point x="342" y="-9" type="curve"/>
      <point x="338" y="-7" type="line"/>
      <point x="338" y="76" type="line"/>
      <point x="295" y="33" type="line" smooth="yes"/>
      <point x="268" y="6"/>
      <point x="229" y="-10"/>
      <point x="192" y="-10" type="curve" smooth="yes"/>
      <point x="119" y="-10"/>
      <point x="71" y="41"/>
      <point x="71" y="120" type="curve" smooth="yes"/>
      <point x="71" y="372" type="line" smooth="yes"/>
      <point x="71" y="418"/>
      <point x="57" y="433"/>
    </contour>
    <contour>
      <point x="74" y="849" type="line"/>
      <point x="108" y="849" type="line"/>
      <point x="229" y="746" type="line"/>
      <point x="351" y="849" type="line"/>
      <point x="385" y="849" type="line"/>
      <point x="260" y="682" type="line"/>
      <point x="198" y="682" type="line"/>
    </contour>
    <contour>
      <point x="82" y="573" type="curve" smooth="yes"/>
      <point x="82" y="599"/>
      <point x="105" y="622"/>
      <point x="130" y="622" type="curve" smooth="yes"/>
      <point x="158" y="622"/>
      <point x="181" y="599"/>
      <point x="181" y="572" type="curve" smooth="yes"/>
      <point x="181" y="545"/>
      <point x="158" y="523"/>
      <point x="130" y="523" type="curve" smooth="yes"/>
      <point x="103" y="523"/>
      <point x="82" y="545"/>
    </contour>
    <contour>
      <point x="281" y="573" type="curve" smooth="yes"/>
      <point x="281" y="599"/>
      <point x="304" y="622"/>
      <point x="329" y="622" type="curve" smooth="yes"/>
      <point x="357" y="622"/>
      <point x="380" y="599"/>
      <point x="380" y="572" type="curve" smooth="yes"/>
      <point x="380" y="545"/>
      <point x="357" y="523"/>
      <point x="329" y="523" type="curve" smooth="yes"/>
      <point x="302" y="523"/>
      <point x="281" y="545"/>
    </contour>
  </outline>
</glyph>
<glyph name="uni01DB" format="1">
  <advance width="722"/>
  <unicode hex="01DB"/>
  <outline>
    <contour>
      <point x="13" y="643" type="curve"/>
      <point x="13" y="662" type="line"/>
      <point x="296" y="662" type="line"/>
      <point x="296" y="643" type="line"/>
      <point x="216" y="636"/>
      <point x="205" y="625"/>
      <point x="205" y="553" type="curve" smooth="yes"/>
      <point x="205" y="233" type="line" smooth="yes"/>
      <point x="205" y="170"/>
      <point x="212" y="133"/>
      <point x="230" y="101" type="curve" smooth="yes"/>
      <point x="257" y="54"/>
      <point x="306" y="30"/>
      <point x="377" y="30" type="curve" smooth="yes"/>
      <point x="452" y="30"/>
      <point x="516" y="61"/>
      <point x="543" y="109" type="curve" smooth="yes"/>
      <point x="559" y="139"/>
      <point x="566" y="177"/>
      <point x="566" y="245" type="curve" smooth="yes"/>
      <point x="566" y="515" type="line" smooth="yes"/>
      <point x="566" y="615"/>
      <point x="550" y="637"/>
      <point x="472" y="643" type="curve"/>
      <point x="472" y="662" type="line"/>
      <point x="704" y="662" type="line"/>
      <point x="704" y="643" type="line"/>
      <point x="622" y="633"/>
      <point x="610" y="617"/>
      <point x="610" y="515" type="curve" smooth="yes"/>
      <point x="610" y="254" type="line" smooth="yes"/>
      <point x="610" y="177"/>
      <point x="601" y="131"/>
      <point x="577" y="89" type="curve" smooth="yes"/>
      <point x="538" y="21"/>
      <point x="463" y="-14"/>
      <point x="354" y="-14" type="curve" smooth="yes"/>
      <point x="184" y="-14"/>
      <point x="103" y="68"/>
      <point x="103" y="241" type="curve" smooth="yes"/>
      <point x="103" y="553" type="line" smooth="yes"/>
      <point x="103" y="626"/>
      <point x="92" y="637"/>
    </contour>
    <contour>
      <point x="174" y="1034" type="curve" smooth="yes"/>
      <point x="174" y="1053"/>
      <point x="187" y="1065"/>
      <point x="208" y="1065" type="curve" smooth="yes"/>
      <point x="223" y="1065"/>
      <point x="232" y="1060"/>
      <point x="250" y="1042" type="curve" smooth="yes"/>
      <point x="397" y="894" type="line"/>
      <point x="357" y="894" type="line"/>
      <point x="203" y="991" type="line" smooth="yes"/>
      <point x="185" y="1003"/>
      <point x="174" y="1018"/>
    </contour>
    <contour>
      <point x="229" y="785" type="curve" smooth="yes"/>
      <point x="229" y="811"/>
      <point x="252" y="834"/>
      <point x="277" y="834" type="curve" smooth="yes"/>
      <point x="305" y="834"/>
      <point x="328" y="811"/>
      <point x="328" y="784" type="curve" smooth="yes"/>
      <point x="328" y="757"/>
      <point x="305" y="735"/>
      <point x="277" y="735" type="curve" smooth="yes"/>
      <point x="250" y="735"/>
      <point x="229" y="757"/>
    </contour>
    <contour>
      <point x="428" y="785" type="curve" smooth="yes"/>
      <point x="428" y="811"/>
      <point x="451" y="834"/>
      <point x="476" y="834" type="curve" smooth="yes"/>
      <point x="504" y="834"/>
      <point x="527" y="811"/>
      <point x="527" y="784" type="curve" smooth="yes"/>
      <point x="527" y="757"/>
      <point x="504" y="735"/>
      <point x="476" y="735" type="curve" smooth="yes"/>
      <point x="449" y="735"/>
      <point x="428" y="757"/>
    </contour>
  </outline>
</glyph>
<glyph name="uni01DD" format="1">
  <advance width="444"/>
  <unicode hex="01DD"/>
  <outline>
    <contour>
      <point x="20" y="293" type="line"/>
      <point x="62" y="401"/>
      <point x="137" y="460"/>
      <point x="232" y="460" type="curve" smooth="yes"/>
      <point x="347" y="460"/>
      <point x="419" y="374"/>
      <point x="419" y="236" type="curve" smooth="yes"/>
      <point x="419" y="87"/>
      <point x="331" y="-10"/>
      <point x="210" y="-10" type="curve" smooth="yes"/>
      <point x="158" y="-10"/>
      <point x="112" y="11"/>
      <point x="82" y="47" type="curve" smooth="yes"/>
      <point x="57" y="79"/>
      <point x="47" y="108"/>
      <point x="39" y="173" type="curve"/>
      <point x="347" y="173" type="line"/>
      <point x="345" y="234"/>
      <point x="338" y="267"/>
      <point x="320" y="305" type="curve" smooth="yes"/>
      <point x="291" y="362"/>
      <point x="248" y="391"/>
      <point x="191" y="391" type="curve" smooth="yes"/>
      <point x="127" y="391"/>
      <point x="84" y="362"/>
      <point x="36" y="286" type="curve"/>
    </contour>
    <contour>
      <point x="141" y="141" type="line"/>
      <point x="154" y="54"/>
      <point x="178" y="26"/>
      <point x="239" y="26" type="curve" smooth="yes"/>
      <point x="300" y="26"/>
      <point x="334" y="63"/>
      <point x="345" y="141" type="curve"/>
    </contour>
  </outline>
</glyph>
<glyph name="gcaron" format="1">
  <advance width="500"/>
  <unicode hex="01E7"/>
  <outline>
    <contour>
      <point x="26" y="-121" type="curve" smooth="yes"/>
      <point x="26" y="-70"/>
      <point x="87" y="-25"/>
      <point x="124" y="1" type="curve"/>
      <point x="102" y="12"/>
      <point x="71" y="25"/>
      <point x="71" y="54" type="curve" smooth="yes"/>
      <point x="71" y="91"/>
      <point x="136" y="142"/>
      <point x="160" y="163" type="curve"/>
      <point x="106" y="187"/>
      <point x="67" y="231"/>
      <point x="67" y="293" type="curve" smooth="yes"/>
      <point x="67" y="393"/>
      <point x="141" y="460"/>
      <point x="239" y="460" type="curve" smooth="yes"/>
      <point x="277" y="460"/>
      <point x="301" y="449"/>
      <point x="336" y="437" type="curve" smooth="yes"/>
      <point x="361" y="428"/>
      <point x="388" y="426"/>
      <point x="415" y="426" type="curve" smooth="yes"/>
      <point x="433" y="426"/>
      <point x="451" y="427"/>
      <point x="469" y="427" type="curve"/>
      <point x="469" y="388" type="line"/>
      <point x="385" y="388" type="line"/>
      <point x="400" y="354"/>
      <point x="404" y="333"/>
      <point x="404" y="296" type="curve" smooth="yes"/>
      <point x="404" y="209"/>
      <point x="328" y="149"/>
      <point x="245" y="149" type="curve" smooth="yes"/>
      <point x="227" y="149"/>
      <point x="209" y="154"/>
      <point x="191" y="154" type="curve" smooth="yes"/>
      <point x="172" y="154"/>
      <point x="131" y="110"/>
      <point x="131" y="91" type="curve" smooth="yes"/>
      <point x="131" y="66"/>
      <point x="192" y="65"/>
      <point x="209" y="64" type="curve" smooth="yes"/>
      <point x="338" y="58" type="line" smooth="yes"/>
      <point x="402" y="55"/>
      <point x="459" y="21"/>
      <point x="459" y="-49" type="curve" smooth="yes"/>
      <point x="459" y="-161"/>
      <point x="295" y="-218"/>
      <point x="203" y="-218" type="curve" smooth="yes"/>
      <point x="148" y="-218"/>
      <point x="26" y="-196"/>
    </contour>
    <contour>
      <point x="84" y="687" type="line"/>
      <point x="118" y="687" type="line"/>
      <point x="239" y="584" type="line"/>
      <point x="361" y="687" type="line"/>
      <point x="395" y="687" type="line"/>
      <point x="270" y="520" type="line"/>
      <point x="208" y="520" type="line"/>
    </contour>
    <contour>
      <point x="96" y="-88" type="curve" smooth="yes"/>
      <point x="96" y="-132"/>
      <point x="154" y="-161"/>
      <point x="242" y="-161" type="curve" smooth="yes"/>
      <point x="355" y="-161"/>
      <point x="431" y="-122"/>
      <point x="431" y="-64" type="curve" smooth="yes"/>
      <point x="431" y="-28"/>
      <point x="398" y="-15"/>
      <point x="307" y="-15" type="curve" smooth="yes"/>
      <point x="258" y="-15"/>
      <point x="178" y="-9"/>
      <point x="145" y="-2" type="curve"/>
      <point x="103" y="-52"/>
      <point x="96" y="-65"/>
    </contour>
    <contour>
      <point x="150" y="342" type="curve" smooth="yes"/>
      <point x="150" y="276"/>
      <point x="170" y="174"/>
      <point x="254" y="174" type="curve" smooth="yes"/>
      <point x="309" y="174"/>
      <point x="327" y="223"/>
      <point x="327" y="270" type="curve" smooth="yes"/>
      <point x="327" y="329"/>
      <point x="298" y="432"/>
      <point x="225" y="432" type="curve" smooth="yes"/>
      <point x="173" y="432"/>
      <point x="150" y="390"/>
    </contour>
  </outline>
</glyph>
<glyph name="uni01EA" format="1">
  <advance width="722"/>
  <unicode hex="01EA"/>
  <outline>
    <contour>
      <point x="34" y="329" type="curve" smooth="yes"/>
      <point x="34" y="523"/>
      <point x="162" y="675"/>
      <point x="361" y="675" type="curve" smooth="yes"/>
      <point x="560" y="675"/>
      <point x="688" y="523"/>
      <point x="688" y="329" type="curve" smooth="yes"/>
      <point x="688" y="140"/>
      <point x="567" y="-7"/>
      <point x="377" y="-15" type="curve"/>
      <point x="351" y="-37"/>
      <point x="340" y="-57"/>
      <point x="340" y="-78" type="curve" smooth="yes"/>
      <point x="340" y="-101"/>
      <point x="356" y="-118"/>
      <point x="378" y="-118" type="curve" smooth="yes"/>
      <point x="399" y="-118"/>
      <point x="418" y="-108"/>
      <point x="449" y="-82" type="curve"/>
      <point x="469" y="-98" type="line"/>
      <point x="432" y="-151"/>
      <point x="398" y="-174"/>
      <point x="357" y="-174" type="curve" smooth="yes"/>
      <point x="316" y="-174"/>
      <point x="284" y="-141"/>
      <point x="284" y="-98" type="curve" smooth="yes"/>
      <point x="284" y="-68"/>
      <point x="298" y="-42"/>
      <point x="332" y="-14" type="curve"/>
      <point x="150" y="-0"/>
      <point x="34" y="145"/>
    </contour>
    <contour>
      <point x="148" y="330" type="curve" smooth="yes"/>
      <point x="148" y="194"/>
      <point x="195" y="21"/>
      <point x="361" y="21" type="curve" smooth="yes"/>
      <point x="527" y="21"/>
      <point x="574" y="194"/>
      <point x="574" y="330" type="curve" smooth="yes"/>
      <point x="574" y="464"/>
      <point x="525" y="639"/>
      <point x="361" y="639" type="curve" smooth="yes"/>
      <point x="197" y="639"/>
      <point x="148" y="464"/>
    </contour>
  </outline>
</glyph>
<glyph name="uni01EB" format="1">
  <advance width="500"/>
  <unicode hex="01EB"/>
  <outline>
    <contour>
      <point x="29" y="227" type="curve" smooth="yes"/>
      <point x="29" y="353"/>
      <point x="114" y="459"/>
      <point x="245" y="459" type="curve" smooth="yes"/>
      <point x="384" y="459"/>
      <point x="470" y="364"/>
      <point x="470" y="227" type="curve" smooth="yes"/>
      <point x="470" y="107"/>
      <point x="386" y="-1"/>
      <point x="265" y="-10" type="curve"/>
      <point x="238" y="-33"/>
      <point x="227" y="-53"/>
      <point x="227" y="-74" type="curve" smooth="yes"/>
      <point x="227" y="-97"/>
      <point x="243" y="-114"/>
      <point x="265" y="-114" type="curve" smooth="yes"/>
      <point x="286" y="-114"/>
      <point x="305" y="-104"/>
      <point x="336" y="-78" type="curve"/>
      <point x="356" y="-94" type="line"/>
      <point x="319" y="-147"/>
      <point x="285" y="-170"/>
      <point x="244" y="-170" type="curve" smooth="yes"/>
      <point x="203" y="-170"/>
      <point x="171" y="-137"/>
      <point x="171" y="-94" type="curve" smooth="yes"/>
      <point x="171" y="-64"/>
      <point x="185" y="-38"/>
      <point x="220" y="-9" type="curve"/>
      <point x="101" y="5"/>
      <point x="29" y="107"/>
    </contour>
    <contour>
      <point x="119" y="275" type="curve" smooth="yes"/>
      <point x="119" y="187"/>
      <point x="147" y="17"/>
      <point x="262" y="17" type="curve" smooth="yes"/>
      <point x="356" y="17"/>
      <point x="380" y="123"/>
      <point x="380" y="198" type="curve" smooth="yes"/>
      <point x="380" y="284"/>
      <point x="348" y="431"/>
      <point x="237" y="431" type="curve" smooth="yes"/>
      <point x="152" y="431"/>
      <point x="119" y="348"/>
    </contour>
  </outline>
</glyph>
